SplineFontDB: 3.0
FontName: CMUConcrete-Roman
FullName: CMU Concrete Roman
FamilyName: CMU Concrete
Weight: Medium
Copyright: Converted by Andrey V. Panov from TeX fonts
UComments: "2009-6-18: Created." 
Version: 0.7.0
ItalicAngle: 0
UnderlinePosition: -100
UnderlineWidth: 50
Ascent: 800
Descent: 200
LayerCount: 2
Layer: 0 0 "+BBcEMAQ0BD0EOAQ5 +BD8EOwQwBD0A"  1
Layer: 1 0 "+BB8ENQRABDUENAQ9BDgEOQAA +BD8EOwQwBD0A"  0
NeedsXUIDChange: 1
XUID: [1067 598336]
FSType: 0
OS2Version: 0
OS2_WeightWidthSlopeOnly: 0
OS2_UseTypoMetrics: 1
CreationTime: 1245317107
ModificationTime: 1245317617
PfmFamily: 17
TTFWeight: 500
TTFWidth: 5
LineGap: 200
VLineGap: 90
OS2TypoAscent: 0
OS2TypoAOffset: 1
OS2TypoDescent: 0
OS2TypoDOffset: 1
OS2TypoLinegap: 200
OS2WinAscent: 923
OS2WinAOffset: 0
OS2WinDescent: 263
OS2WinDOffset: 0
HheadAscent: 923
HheadAOffset: 0
HheadDescent: -263
HheadDOffset: 0
Lookup: 1 0 0 "Case substitutions"  {"Case substitutions subtable"  } ['case' ('cyrl' <'dflt' > 'grek' <'dflt' > 'latn' <'dflt' > ) ]
Lookup: 1 0 0 "LC small to smallcaps"  {"LC small to smallcaps subtable"  } ['smcp' ('latn' <'dflt' > 'cyrl' <'dflt' > ) ]
Lookup: 1 0 0 "LC caps to smallcaps"  {"LC caps to smallcaps subtable"  } ['c2sc' ('latn' <'dflt' > 'cyrl' <'dflt' > ) ]
Lookup: 3 0 0 "Greek alternatives"  {"Greek alternatives subtable"  } ['salt' ('grek' <'dflt' > ) ]
Lookup: 1 0 0 "Greek substitutions"  {"Greek substitutions subtable"  } ['locl' ('grek' <'dflt' > ) ]
Lookup: 4 0 1 "Latin Dutch ligatures"  {"Latin Dutch ligatures subtable"  } ['liga' ('latn' <'NLD ' > ) ]
Lookup: 4 0 1 "Latin ligatures excepting Turkic"  {"Latin ligatures excepting Turkic subtable"  } ['liga' ('latn' <'dflt' 'NLD ' 'VIT ' > ) ]
Lookup: 4 0 1 "Latin ligatures"  {"Latin ligatures subtable"  } ['liga' ('latn' <'dflt' 'NLD ' 'VIT ' 'TRK ' 'AZE ' > ) ]
Lookup: 4 0 1 "Cyrillic ligatures"  {"Cyrillic ligatures subtable"  } ['liga' ('cyrl' <'dflt' 'MKD ' 'SRB ' > ) ]

StartChar: .notdef
Encoding: 0 0 0
Width: 760
Flags: HW
HStem: 10 60<105 655> 705 60<105 655>
VStem: 10 60<112 663> 690 60<112 663>
DStem2: 105 705 70 663 0.702289 -0.711892<5.31938 389.612 448.699 832.991> 70 112 105 70 0.702289 0.711892<0 384.292 443.379 827.672>
LayerCount: 2
Fore
SplineSet
10 10 m 1
 10 765 l 1
 750 765 l 1
 750 10 l 1
 10 10 l 1
70 112 m 1
 346 388 l 1
 70 663 l 1
 70 112 l 1
105 70 m 1
 655 70 l 1
 380 346 l 1
 105 70 l 1
105 705 m 1
 380 429 l 1
 655 705 l 1
 105 705 l 1
414 388 m 1
 690 112 l 1
 690 663 l 1
 414 388 l 1
EndSplineSet
EndChar

StartChar: uni262D
Encoding: 9773 9773 1
Width: 700
Flags: HW
TeX: 117 0
HStem: -1 21G<56 93 593.5 601> 39 76<321.786 462.78> 102 51<140.549 177.987>
VStem: 129 54<101.776 137.734> 556 82<197.341 366.709>
DStem2: 123 357 178 301 0.707107 0.707107<0 86.9741 130.108 182.434>
LayerCount: 2
Fore
SplineSet
40 18 m 0
 40 64 129 102 129 128 c 0
 129 148 134 153 148 153 c 0xb8
 162 153 164 157 182 180 c 1
 229 156 307 115 390 115 c 0
 438 115 463 128 463 129 c 0
 463 135 406 186 240 363 c 1
 178 301 l 1
 123 357 l 1
 252 486 l 1
 347 470 l 1
 271 393 l 1
 484 190 l 1
 513 165 l 1
 519 165 556 218 556 295 c 0
 556 473 346 588 346 593 c 1
 394 593 638 478 638 267 c 0
 638 167 592 118 580 100 c 1
 636 44 637 42 637 38 c 0xd8
 637 17 605 -1 597 -1 c 2
 596 -1 l 2
 591 -1 590 1 529 62 c 1
 500 51 474 39 428 39 c 0xd8
 297 39 201 138 188 138 c 0
 183 138 182 134 182 130 c 0
 182 126 183 123 183 118 c 0
 183 108 178 102 168 102 c 0
 131 102 122 0 64 -0 c 0
 48 0 40 7 40 18 c 0
EndSplineSet
EndChar

StartChar: longs
Encoding: 383 383 2
Width: 306
Flags: HW
TeX: 108 0
HStem: 0 59<28 111 178 282> 399 59<33 111> 641 58<204.412 275.703>
VStem: 111 67<59 399 458 613.85> 270 79<602.263 640.997>
AnchorPoint: "above" 290 695 basechar 0
AnchorPoint: "below" 144 0 basechar 0
LayerCount: 2
Fore
SplineSet
28 0 m 1
 28 59 l 1
 111 59 l 1
 111 399 l 1
 33 399 l 1
 33 458 l 1
 111 458 l 1
 111 522 l 2
 111 569 115 606 149 643 c 0
 184 681 239 699 290 699 c 0
 337 699 349 661 349 640 c 0
 349 614 331 598 310 598 c 0
 276 598 271 632 270 641 c 1
 178 638 178 571 178 535 c 2
 178 59 l 1
 282 59 l 1
 282 0 l 1
 28 0 l 1
EndSplineSet
EndChar

StartChar: florin
Encoding: 402 402 3
Width: 550
Flags: HW
TeX: 102 0
HStem: -200 59<99.3196 157.161> 400 58<177.633 272 351 462.586> 641 59<385.678 450.695>
VStem: 24 80<-139.671 -96.5387> 446 80<596.586 639.671>
DStem2: 272 400 276 64 0.186998 0.98236<-229.67 0 71.7497 259.86>
LayerCount: 2
Fore
SplineSet
24 -139 m 0
 24 -97 62 -87 72 -87 c 0
 88 -87 104 -99 104 -118 c 0
 104 -125 102 -133 99 -140 c 1
 108 -141 115 -141 120 -141 c 0
 144 -141 159 -131 177 -70 c 0
 210 42 250 290 272 400 c 1
 197 400 l 2
 180 400 174 407 174 417 c 0
 174 425 179 450 190 456 c 0
 194 458 199 458 204 458 c 2
 283 458 l 1
 303 563 309 603 328 637 c 1
 350 674 389 700 431 700 c 0
 507 700 526 663 526 638 c 0
 525 596 489 588 478 588 c 0
 460 588 446 600 446 618 c 0
 446 625 448 633 451 640 c 1
 440 641 432 641 425 641 c 0
 379 641 384 629 351 458 c 1
 444 458 l 2
 452 458 465 456 465 441 c 0
 465 408 450 400 433 400 c 2
 340 400 l 1
 276 64 l 1
 247 -76 229 -115 202 -150 c 0
 179 -179 152 -200 115 -200 c 0
 66 -200 24 -177 24 -139 c 0
EndSplineSet
EndChar

StartChar: uni03F5
Encoding: 1013 1013 4
Width: 431
Flags: HW
HStem: -5 58<249.307 374> 225 61<119 319> 405 59<230.299 374>
LayerCount: 2
Fore
SplineSet
40 234 m 0
 40 372 175 464 374 464 c 1
 374 405 l 1
 240 405 152 363 119 286 c 1
 319 286 l 1
 319 225 l 1
 110 225 l 1
 126 103 259 53 374 53 c 1
 374 -5 l 1
 196 -5 40 91 40 234 c 0
EndSplineSet
EndChar

StartChar: circumflex.cap
Encoding: 65536 -1 5
Width: 500
Flags: HW
HStem: 731 166
VStem: 106 288
DStem2: 250 897 250 830 0.762984 0.646417<-188.182 -43.3099>
AnchorPoint: "above" 250 694 mark 0
LayerCount: 2
Fore
SplineSet
106 775 m 1
 250 897 l 1
 394 775 l 1
 356 731 l 1
 354 731 l 1
 250 830 l 1
 144 731 l 1
 106 775 l 1
EndSplineSet
EndChar

StartChar: dieresis.cap
Encoding: 65537 -1 6
Width: 500
Flags: HW
HStem: 761 105<110.412 195.206 305.77 389.648>
VStem: 100 105<771.387 855.229> 295 105<771.695 855.391>
AnchorPoint: "above" 250 694 mark 0
LayerCount: 2
Fore
SplineSet
295 813 m 0
 295 842 319 866 347 866 c 0
 375 866 400 844 400 813 c 0
 400 783 374 761 348 761 c 0
 317 761 295 786 295 813 c 0
EndSplineSet
Refer: 21 729 S 1 0 0 1 1 171 2
EndChar

StartChar: caron.cap
Encoding: 65539 -1 8
Width: 500
Flags: HW
HStem: 751 68<218.27 281.694>
VStem: 116 268
AnchorPoint: "above" 250 694 mark 0
LayerCount: 2
Back
SplineSet
116 885 m 1
 145 923 l 1
 238 854 242 849 250 849 c 0
 258 849 272 861 355 923 c 1
 384 885 l 1
 257 782 258 781 250 781 c 0
 242 781 236 788 116 885 c 1
EndSplineSet
Fore
SplineSet
116 855 m 1
 145 893 l 1
 238 824 242 819 250 819 c 0
 258 819 272 831 355 893 c 1
 384 855 l 1
 257 752 258 751 250 751 c 0
 242 751 236 758 116 855 c 1
EndSplineSet
EndChar

StartChar: ring.cap
Encoding: 65540 -1 9
Width: 500
Flags: HW
HStem: 694 59<198.056 301.632> 841 58<198.462 300.467>
VStem: 138 56<758.037 835.89> 306 56<758.445 835.18>
AnchorPoint: "above" 250 694 mark 0
LayerCount: 2
Fore
SplineSet
138 797 m 0
 138 857 182 899 250 899 c 0
 320 899 362 856 362 796 c 0
 362 736 318 694 250 694 c 0
 180 694 138 738 138 797 c 0
194 797 m 0
 194 759 218 753 248 753 c 0
 276 753 306 754 306 797 c 0
 306 830 286 841 250 841 c 0
 214 841 194 832 194 797 c 0
EndSplineSet
EndChar

StartChar: breve.cap
Encoding: 65541 -1 10
Width: 500
Flags: HW
HStem: 753 62<172.583 327.983>
VStem: 82 59<844.501 891> 360 58<844.501 891>
AnchorPoint: "above" 250 694 mark 0
LayerCount: 2
Fore
SplineSet
82 891 m 1
 141 891 l 1
 147 822 226 815 250 815 c 0
 274 815 353 822 360 891 c 1
 418 891 l 1
 414 800 331 753 250 753 c 0
 171 753 86 800 82 891 c 1
EndSplineSet
EndChar

StartChar: grave
Encoding: 96 96 11
Width: 500
Flags: HW
TeX: 666 0
HStem: 505 162
VStem: 103 192
LayerCount: 2
Fore
SplineSet
103 631 m 0
 103 647 117 667 137 667 c 0
 153 667 152 665 295 551 c 1
 260 505 l 1
 247 513 235 522 136 591 c 0
 114 607 103 614 103 631 c 0
EndSplineSet
EndChar

StartChar: acute
Encoding: 180 180 12
Width: 500
Flags: HW
TeX: 666 0
HStem: 505 162
VStem: 204 192
LayerCount: 2
Fore
SplineSet
204 551 m 1
 347 666 346 667 362 667 c 0
 383 667 396 647 396 631 c 0
 396 609 370 596 363 591 c 0
 264 522 252 513 239 505 c 1
 204 551 l 1
EndSplineSet
EndChar

StartChar: circumflex
Encoding: 710 710 13
Width: 500
Flags: HW
TeX: 666 0
HStem: 499 173
VStem: 105 290
LayerCount: 2
Fore
SplineSet
105 542 m 1
 250 672 l 1
 395 542 l 1
 355 499 l 1
 250 605 l 1
 145 499 l 1
 105 542 l 1
EndSplineSet
EndChar

StartChar: tilde
Encoding: 732 732 14
Width: 500
Flags: HW
TeX: 666 0
HStem: 559 86<258.129 343.1> 608 86<156.258 241.428>
LayerCount: 2
Fore
SplineSet
83 595 m 1
 122 645 154 694 193 694 c 0x40
 234 694 258 645 299 645 c 0
 327 645 349 671 370 695 c 1
 416 658 l 1
 377 608 345 559 306 559 c 0x80
 265 559 242 608 201 608 c 0
 172 608 149 581 129 558 c 1
 83 595 l 1
EndSplineSet
EndChar

StartChar: dieresis
Encoding: 168 168 15
Width: 500
Flags: HW
TeX: 683 0
HStem: 578 105<110.073 194.588 303.412 388.206>
VStem: 100 105<588.387 672.229> 293 105<588.387 672.229>
LayerCount: 2
Fore
SplineSet
100 630 m 0
 100 661 125 683 152 683 c 0
 179 683 205 661 205 630 c 0
 205 599 179 578 153 578 c 0
 122 578 100 602 100 630 c 0
EndSplineSet
Refer: 21 729 S 1 0 0 1 194 -12 2
EndChar

StartChar: ring
Encoding: 730 730 17
Width: 739
Flags: HW
TeX: 666 0
HStem: 501 35<323.628 414.763> 640 35<324.191 413.336>
VStem: 258 56<543.072 632.693> 424 56<542.871 632.928>
LayerCount: 2
Fore
SplineSet
258 588 m 0
 258 623 283 675 370 675 c 0
 456 675 480 623 480 588 c 0
 480 553 456 501 369 501 c 0
 283 501 258 553 258 588 c 0
314 588 m 0
 314 559 325 536 368 536 c 0
 401 536 424 546 424 588 c 0
 424 617 413 640 370 640 c 0
 338 640 314 629 314 588 c 0
EndSplineSet
EndChar

StartChar: caron
Encoding: 711 711 18
Width: 500
Flags: HW
TeX: 666 0
HStem: 509 175
VStem: 113 272
DStem2: 147 684 113 650 0.69423 -0.719753<0.867788 145.666> 250 580 250 509 0.691571 0.722308<0 143.924>
LayerCount: 2
Fore
SplineSet
113 650 m 1
 147 684 l 1
 249 580 l 1
 250 580 l 1
 352 684 l 1
 385 650 l 1
 250 509 l 1
 249 509 l 1
 113 650 l 1
EndSplineSet
EndChar

StartChar: breve
Encoding: 728 728 19
Width: 500
Flags: HW
TeX: 666 0
HStem: 507 63<180.26 317.477>
VStem: 81 59<611.955 667> 358 59<611.568 667>
LayerCount: 2
Fore
SplineSet
81 667 m 1
 140 667 l 1
 145 591 212 570 249 570 c 0
 296 570 353 598 358 667 c 1
 417 667 l 1
 415 568 333 507 249 507 c 0
 164 507 84 569 81 667 c 1
EndSplineSet
EndChar

StartChar: macron
Encoding: 175 175 20
Width: 500
Flags: HW
TeX: 683 0
HStem: 633 61<69 429>
LayerCount: 2
Fore
SplineSet
69 633 m 1
 69 694 l 1
 429 694 l 1
 429 633 l 1
 69 633 l 1
EndSplineSet
EndChar

StartChar: dotaccent
Encoding: 729 729 21
Width: 278
Flags: HW
TeX: 694 0
HStem: 590 105<109.412 194.206>
VStem: 99 105<600.387 684.229>
LayerCount: 2
Fore
SplineSet
99 642 m 0
 99 673 125 695 152 695 c 0
 180 695 204 673 204 642 c 0
 204 611 178 590 152 590 c 0
 125 590 99 611 99 642 c 0
EndSplineSet
EndChar

StartChar: cedilla
Encoding: 184 184 22
Width: 444
Flags: HW
TeX: 0 170
HStem: -210 58<103 254.125> -60 60<187 257>
VStem: 269 71<-134.052 -73.2338>
LayerCount: 2
Fore
SplineSet
103 -152 m 1
 114 -152 124 -152 135 -152 c 0
 185 -152 269 -148 269 -104 c 0
 269 -83 248 -62 187 -60 c 1
 187 0 l 1
 257 0 l 1
 257 -11 l 1
 317 -32 340 -69 340 -107 c 0
 340 -211 190 -206 103 -210 c 1
 103 -152 l 1
EndSplineSet
EndChar

StartChar: ogonek
Encoding: 731 731 23
Width: 278
Flags: HW
TeX: 0 194
HStem: -206 69<77.9534 158.883>
VStem: 4 73<-134.492 -71.6388>
LayerCount: 2
Fore
SplineSet
4 -125 m 0
 4 -52 110 -8 167 45 c 1
 168 45 l 1
 194 0 l 1
 154 -37 77 -66 77 -111 c 0
 77 -128 94 -137 111 -137 c 0
 140 -137 164 -117 184 -86 c 1
 233 -120 l 1
 223 -136 181 -206 104 -206 c 0
 54 -206 4 -172 4 -125 c 0
EndSplineSet
EndChar

StartChar: guilsinglleft
Encoding: 8249 8249 25
Width: 444
Flags: HW
TeX: 511 0
HStem: -0 21G<288 315.5>
VStem: 276 54<458.548 511>
LayerCount: 2
Fore
SplineSet
113 256 m 0
 113 260 114 262 128 277 c 0
 239 388 267 496 276 506 c 0
 281 511 288 511 296 511 c 2
 313 511 l 2
 328 511 330 505 330 501 c 0
 330 489 291 370 183 255 c 1
 277 157 330 32 330 10 c 0
 330 2 320 0 311 -0 c 2
 298 -0 l 2
 278 0 275 4 268 20 c 0
 202 184 113 237 113 256 c 0
EndSplineSet
EndChar

StartChar: guilsinglright
Encoding: 8250 8250 26
Width: 444
Flags: HW
TeX: 511 0
HStem: -0 21G<129 149.5>
VStem: 112 54<3.0008e-08 49.5352>
LayerCount: 2
Fore
SplineSet
112 11 m 0
 112 22 151 141 259 256 c 1
 166 352 112 479 112 502 c 0
 112 510 123 511 131 511 c 2
 145 511 l 2
 165 511 167 507 174 491 c 0
 240 327 329 275 329 256 c 0
 329 245 318 243 275 191 c 0
 194 92 177 16 166 5 c 0
 161 0 153 0 146 -0 c 0
 142 0 138 0 134 -0 c 0
 124 0 112 1 112 11 c 0
EndSplineSet
EndChar

StartChar: endash
Encoding: 8211 8211 32
Width: 500
Flags: HW
TeX: 458 0
ItalicCorrection: 27
HStem: 254 58<0 500>
LayerCount: 2
Fore
SplineSet
0 254 m 1
 0 312 l 1
 500 312 l 1
 500 254 l 1
 0 254 l 1
EndSplineSet
EndChar

StartChar: emdash
Encoding: 8212 8212 33
Width: 1000
Flags: HW
TeX: 458 0
ItalicCorrection: 27
HStem: 254 58<0 1000>
LayerCount: 2
Fore
SplineSet
0 254 m 1
 0 312 l 1
 1000 312 l 1
 1000 254 l 1
 0 254 l 1
EndSplineSet
Substitution2: "Cyrillic substitutions subtable" emdash.cyr
AlternateSubs2: "Cyrillic alternatives subtable" emdash.cyr
EndChar

StartChar: dotlessi
Encoding: 305 305 35
Width: 283
Flags: HW
TeX: 458 0
HStem: -0 59<30 113 180 255> 391 59<34 107> 444 20G<34 180>
VStem: 113 67<59 389.155>
AnchorPoint: "below" 146 0 basechar 0
AnchorPoint: "above" 146 466 basechar 0
LayerCount: 2
Fore
SplineSet
30 -0 m 1xb0
 30 59 l 1
 113 59 l 1
 113 356 l 2
 113 386 115 391 49 391 c 2
 34 391 l 1
 34 450 l 1xd0
 180 464 l 1
 180 59 l 1
 255 59 l 1
 255 -0 l 1
 30 -0 l 1xb0
EndSplineSet
Substitution2: "LC small to smallcaps subtable" I.sc
EndChar

StartChar: dotlessj
Encoding: 567 567 36
Width: 311
Flags: HW
TeX: 458 194
HStem: -200 59<55 124.232> 391 59<55 134.5> 444 20G<55 214>
VStem: -25 80<-139.52 -95.7037> 147 67<-121.295 388.891>
AnchorPoint: "below" 99 -195 basechar 0
AnchorPoint: "above" 180 466 basechar 0
LayerCount: 2
Fore
SplineSet
-25 -132 m 0
 -25 -106 -4 -91 16 -91 c 0
 37 -91 55 -105 55 -135 c 2
 55 -140 l 1
 63 -140 71 -141 79 -141 c 0
 135 -140 147 -89 147 -36 c 2
 147 366 l 1
 146 388 139 391 74 391 c 2
 55 391 l 1
 55 450 l 1xd8
 214 464 l 1
 214 -36 l 2xb8
 214 -168 113 -200 66 -200 c 0
 18 -200 -25 -173 -25 -132 c 0
EndSplineSet
Substitution2: "LC small to smallcaps subtable" J.sc
EndChar

StartChar: ff
Encoding: 64256 64256 37
Width: 583
Flags: HW
TeX: 694 0
ItalicCorrection: 66
HStem: -0 59<21 104 171 255 299 382 449 553> 400 58<26 104 171 382 449 563> 641 59<222.32 363 474.024 545.237>
VStem: 104 67<59 400 458 600.024> 382 67<59 400 458 586.06> 541 78<601.679 640.823>
LayerCount: 2
Fore
SplineSet
21 -0 m 1
 21 59 l 1
 104 59 l 1
 104 400 l 1
 26 400 l 1
 26 458 l 1
 104 458 l 1
 104 538 l 2
 104 665 251 699 361 700 c 1
 364 700 l 2
 389 700 413 696 433 658 c 1
 437 661 482 700 563 700 c 0
 610 700 619 657 619 638 c 0
 619 614 602 598 580 598 c 0
 568 598 543 602 541 641 c 1
 461 640 446 590 446 536 c 2
 446 458 l 1
 563 458 l 1
 563 400 l 1
 449 400 l 1
 449 59 l 1
 553 59 l 1
 553 -0 l 1
 299 -0 l 1
 299 59 l 1
 382 59 l 1
 382 400 l 1
 171 400 l 1
 171 59 l 1
 255 59 l 1
 255 -0 l 1
 21 -0 l 1
169 458 m 1
 382 458 l 1
 382 518 l 2
 382 543 382 567 387 587 c 1
 372 595 362 605 362 624 c 0
 362 628 362 633 363 638 c 1
 350 640 337 641 324 641 c 2
 319 641 l 2
 207 641 169 598 169 533 c 2
 169 458 l 1
EndSplineSet
Substitution2: "LC small to smallcaps subtable" FF.sc
Ligature2: "Latin ligatures subtable" f f
EndChar

StartChar: fi
Encoding: 64257 64257 38
Width: 558
Flags: HW
TeX: 694 0
HStem: -0 59<21 104 171 255 299 382 449 532> 400 65<299 382> 400 58<26 104 171 299> 567 133<364.524 418.921> 641 59<224.625 363.295>
VStem: 104 67<59 400 458 597.195> 357 85<572.39 633.626> 382 67<59 399.995>
LayerCount: 2
Fore
SplineSet
21 -0 m 1
 21 59 l 1
 104 59 l 1
 104 400 l 1
 26 400 l 1
 26 458 l 1
 104 458 l 1
 104 539 l 2
 104 698 340 700 361 700 c 2xad
 366 700 l 2
 435 700 442 630 442 612 c 0
 442 576 414 567 399 567 c 0x96
 375 567 357 585 357 609 c 0
 357 619 361 626 364 634 c 1
 349 639 331 641 313 641 c 0
 168 641 169 554 169 532 c 2
 169 458 l 1
 299 458 l 1xae
 299 465 l 1
 449 470 l 1
 449 59 l 1
 532 59 l 1
 532 -0 l 1
 299 -0 l 1
 299 59 l 1
 382 59 l 1
 382 380 l 2
 382 393 381 400 360 400 c 2xc5
 171 400 l 1
 171 59 l 1
 255 59 l 1
 255 -0 l 1
 21 -0 l 1
EndSplineSet
Substitution2: "LC small to smallcaps subtable" FI.sc
Ligature2: "Latin ligatures excepting Turkic subtable" f i
EndChar

StartChar: fl
Encoding: 64258 64258 39
Width: 558
Flags: HW
TeX: 694 0
HStem: -0 59<21 104 171 255 299 382 449 532> 400 58<26 104 171 382> 641 59<220.175 361> 675 20G<413 449>
VStem: 104 67<59 400 458 601.76> 361 88<601.329 640> 382 67<59 400 458 638.887>
LayerCount: 2
Fore
SplineSet
21 -0 m 1
 21 59 l 1
 104 59 l 1
 104 400 l 1
 26 400 l 1
 26 458 l 1
 104 458 l 1
 104 539 l 2
 104 668 258 700 365 700 c 0xea
 389 700 401 695 413 687 c 1
 449 695 l 1xda
 449 59 l 1
 532 59 l 1
 532 -0 l 1
 299 -0 l 1
 299 59 l 1
 382 59 l 1
 382 400 l 1
 171 400 l 1
 171 59 l 1
 255 59 l 1
 255 -0 l 1
 21 -0 l 1
169 458 m 1
 382 458 l 1
 382 601 l 1xea
 373 608 362 616 361 640 c 1
 348 641 336 641 324 641 c 0xec
 206 641 169 598 169 534 c 2
 169 458 l 1
EndSplineSet
Substitution2: "LC small to smallcaps subtable" FL.sc
Ligature2: "Latin ligatures subtable" f l
EndChar

StartChar: ffi
Encoding: 64259 64259 40
Width: 836
Flags: HW
TeX: 694 0
HStem: -0 59<21 104 171 255 299 382 449 532 576 660 727 810> 400 65<576 660> 400 58<26 104 171 382 449 576> 641 59<219.591 375.5 500.732 678>
VStem: 104 67<59 400 458 601.888> 382 67<59 400 458 587.802> 635 85<572.39 633.626> 660 67<59 399.98>
LayerCount: 2
Fore
SplineSet
21 -0 m 1
 21 59 l 1
 104 59 l 1
 104 400 l 1
 26 400 l 1
 26 458 l 1
 104 458 l 1
 104 542 l 2
 104 634 198 700 365 700 c 0
 386 700 416 697 435 645 c 1
 460 662 518 700 644 700 c 0
 712 700 720 632 720 612 c 0
 720 576 693 567 678 567 c 0
 654 567 635 585 635 609 c 0xbe
 635 619 638 626 641 634 c 1
 626 639 609 641 591 641 c 0
 446 641 446 554 446 532 c 2
 446 458 l 1
 576 458 l 1xbe
 576 465 l 1
 727 470 l 1
 727 59 l 1
 810 59 l 1
 810 -0 l 1
 576 -0 l 1
 576 59 l 1
 660 59 l 1
 660 380 l 2
 660 393 658 400 637 400 c 2xdd
 449 400 l 1
 449 59 l 1
 532 59 l 1
 532 -0 l 1
 299 -0 l 1
 299 59 l 1
 382 59 l 1
 382 400 l 1
 171 400 l 1
 171 59 l 1
 255 59 l 1
 255 -0 l 1
 21 -0 l 1
169 458 m 1
 382 458 l 1
 382 517 l 1
 384 568 l 1
 372 574 355 584 355 609 c 0xbc
 355 619 358 627 361 634 c 1
 346 639 330 641 312 641 c 0
 243 641 192 618 175 576 c 0
 169 562 169 548 169 533 c 2
 169 458 l 1
EndSplineSet
Substitution2: "LC small to smallcaps subtable" FFI.sc
Ligature2: "Latin ligatures excepting Turkic subtable" ff i
Ligature2: "Latin ligatures excepting Turkic subtable" f f i
EndChar

StartChar: ffl
Encoding: 64260 64260 41
Width: 836
Flags: HW
TeX: 694 0
HStem: -0 59<21 104 171 255 299 382 449 532 576 660 727 810> 400 58<26 104 171 382 449 660> 641 59<224.012 363 500.5 638.484> 675 20G<691 727>
VStem: 104 67<59 400 458 600.635> 382 67<59 400 458 585.105> 639 88<601.329 640.959> 660 67<59 400 458 638.887>
LayerCount: 2
Fore
SplineSet
21 -0 m 1
 21 59 l 1
 104 59 l 1
 104 400 l 1
 26 400 l 1
 26 458 l 1
 104 458 l 1
 104 535 l 2
 104 684 295 700 363 700 c 2
 364 700 l 2
 381 700 419 699 436 646 c 1
 458 661 518 700 640 700 c 0xed
 665 700 674 698 691 687 c 1
 727 695 l 1xdd
 727 59 l 1
 810 59 l 1
 810 -0 l 1
 576 -0 l 1
 576 59 l 1
 660 59 l 1
 660 400 l 1
 449 400 l 1
 449 59 l 1
 532 59 l 1
 532 -0 l 1
 299 -0 l 1
 299 59 l 1
 382 59 l 1
 382 400 l 1
 171 400 l 1
 171 59 l 1
 255 59 l 1
 255 -0 l 1
 21 -0 l 1
169 458 m 1
 382 458 l 1
 382 516 l 2
 382 542 382 567 389 586 c 1
 371 595 362 605 362 625 c 0
 362 629 362 633 363 638 c 1
 361 640 333 641 318 641 c 0
 234 641 169 616 169 534 c 2
 169 458 l 1
446 458 m 1
 660 458 l 1
 660 601 l 1xed
 651 608 640 616 639 640 c 1
 628 641 617 641 606 641 c 2
 594 641 l 2xee
 486 641 446 598 446 534 c 2
 446 458 l 1
EndSplineSet
Substitution2: "LC small to smallcaps subtable" FFL.sc
Ligature2: "Latin ligatures subtable" ff l
Ligature2: "Latin ligatures subtable" f f l
EndChar

StartChar: uni2423
Encoding: 9251 9251 42
Width: 500
Flags: HW
TeX: 458 97
HStem: -97 63<127.495 370.025>
LayerCount: 2
Fore
SplineSet
41 64 m 1
 100 64 l 1
 133 -31 125 -34 189 -34 c 2
 310 -34 l 2
 374 -34 365 -30 398 64 c 1
 457 64 l 1
 401 -97 l 1
 96 -97 l 1
 41 64 l 1
EndSplineSet
EndChar

StartChar: exclam
Encoding: 33 33 43
Width: 278
Flags: HW
TeX: 694 0
HStem: 1 105<95.4117 180.206>
VStem: 85 105<11.3867 95.2295> 85 106<514.261 694.341> 107 61<190.084 354.591>
LayerCount: 2
Fore
SplineSet
85 650 m 0
 85 689 116 705 138 705 c 0
 164 705 191 686 191 651 c 0xa0
 191 648 190 646 190 643 c 2xc0
 168 220 l 2
 167 192 163 190 149 190 c 2x90
 133 190 l 2
 106 190 109 197 107 219 c 2x90
 86 632 l 2
 86 638 85 644 85 650 c 0
EndSplineSet
Refer: 21 729 S 1 0 0 1 -14 -589 2
EndChar

StartChar: quotedbl
Encoding: 34 34 44
Width: 500
Flags: HW
TeX: 694 0
HStem: 386 315<136 195 304 362>
VStem: 125 81<413.672 696.623> 136 59<386 607.857> 293 80<413.672 696.704> 304 58<386 606.966>
LayerCount: 2
Fore
SplineSet
125 658 m 0xc0
 125 693 151 701 166 701 c 0
 178 701 206 695 206 657 c 0xc0
 206 634 197 463 195 386 c 1
 136 386 l 1xa0
 135 395 125 649 125 658 c 0xc0
293 657 m 0x90
 293 695 321 701 333 701 c 0
 347 701 373 694 373 658 c 0x90
 373 649 363 395 362 386 c 1
 304 386 l 1x88
 303 422 293 648 293 657 c 0x90
EndSplineSet
EndChar

StartChar: numbersign
Encoding: 35 35 45
Width: 833
Flags: HW
TeX: 694 194
HStem: 117 59<56.9103 240 316 460 537 774.977> 324 59<57.0234 295 371 515 592 775.019> 674 20G<403 424 624 645>
VStem: 388 60<-191.947 -146.699 633.32 691.86> 604 61<631.63 691.542>
DStem2: 240 117 227 -158 0.257218 0.966353<-223.781 0 76.5634 214.182 290.746 511.421> 460 117 521 117 0.257218 0.966353<-223.6 0 76.8206 214.182 291.003 516.287>
LayerCount: 2
Fore
SplineSet
56 147 m 0
 56 159 62 176 94 176 c 2
 256 176 l 1
 295 324 l 1
 95 324 l 2
 62 324 56 341 56 353 c 0
 56 379 79 383 97 383 c 2
 310 383 l 1
 383 658 l 2
 384 663 390 694 416 694 c 0
 432 694 444 680 444 665 c 0
 444 648 397 489 371 383 c 1
 531 383 l 1
 604 658 l 2
 605 663 611 694 637 694 c 0
 653 694 665 680 665 665 c 0
 665 648 618 489 592 383 c 1
 734 383 l 2
 749 383 776 381 776 353 c 0
 776 343 772 324 739 324 c 2
 576 324 l 1
 537 176 l 1
 737 176 l 2
 771 176 776 156 776 147 c 0
 776 121 753 117 735 117 c 2
 521 117 l 1
 448 -158 l 2
 447 -163 442 -194 416 -194 c 0
 400 -194 388 -180 388 -165 c 0
 388 -148 435 17 460 117 c 1
 300 117 l 1
 227 -158 l 2
 226 -163 221 -194 195 -194 c 0
 179 -194 167 -180 167 -165 c 0
 167 -148 215 17 240 117 c 1
 103 117 l 2
 82 117 56 119 56 147 c 0
316 176 m 1
 477 176 l 1
 515 324 l 1
 355 324 l 1
 316 176 l 1
EndSplineSet
EndChar

StartChar: dollar
Encoding: 36 36 46
Width: 500
Flags: HW
TeX: 750 55
HStem: -4 59<166.741 220 279 324.051> 639 59<169.216 220 279 333.929>
VStem: 55 80<158.237 227.644> 55 65<458.266 593.448> 220 59<-55 -1.62131 56 315 407 639 695.889 750> 363 80<480.885 549.854> 379 65<106.585 259.331>
LayerCount: 2
Fore
SplineSet
55 187 m 0
 55 226 83 232 96 232 c 0
 117 232 135 217 135 193 c 0xea
 135 172 123 163 117 158 c 1
 131 96 164 68 220 55 c 1
 220 330 l 1
 202 334 183 338 166 346 c 0
 112 370 55 429 55 516 c 0
 55 609 113 686 220 698 c 1
 220 750 l 1
 279 750 l 1
 279 699 l 1
 427 679 443 565 443 521 c 0
 443 483 416 476 403 476 c 0
 384 476 363 492 363 516 c 0xdc
 363 537 378 547 381 550 c 1
 365 615 314 633 279 639 c 1
 279 393 l 1
 297 389 314 384 330 376 c 0
 389 349 444 284 444 193 c 0
 444 150 431 18 279 -4 c 1
 279 -55 l 1
 220 -55 l 1
 220 -4 l 1
 106 9 55 98 55 187 c 0
120 525 m 0xd8
 120 480 145 428 220 407 c 1
 220 639 l 1
 125 619 120 547 120 525 c 0xd8
279 56 m 1
 352 72 379 128 379 184 c 0xca
 379 232 356 292 279 315 c 1
 279 56 l 1
EndSplineSet
EndChar

StartChar: percent
Encoding: 37 37 47
Width: 833
Flags: HW
TeX: 750 55
HStem: -55 59<593.038 685.422> 288 59<593.155 684.883> 347 59<149.641 241.422> 593 55<362.314 563.203> 691 59<149.892 241.357>
VStem: 55 65<439.187 657.692> 277 56<446.345 623.684> 499 65<34.4183 257.234> 721 56<43.6074 246.085>
DStem2: 148 -15 182 -35 0.559364 0.828922<-20.7401 747.187>
LayerCount: 2
Fore
SplineSet
55 547 m 0
 55 708 140 750 196 750 c 0
 251 750 265 721 316 692 c 0
 363 665 417 648 472 648 c 0
 531 648 597 668 645 726 c 0
 657 740 663 749 674 749 c 0
 690 749 693 733 694 726 c 1
 701 721 705 718 705 712 c 0
 705 700 676 671 656 654 c 0
 642 642 639 643 624 620 c 2
 182 -35 l 2
 176 -43 169 -54 158 -54 c 0
 147 -54 140 -45 140 -35 c 0
 140 -27 146 -19 148 -15 c 2
 565 605 l 1
 539 598 512 593 477 593 c 0
 416 593 368 608 325 625 c 1
 330 599 333 574 333 548 c 0
 333 392 251 347 196 347 c 0
 140 347 55 392 55 547 c 0
120 549 m 0
 120 525 119 464 146 431 c 0
 158 416 177 406 196 406 c 0
 228 406 277 437 277 549 c 0
 277 650 234 691 195 691 c 0
 176 691 158 681 145 664 c 0
 119 630 120 572 120 549 c 0
EndSplineSet
Refer: 689 8320 S 1 0 0 1 444 0 2
EndChar

StartChar: ampersand
Encoding: 38 38 48
Width: 781
Flags: HW
TeX: 694 0
HStem: -11 59<166.934 322.937 504.101 637.439> 400 58<462 562 612.187 726> 646 59<251.63 339.298>
VStem: 41 76<96.3479 223.262> 163 61<419.907 616.503> 360 56<501.492 625.937> 665 56<76.9097 128>
DStem2: 197 359 222 302 0.741123 0.67137<-177.683 -19.74 70.8339 230.29>
LayerCount: 2
Fore
SplineSet
41 151 m 0
 41 171 47 214 80 252 c 0
 90 264 102 275 197 359 c 1
 172 424 163 489 163 532 c 0
 163 647 236 705 300 705 c 0
 376 705 416 627 416 558 c 0
 416 516 398 455 274 349 c 1
 315 262 404 156 412 147 c 1
 455 206 458 206 562 400 c 1
 462 400 l 1
 462 458 l 1
 726 458 l 1
 726 400 l 1
 622 400 l 1
 591 339 517 195 448 110 c 1
 477 85 522 48 580 48 c 0
 623 48 661 75 665 128 c 1
 721 128 l 1
 718 43 655 -11 580 -11 c 0
 556 -11 486 -8 405 64 c 1
 404 64 l 1
 357 20 295 -11 223 -11 c 0
 117 -11 41 64 41 151 c 0
117 160 m 0
 117 101 168 48 240 48 c 0
 291 48 332 70 367 100 c 1
 367 101 l 1
 328 144 269 215 222 302 c 1
 156 244 117 219 117 160 c 0
224 549 m 0
 224 497 236 450 250 406 c 1
 259 414 360 499 360 559 c 0
 360 588 345 646 299 646 c 0
 269 646 224 619 224 549 c 0
EndSplineSet
EndChar

StartChar: quoteright
Encoding: 8217 8217 49
Width: 278
Flags: HW
TeX: 694 0
HStem: 589 105<94.8538 145.326>
VStem: 146 59<489.272 589>
LayerCount: 2
Fore
SplineSet
85 642 m 0
 85 672 109 694 138 694 c 0
 192 694 205 629 205 583 c 0
 205 476 139 397 126 397 c 0
 114 397 90 423 90 432 c 0
 90 448 146 484 146 589 c 1
 140 589 l 2
 96 589 85 624 85 642 c 0
EndSplineSet
EndChar

StartChar: parenleft
Encoding: 40 40 50
Width: 389
Flags: HW
TeX: 750 250
VStem: 81 67<57.8824 447.518>
LayerCount: 2
Fore
SplineSet
81 250 m 0
 81 469 152 634 262 735 c 0
 277 749 282 750 295 750 c 2
 310 750 l 2
 321 750 330 748 330 741 c 0
 330 722 211 659 165 426 c 0
 154 369 148 310 148 252 c 0
 148 -117 330 -221 330 -241 c 0
 330 -252 312 -250 305 -250 c 2
 294 -250 l 2
 281 -250 275 -249 240 -213 c 0
 195 -165 81 -28 81 250 c 0
EndSplineSet
EndChar

StartChar: parenright
Encoding: 41 41 51
Width: 389
Flags: HW
TeX: 750 250
VStem: 239 67<54.9383 441.261>
LayerCount: 2
Fore
SplineSet
58 -241 m 0
 58 -222 239 -113 239 249 c 0
 239 408 204 588 79 715 c 0
 64 730 58 734 58 743 c 0
 58 750 72 750 86 750 c 2
 92 750 l 2
 106 750 113 749 144 717 c 0
 246 612 306 450 306 250 c 0
 306 30 236 -135 125 -236 c 0
 110 -250 105 -250 92 -250 c 0
 87 -250 82 -250 77 -250 c 0
 66 -250 58 -248 58 -241 c 0
EndSplineSet
EndChar

StartChar: asterisk
Encoding: 42 42 52
Width: 500
Flags: HW
TeX: 750 0
VStem: 218 63<294.686 474 568 747.393>
LayerCount: 2
Fore
SplineSet
65 424 m 0
 65 444 79 449 121 474 c 2
 201 520 l 1
 201 521 l 1
 190 527 180 534 94 583 c 0
 84 589 65 598 65 618 c 0
 65 635 80 650 95 650 c 2
 97 650 l 2
 109 650 109 648 224 568 c 1
 219 684 218 699 218 713 c 0
 218 743 239 749 249 749 c 0
 260 749 281 743 281 713 c 0
 281 699 280 684 275 568 c 1
 392 649 389 650 403 650 c 0
 418 650 434 635 434 618 c 0
 434 595 409 585 378 567 c 0
 351 552 324 535 297 521 c 1
 297 520 l 1
 404 459 l 2
 414 453 434 444 434 424 c 0
 434 407 418 392 403 392 c 2
 402 392 l 2
 390 392 390 394 275 474 c 1
 280 358 281 343 281 329 c 0
 281 298 258 293 249 293 c 0
 241 293 218 297 218 329 c 0
 218 343 219 358 224 474 c 1
 107 393 109 392 95 392 c 0
 80 392 65 407 65 424 c 0
EndSplineSet
EndChar

StartChar: plus
Encoding: 43 43 53
Width: 778
Flags: HW
TeX: 583 83
HStem: 221 59<57.1387 359 418 719.043>
VStem: 359 59<-81.0096 221 280 580.922>
LayerCount: 2
Fore
SplineSet
56 250 m 0
 56 277 84 280 94 280 c 2
 359 280 l 1
 359 540 l 2
 359 550 357 582 388 582 c 0
 421 582 418 543 418 541 c 2
 418 280 l 1
 679 280 l 2
 692 280 720 279 720 250 c 0
 720 237 712 227 700 223 c 0
 694 221 687 221 680 221 c 2
 418 221 l 1
 418 -40 l 2
 418 -45 420 -82 388 -82 c 0
 355 -82 359 -42 359 -40 c 2
 359 221 l 1
 93 221 l 2
 82 221 56 223 56 250 c 0
EndSplineSet
EndChar

StartChar: comma
Encoding: 44 44 54
Width: 278
Flags: HW
TeX: 105 194
HStem: 0 105<94.875 142.671>
VStem: 143 59<-99.1878 0>
LayerCount: 2
Fore
SplineSet
85 53 m 0
 85 81 106 105 138 105 c 0
 189 105 202 43 202 -6 c 0
 202 -102 143 -191 125 -191 c 0
 115 -191 90 -166 90 -156 c 0
 90 -140 143 -103 143 0 c 1
 92 2 85 37 85 53 c 0
EndSplineSet
EndChar

StartChar: hyphen
Encoding: 45 45 55
Width: 333
Flags: HW
TeX: 458 0
HStem: 195 68<10 276>
VStem: 10 266<195 263>
LayerCount: 2
Fore
SplineSet
10 195 m 1
 10 263 l 1
 276 263 l 1
 276 195 l 1
 10 195 l 1
EndSplineSet
EndChar

StartChar: period
Encoding: 46 46 56
Width: 278
Flags: HW
TeX: 105 0
HStem: 0 105<95.7705 179.921>
VStem: 85 106<11.1969 93.8702>
LayerCount: 2
Fore
SplineSet
85 53 m 0
 85 80 107 105 138 105 c 0
 168 105 191 79 191 53 c 0
 191 26 168 0 138 0 c 0
 107 0 85 27 85 53 c 0
EndSplineSet
EndChar

StartChar: slash
Encoding: 47 47 57
Width: 500
Flags: HW
TeX: 750 250
DStem2: 66 -184 119 -210 0.330304 0.943875<-36.9746 977.386>
LayerCount: 2
Fore
SplineSet
56 -220 m 0
 56 -213 57 -209 66 -184 c 2
 382 719 l 2
 389 738 398 749 414 749 c 0
 429 749 443 737 443 720 c 0
 443 711 438 699 435 690 c 2
 119 -210 l 2
 112 -231 105 -249 84 -249 c 0
 69 -249 56 -236 56 -220 c 0
EndSplineSet
EndChar

StartChar: zero
Encoding: 48 48 58
Width: 500
Flags: HW
TeX: 649 0
HStem: -11 59<181.468 316.054> 597 58<179.627 317.54>
VStem: 42 75<130.027 511.863> 381 75<130.671 511.105>
LayerCount: 2
Fore
SplineSet
42 319 m 0
 42 387 42 522 109 597 c 0
 146 637 200 655 249 655 c 0
 304 655 358 635 394 591 c 0
 457 514 456 382 456 322 c 0
 456 254 456 116 387 44 c 0
 350 5 297 -11 249 -11 c 0
 194 -11 140 9 104 53 c 0
 42 129 42 253 42 319 c 0
117 328 m 0
 117 260 117 147 157 94 c 0
 178 65 213 48 249 48 c 0
 287 48 322 66 343 97 c 0
 381 152 381 263 381 330 c 0
 381 405 381 499 344 550 c 0
 322 580 286 597 249 597 c 0
 210 597 173 579 152 547 c 0
 117 495 117 402 117 328 c 0
EndSplineSet
Substitution2: "LGC old numerals subtable" zerooldstyle
EndChar

StartChar: one
Encoding: 49 49 59
Width: 500
Flags: HW
TeX: 649 0
HStem: -0 59<101 226 296 421> 532 59<96 199.838> 635 20G<255.5 283.5>
VStem: 226 70<59 568>
LayerCount: 2
Fore
SplineSet
96 532 m 1
 96 591 l 1
 232 594 239 655 272 655 c 0
 295 655 296 643 296 624 c 2
 296 59 l 1
 421 59 l 1
 421 -0 l 1
 101 -0 l 1
 101 59 l 1
 226 59 l 1
 226 568 l 1
 210 558 175 534 96 532 c 1
EndSplineSet
Substitution2: "LGC old numerals subtable" oneoldstyle
EndChar

StartChar: two
Encoding: 50 50 60
Width: 500
Flags: HW
TeX: 649 0
HStem: -0 72<135 372> 597 58<150.229 296.026>
VStem: 50 85<436.041 508.437> 373 77<368.98 526.999> 391 59<127.5 170>
LayerCount: 2
Fore
SplineSet
50 -0 m 1xe8
 50 12 50 25 50 37 c 0
 50 58 48 54 141 143 c 0
 282 279 373 347 373 453 c 0
 373 554 279 597 209 597 c 0
 144 597 123 543 113 509 c 1
 129 497 135 484 135 471 c 0
 135 449 115 430 92 430 c 0
 80 430 50 436 50 479 c 0
 50 550 112 655 238 655 c 0
 358 655 450 571 450 455 c 0xf0
 450 345 360 283 264 193 c 2
 135 72 l 1
 271 72 l 1
 372 74 l 1
 383 120 l 1
 391 170 l 1
 450 170 l 1
 422 -0 l 1
 50 -0 l 1xe8
EndSplineSet
Substitution2: "LGC old numerals subtable" twooldstyle
EndChar

StartChar: three
Encoding: 51 51 61
Width: 500
Flags: HW
TeX: 649 0
HStem: -11 56<158.638 327.171> 319 55<166.018 281.243> 602 53<162.321 325.292>
VStem: 41 86<114.237 187.27> 69 83<488.921 557.854> 355 74<443.865 571.959> 379 78<98.1253 265.684>
LayerCount: 2
Fore
SplineSet
41 147 m 0
 41 184 69 193 84 193 c 0
 106 193 127 176 127 150 c 0
 127 128 114 119 108 114 c 1
 134 69 188 45 249 45 c 0
 339 45 379 104 379 182 c 0xf2
 379 260 339 308 272 317 c 0
 260 319 247 319 235 319 c 2
 191 319 l 2
 172 319 166 319 166 341 c 0
 166 369 166 371 170 374 c 0
 180 383 221 378 253 385 c 0
 313 398 355 455 355 513 c 0
 355 570 317 602 249 602 c 0
 171 602 143 565 137 558 c 1
 139 555 152 545 152 525 c 0
 152 500 133 484 110 484 c 0
 87 484 69 500 69 528 c 0
 69 599 145 655 251 655 c 0
 360 655 429 598 429 513 c 0xec
 429 414 353 365 325 348 c 1
 406 327 457 265 457 180 c 0
 457 84 391 -11 251 -11 c 0
 132 -11 41 60 41 147 c 0
EndSplineSet
Substitution2: "LGC old numerals subtable" threeoldstyle
EndChar

StartChar: four
Encoding: 52 52 62
Width: 500
Flags: HW
TeX: 649 0
HStem: 0 59<201 298 367 464> 174 58<96 298 367 471> 637 20G<307.5 348>
VStem: 303 64<59 174 232 582>
LayerCount: 2
Fore
SplineSet
27 174 m 1
 27 217 l 2
 27 235 32 241 38 250 c 2
 279 627 l 2
 296 654 299 656 316 657 c 0
 324 657 332 657 340 657 c 0
 356 657 367 655 367 631 c 2
 367 232 l 1
 471 232 l 1
 471 174 l 1
 367 174 l 1
 367 59 l 1
 464 59 l 1
 464 0 l 1
 201 0 l 1
 201 59 l 1
 298 59 l 1
 298 174 l 1
 27 174 l 1
96 232 m 1
 303 232 l 1
 303 582 l 1
 281 517 130 291 96 232 c 1
EndSplineSet
Substitution2: "LGC old numerals subtable" fouroldstyle
EndChar

StartChar: five
Encoding: 53 53 63
Width: 500
Flags: HW
TeX: 649 0
HStem: -11 56<159.792 315.559> 350 59<181.439 326.245> 555 68<147.249 354.279> 575 78<328.71 401.673>
VStem: 50 82<115.422 185.209> 87 59<371 564> 374 75<105.293 300.538>
LayerCount: 2
Fore
SplineSet
50 146 m 0
 50 181 77 190 91 190 c 0
 116 190 132 170 132 149 c 0xea
 132 133 124 124 115 115 c 1
 134 74 179 45 236 45 c 0
 301 45 374 76 374 200 c 0
 374 330 308 350 263 350 c 2
 262 350 l 2
 195 350 166 319 150 300 c 0
 140 287 137 283 118 283 c 0
 88 283 87 290 87 314 c 2
 87 628 l 2
 87 637 86 653 98 653 c 0xd6
 113 653 158 623 249 623 c 0xe6
 345 623 382 653 400 653 c 0xd6
 411 653 411 643 411 632 c 2
 411 617 l 2
 411 603 413 595 349 575 c 0xd6
 309 562 266 555 223 555 c 0
 197 555 171 558 146 564 c 1
 146 371 l 1xe6
 180 394 213 409 263 409 c 0
 375 409 449 325 449 200 c 0
 449 64 355 -11 236 -11 c 0
 115 -11 50 76 50 146 c 0
EndSplineSet
Substitution2: "LGC old numerals subtable" fiveoldstyle
EndChar

StartChar: six
Encoding: 54 54 64
Width: 500
Flags: HW
TeX: 649 0
HStem: -11 56<185.898 326.187> 376 59<194.148 330.895> 602 53<224.313 363.863>
VStem: 45 81<138.179 465.148> 352 81<515.633 580.533> 378 77<101.419 323.7>
LayerCount: 2
Fore
SplineSet
45 317 m 0
 45 584 200 655 304 655 c 0
 404 655 433 594 433 554 c 0
 433 519 406 511 392 511 c 0
 372 511 352 526 352 550 c 0xf8
 352 563 357 571 365 581 c 1
 356 589 340 602 305 602 c 0
 232 602 126 552 122 357 c 1
 164 408 226 435 288 435 c 0
 360 435 400 395 427 346 c 0
 453 299 455 251 455 213 c 0xf4
 455 147 442 107 415 70 c 0
 393 41 350 -11 253 -11 c 0
 179 -11 105 26 68 135 c 0
 45 203 45 281 45 317 c 0
126 234 m 0
 126 152 151 45 253 45 c 0
 295 45 323 57 346 86 c 0
 375 122 378 161 378 210 c 0xf4
 378 217 378 224 378 231 c 0
 378 299 354 376 258 376 c 0
 175 376 126 305 126 234 c 0
EndSplineSet
Substitution2: "LGC old numerals subtable" sixoldstyle
EndChar

StartChar: seven
Encoding: 55 55 65
Width: 500
Flags: HW
TeX: 649 0
HStem: -10 21G<211.5 230> 572 73<153 402> 657 20G<84.7327 147>
VStem: 55 59<475 517.849> 182 78<-5.62172 41.7195>
LayerCount: 2
Fore
SplineSet
55 475 m 1
 88 677 l 1
 147 677 l 1
 147 663 l 1
 153 646 l 1
 209 645 l 1
 485 645 l 1
 485 617 l 2
 485 595 484 595 468 573 c 0
 371 440 359 423 348 406 c 0
 248 253 268 45 260 18 c 0
 255 1 239 -10 221 -10 c 0
 202 -10 184 5 182 25 c 0
 181 31 181 36 181 42 c 0
 186 306 291 419 402 572 c 1
 189 572 l 1
 133 570 l 1
 123 540 120 508 114 475 c 1
 55 475 l 1
EndSplineSet
Substitution2: "LGC old numerals subtable" sevenoldstyle
EndChar

StartChar: eight
Encoding: 56 56 66
Width: 500
Flags: HW
TeX: 649 0
HStem: -11 56<162.409 339.881> 310 77<224.825 272.35> 602 53<166.041 328.193>
VStem: 41 67<95.7252 235.466> 69 61<460.832 567.474> 368 61<443.877 564.254> 389 68<91.0382 217.397>
DStem2: 244 396 177 350 0.831627 -0.555334<-147.482 -30.1737 87.6143 233.145>
LayerCount: 2
Fore
SplineSet
41 163 m 0xf2
 41 275 132 328 177 350 c 1
 148 369 69 408 69 500 c 0
 69 593 140 655 249 655 c 0
 360 655 429 596 429 506 c 0xec
 429 412 354 370 317 349 c 1
 369 316 457 272 457 168 c 0
 457 61 376 -11 249 -11 c 0
 120 -11 41 59 41 163 c 0xf2
108 164 m 0
 108 83 173 45 249 45 c 0
 337 45 389 88 389 157 c 0xf2
 389 215 343 242 325 254 c 0
 258 297 243 310 231 310 c 0
 223 310 108 269 108 164 c 0
130 513 m 0
 130 462 171 443 244 396 c 0
 253 390 258 387 264 387 c 0xec
 270 387 368 421 368 505 c 0
 368 571 313 602 249 602 c 0
 190 602 130 578 130 513 c 0
EndSplineSet
Substitution2: "LGC old numerals subtable" eightoldstyle
EndChar

StartChar: nine
Encoding: 57 57 67
Width: 500
Flags: HW
TeX: 649 0
HStem: -11 56<137.619 282.965> 210 59<170.226 303.844> 602 53<175.187 316.223>
VStem: 45 76<321.697 543.884> 67 80<65.4666 129.115> 374 81<171.857 506.35>
LayerCount: 2
Fore
SplineSet
45 431 m 0xf4
 45 479 50 525 81 569 c 0
 133 644 200 655 252 655 c 0
 343 655 388 597 403 573 c 0
 428 533 455 470 455 329 c 0
 455 60 308 -11 207 -11 c 0
 97 -11 67 49 67 90 c 0
 67 125 94 134 108 134 c 0
 129 134 147 118 147 94 c 0xec
 147 82 143 75 136 65 c 1
 147 57 164 45 206 45 c 0
 335 45 376 176 377 288 c 1
 313 211 228 210 211 210 c 0
 142 210 103 246 74 296 c 0
 53 332 45 371 45 431 c 0xf4
121 414 m 2
 121 347 145 269 241 269 c 0
 326 269 374 342 374 413 c 0
 374 499 348 602 252 602 c 0
 208 602 177 589 154 560 c 0
 123 522 121 483 121 434 c 2xf4
 121 414 l 2
EndSplineSet
Substitution2: "LGC old numerals subtable" nineoldstyle
EndChar

StartChar: less
Encoding: 60 60 70
Width: 778
Flags: HW
TeX: 556 56
DStem2: 117 285 176 250 0.887359 0.461079<36.2164 615.044> 176 250 117 215 0.887359 -0.461079<0 578.828>
LayerCount: 2
Fore
SplineSet
84 250 m 0
 84 271 109 281 117 285 c 2
 627 550 l 2
 653 563 657 565 665 565 c 0
 682 565 693 551 693 536 c 0
 693 515 670 506 658 500 c 2
 250 288 l 2
 226 275 201 262 176 250 c 1
 201 238 225 225 250 212 c 2
 658 -0 l 2
 667 -4 693 -14 693 -36 c 0
 693 -51 682 -65 665 -65 c 0
 657 -65 653 -63 627 -50 c 2
 117 215 l 2
 109 219 84 229 84 250 c 0
EndSplineSet
EndChar

StartChar: equal
Encoding: 61 61 71
Width: 778
Flags: HW
TeX: 373 -126
HStem: 117 59<57.0432 719> 324 59<57.1875 718.818>
LayerCount: 2
Fore
SplineSet
56 147 m 0
 56 154 59 176 93 176 c 2
 683 176 l 2
 717 176 720 156 720 146 c 0
 719 122 699 117 681 117 c 2
 96 117 l 2
 87 117 56 117 56 147 c 0
56 353 m 0
 56 362 60 383 96 383 c 2
 681 383 l 2
 714 383 720 365 720 353 c 0
 719 329 700 324 682 324 c 2
 94 324 l 2
 60 324 56 344 56 353 c 0
EndSplineSet
EndChar

StartChar: greater
Encoding: 62 62 72
Width: 778
Flags: HW
TeX: 556 56
DStem2: 150 550 119 500 0.887359 -0.461079<-40.3049 538.523> 119 -0 133 -59 0.887244 0.4613<-35.9024 542.977>
LayerCount: 2
Fore
SplineSet
84 -36 m 0
 84 -14 110 -4 119 -0 c 2
 527 212 l 2
 552 225 576 238 601 250 c 1
 576 262 552 275 527 288 c 2
 119 500 l 2
 110 504 84 514 84 536 c 0
 84 551 95 565 112 565 c 0
 120 565 124 563 150 550 c 2
 660 285 l 2
 668 281 693 271 693 250 c 0
 693 229 668 219 660 215 c 2
 133 -59 l 2
 127 -62 119 -65 112 -65 c 0
 95 -65 84 -51 84 -36 c 0
EndSplineSet
EndChar

StartChar: question
Encoding: 63 63 73
Width: 472
Flags: HW
TeX: 694 0
HStem: 1 105<179.412 264.206> 642 58<152.455 313.933>
VStem: 55 80<517.443 584.624> 169 105<11.3867 95.2295> 192 59<190.021 333.529> 340 76<493.598 615.839>
LayerCount: 2
Fore
SplineSet
55 556 m 0
 55 614 109 700 225 700 c 0
 389 700 416 611 416 552 c 0
 416 526 409 493 388 465 c 0
 364 433 253 374 251 245 c 1
 251 210 l 2
 251 193 248 190 227 190 c 2
 214 190 l 2
 193 190 192 197 192 212 c 2xec
 192 223 l 2
 192 247 193 272 197 296 c 0
 213 390 267 448 296 473 c 0
 315 490 340 506 340 554 c 0
 340 621 298 642 228 642 c 0
 187 642 145 629 121 585 c 1
 129 577 135 567 135 553 c 0
 135 529 117 513 96 513 c 0
 82 513 55 521 55 556 c 0
EndSplineSet
Refer: 21 729 S 1 0 0 1 70 -589 2
EndChar

StartChar: at
Encoding: 64 64 74
Width: 778
Flags: HW
TeX: 694 0
HStem: -5 58<276.928 556.422> 124 59<316.816 462.241 590.755 646.27> 512 58<316.473 461.831> 641 59<275.445 501.093>
VStem: 55 56<222.652 468.906> 188 67<251.123 442.582> 522 66<241.418 451.196> 666 55<209.014 464.576>
LayerCount: 2
Fore
SplineSet
55 348 m 0
 55 561 189 700 388 700 c 0
 585 700 721 565 721 345 c 0
 721 234 689 124 598 124 c 0
 559 124 537 153 527 182 c 1
 491 146 448 124 388 124 c 0
 273 124 188 207 188 348 c 0
 188 487 272 570 387 570 c 0
 454 570 511 541 545 489 c 0
 567 456 588 487 588 453 c 2
 588 230 l 2
 588 209 591 184 614 184 c 0
 662 184 666 275 666 320 c 0
 666 328 665 335 665 339 c 0
 665 580 501 641 388 641 c 0
 224 641 111 529 111 347 c 0
 111 176 213 53 393 53 c 0
 558 53 628 97 675 97 c 2
 696 97 l 2
 711 97 719 94 719 89 c 0
 719 85 713 79 702 73 c 0
 628 33 517 -5 393 -5 c 0
 175 -5 55 144 55 348 c 0
255 348 m 0
 255 226 326 183 389 183 c 0
 460 183 522 236 522 316 c 2
 522 377 l 2
 522 461 457 512 389 512 c 0
 308 512 255 448 255 348 c 0
EndSplineSet
EndChar

StartChar: A
Encoding: 65 65 75
Width: 739
Flags: HW
TeX: 683 0
HStem: 0 59<34 119 181 254 469 543 619 704> 214 59<255 469> 675 20G<352.5 380.5>
DStem2: 119 59 181 59 0.325212 0.945641<20.1632 183.974 246.596 574.542> 409 670 362 583 0.325037 -0.945701<66.9993 394.946 457.243 621.378>
AnchorPoint: "ogonek" 578 0 basechar 0
AnchorPoint: "below" 369 0 basechar 0
AnchorPoint: "above" 369 694 basechar 0
LayerCount: 2
Fore
SplineSet
34 0 m 1
 34 59 l 1
 119 59 l 1
 325 658 l 2
 335 688 339 695 366 695 c 2
 372 695 l 2
 389 695 400 694 409 670 c 2
 619 59 l 1
 704 59 l 1
 704 0 l 1
 469 0 l 1
 469 59 l 1
 543 59 l 1
 489 214 l 1
 234 214 l 1
 181 59 l 1
 254 59 l 1
 254 0 l 1
 34 0 l 1
255 273 m 1
 469 273 l 1
 362 583 l 1
 255 273 l 1
EndSplineSet
Substitution2: "LC caps to smallcaps subtable" A.sc
EndChar

StartChar: B
Encoding: 66 66 76
Width: 703
Flags: HW
TeX: 683 0
HStem: -0 59<50 139 209 497.564> 326 59<209 475.731> 625 58<50 139 209 485.898>
VStem: 139 70<59 326 385 625> 545 73<445.815 575.119> 570 76<118.994 262.099>
AnchorPoint: "below" 326 0 basechar 0
AnchorPoint: "above" 326 694 basechar 0
LayerCount: 2
Fore
SplineSet
50 -0 m 1
 50 59 l 1
 139 59 l 1
 139 625 l 1
 50 625 l 1
 50 683 l 1
 386 683 l 2
 580 683 618 573 618 511 c 0xf8
 618 419 547 378 477 357 c 1
 572 344 646 283 646 185 c 0xf4
 646 83 570 13 457 2 c 0
 440 0 423 0 406 -0 c 2
 50 -0 l 1
209 59 m 1
 386 59 l 2
 539 59 570 136 570 188 c 0xf4
 570 231 550 326 399 326 c 2
 209 326 l 1
 209 59 l 1
209 385 m 1
 358 385 l 2
 360 385 363 384 367 384 c 0
 503 384 545 457 545 510 c 0xf8
 545 555 519 625 385 625 c 2
 209 625 l 1
 209 385 l 1
EndSplineSet
Substitution2: "LC caps to smallcaps subtable" B.sc
EndChar

StartChar: C
Encoding: 67 67 77
Width: 722
Flags: HW
TeX: 683 0
HStem: -11 59<300.34 503.822> 635 59<297.22 497.669>
VStem: 55 78<211.533 469.271> 606 60<147.625 241.967 429.258 514.766>
AnchorPoint: "below" 390 0 basechar 0
AnchorPoint: "above" 388 694 basechar 0
LayerCount: 2
Fore
SplineSet
55 341 m 0
 55 572 208 694 389 694 c 0
 481 694 542 656 593 603 c 1
 638 690 636 693 651 693 c 2
 653 693 l 2
 665 693 666 681 666 672 c 2
 666 451 l 2
 666 431 663 429 631 429 c 0
 615 429 609 430 606 445 c 0
 590 540 529 635 414 635 c 0
 294 635 133 574 133 341 c 0
 133 106 298 48 417 48 c 0
 527 48 597 130 606 216 c 0
 608 240 610 242 631 242 c 2
 644 242 l 2
 661 242 666 237 666 224 c 0
 666 130 573 -11 390 -11 c 0
 193 -11 55 127 55 341 c 0
EndSplineSet
Substitution2: "LC caps to smallcaps subtable" C.sc
EndChar

StartChar: D
Encoding: 68 68 78
Width: 758
Flags: HW
TeX: 683 0
HStem: -0 59<49 138 210 486.571> 625 58<49 138 210 480.24>
VStem: 138 72<59 625> 626 76<204.088 474.542>
AnchorPoint: "below" 354 0 basechar 0
AnchorPoint: "above" 354 694 basechar 0
LayerCount: 2
Fore
SplineSet
49 -0 m 1
 49 59 l 1
 138 59 l 1
 138 625 l 1
 49 625 l 1
 49 683 l 1
 377 683 l 2
 637 683 702 488 702 335 c 0
 702 280 693 112 545 35 c 0
 486 4 435 0 376 -0 c 2
 49 -0 l 1
210 59 m 1
 364 59 l 2
 573 59 626 196 626 336 c 0
 626 480 574 625 364 625 c 2
 210 625 l 1
 210 59 l 1
EndSplineSet
Substitution2: "LC caps to smallcaps subtable" D.sc
EndChar

StartChar: E
Encoding: 69 69 79
Width: 675
Flags: HW
TeX: 683 0
HStem: -0 59<48 137 212 546.526> 324 59<212 396.871> 622 58<48 137 212 532.318>
VStem: 137 75<59 324 383 622> 401 58<207 320.16 386.84 500> 560 59<427 490.25> 588 59<237.5 285>
AnchorPoint: "ogonek" 348 0 basechar 0
AnchorPoint: "below" 348 0 basechar 0
AnchorPoint: "above" 348 694 basechar 0
LayerCount: 2
Fore
SplineSet
48 -0 m 1xfa
 48 59 l 1
 137 59 l 1
 137 622 l 1
 48 622 l 1
 48 680 l 1
 591 680 l 1
 619 427 l 1
 560 427 l 1xfc
 554 481 546 554 537 588 c 0
 529 617 524 622 360 622 c 2
 212 622 l 1
 212 383 l 1
 289 383 l 2
 401 383 396 384 399 425 c 0
 400 447 401 468 401 490 c 2
 401 500 l 1
 459 500 l 1
 459 207 l 1
 401 207 l 1
 401 217 l 2
 401 239 400 260 399 282 c 0
 396 323 400 324 290 324 c 2
 212 324 l 1
 212 59 l 1
 372 59 l 2
 444 59 488 60 516 65 c 0
 555 72 556 74 588 285 c 1
 647 285 l 1
 605 -0 l 1
 48 -0 l 1xfa
EndSplineSet
Substitution2: "LC caps to smallcaps subtable" E.sc
EndChar

StartChar: F
Encoding: 70 70 80
Width: 647
Flags: HW
TeX: 683 0
HStem: -0 59<48 137 212 323> 311 59<212 390.562> 622 58<48 137 212 517.583>
VStem: 137 75<59 311 370 622> 395 58<194 307.483 373.756 486> 546 58<427 492.593>
AnchorPoint: "below" 326 0 basechar 0
AnchorPoint: "above" 326 694 basechar 0
LayerCount: 2
Fore
SplineSet
48 -0 m 1
 48 59 l 1
 137 59 l 1
 137 622 l 1
 48 622 l 1
 48 680 l 1
 577 680 l 1
 604 427 l 1
 546 427 l 1
 525 612 522 611 489 616 c 0
 462 620 421 622 353 622 c 2
 212 622 l 1
 212 370 l 1
 305 370 l 2
 388 370 390 371 393 411 c 0
 394 432 395 455 395 476 c 2
 395 486 l 1
 453 486 l 1
 453 194 l 1
 395 194 l 1
 395 205 l 2
 395 226 394 248 393 269 c 0
 389 311 396 311 281 311 c 2
 212 311 l 1
 212 59 l 1
 323 59 l 1
 323 -0 l 1
 48 -0 l 1
EndSplineSet
Substitution2: "LC caps to smallcaps subtable" F.sc
EndChar

StartChar: G
Encoding: 71 71 81
Width: 782
Flags: HW
TeX: 683 0
HStem: -11 59<300.593 548.702> 233 58<465 590 666 735> 635 59<297.944 497.159>
VStem: 55 78<213.094 469.433> 590 76<81.5918 233 432.704 545.825>
AnchorPoint: "below" 396 0 basechar 0
AnchorPoint: "above" 388 694 basechar 0
LayerCount: 2
Fore
SplineSet
55 341 m 0
 55 572 209 694 389 694 c 0
 481 694 543 656 593 603 c 1
 638 690 636 693 651 693 c 2
 653 693 l 2
 665 693 666 681 666 672 c 2
 666 451 l 2
 666 430 662 429 636 429 c 0
 594 429 616 435 594 497 c 0
 576 548 522 635 416 635 c 0
 295 635 133 576 133 340 c 0
 133 156 239 48 422 48 c 0
 473 48 554 53 581 96 c 0
 589 110 590 126 590 141 c 2
 590 233 l 1
 465 233 l 1
 465 291 l 1
 735 291 l 1
 735 233 l 1
 666 233 l 1
 666 19 l 2
 666 7 663 3 658 3 c 0
 647 3 626 31 615 48 c 1
 595 32 546 -11 396 -11 c 0
 180 -11 55 137 55 341 c 0
EndSplineSet
Substitution2: "LC caps to smallcaps subtable" G.sc
EndChar

StartChar: H
Encoding: 72 72 82
Width: 739
Flags: HW
TeX: 683 0
HStem: -0 59<48 137 213 302 437 526 601 690> 326 59<213 526> 625 58<48 137 213 302 437 526 601 690>
VStem: 137 76<59 326 385 625> 526 75<59 326 385 625>
AnchorPoint: "below" 369 0 basechar 0
AnchorPoint: "above" 369 694 basechar 0
LayerCount: 2
Fore
SplineSet
48 -0 m 1
 48 59 l 1
 137 59 l 1
 137 625 l 1
 48 625 l 1
 48 683 l 1
 302 683 l 1
 302 625 l 1
 213 625 l 1
 213 385 l 1
 526 385 l 1
 526 625 l 1
 437 625 l 1
 437 683 l 1
 690 683 l 1
 690 625 l 1
 601 625 l 1
 601 59 l 1
 690 59 l 1
 690 -0 l 1
 437 -0 l 1
 437 59 l 1
 526 59 l 1
 526 326 l 1
 213 326 l 1
 213 59 l 1
 302 59 l 1
 302 -0 l 1
 48 -0 l 1
EndSplineSet
Substitution2: "LC caps to smallcaps subtable" H.sc
EndChar

StartChar: I
Encoding: 73 73 83
Width: 350
Flags: HW
TeX: 683 0
HStem: -0 59<44 137 213 306> 625 58<44 137 213 306>
VStem: 137 76<59 625>
AnchorPoint: "ogonek" 175 0 basechar 0
AnchorPoint: "below" 175 0 basechar 0
AnchorPoint: "above" 175 694 basechar 0
LayerCount: 2
Fore
SplineSet
44 -0 m 1
 44 59 l 1
 137 59 l 1
 137 625 l 1
 44 625 l 1
 44 683 l 1
 306 683 l 1
 306 625 l 1
 213 625 l 1
 213 59 l 1
 306 59 l 1
 306 -0 l 1
 44 -0 l 1
EndSplineSet
EndChar

StartChar: J
Encoding: 74 74 84
Width: 508
Flags: HW
TeX: 683 0
HStem: -11 59<149.298 285.084> 625 58<200 316 388 455>
VStem: 66 86<80.4219 150.339> 316 72<80.4192 625>
AnchorPoint: "below" 260 0 basechar 0
AnchorPoint: "above" 352 694 basechar 0
LayerCount: 2
Fore
SplineSet
66 111 m 0
 66 142 89 156 110 156 c 0
 131 156 152 139 152 114 c 0
 152 98 145 89 137 80 c 1
 146 71 171 48 222 48 c 0
 294 48 310 105 313 120 c 0
 315 132 316 143 316 155 c 2
 316 625 l 1
 200 625 l 1
 200 683 l 1
 455 683 l 1
 455 625 l 1
 388 625 l 1
 388 153 l 2
 388 22 292 -11 224 -11 c 0
 132 -11 66 46 66 111 c 0
EndSplineSet
EndChar

StartChar: K
Encoding: 75 75 85
Width: 767
Flags: HW
TeX: 683 0
HStem: -0 59<50 139 211 300 511 566 630.312 725> 625 58<50 139 211 300 484 540 597.751 710>
VStem: 139 72<59 221.717 302 625>
DStem2: 211 302 352 362 0.713584 0.70057<0.723931 142.65 207.701 461.053> 398 408 352 362 0.575916 -0.817509<11.1132 382.064>
AnchorPoint: "below" 388 0 basechar 0
AnchorPoint: "above" 388 694 basechar 0
LayerCount: 2
Fore
SplineSet
50 -0 m 1
 50 59 l 1
 139 59 l 1
 139 625 l 1
 50 625 l 1
 50 683 l 1
 300 683 l 1
 300 625 l 1
 211 625 l 1
 211 302 l 1
 540 625 l 1
 484 625 l 1
 484 683 l 1
 710 683 l 1
 710 625 l 1
 636 625 l 2
 618 625 615 621 596 602 c 2
 398 408 l 1
 634 73 l 2
 641 64 644 60 658 59 c 1
 725 59 l 1
 725 -0 l 1
 511 -0 l 1
 511 59 l 1
 566 59 l 1
 352 362 l 1
 214 226 216 230 213 222 c 0
 211 216 211 208 211 202 c 2
 211 59 l 1
 300 59 l 1
 300 -0 l 1
 50 -0 l 1
EndSplineSet
Substitution2: "LC caps to smallcaps subtable" K.sc
EndChar

StartChar: L
Encoding: 76 76 86
Width: 619
Flags: HW
TeX: 683 0
HStem: -0 59<48 137 212 486.272> 625 58<48 137 212 323>
VStem: 137 75<59 625> 518 59<213.75 285>
AnchorPoint: "below" 312 0 basechar 0
AnchorPoint: "above" 312 694 basechar 0
LayerCount: 2
Fore
SplineSet
48 -0 m 1
 48 59 l 1
 137 59 l 1
 137 625 l 1
 48 625 l 1
 48 683 l 1
 323 683 l 1
 323 625 l 1
 212 625 l 1
 212 59 l 1
 340 59 l 1
 472 62 485 64 494 100 c 0
 504 139 512 223 518 285 c 1
 577 285 l 1
 549 -0 l 1
 48 -0 l 1
EndSplineSet
Substitution2: "LC caps to smallcaps subtable" L.sc
EndChar

StartChar: M
Encoding: 77 77 87
Width: 906
Flags: HW
TeX: 683 0
HStem: -0 59<54 143 201 290 609 698 761 850> 625 58<54 143 761 850>
VStem: 143 58<59 602> 698 63<59 610>
DStem2: 243 657 201 602 0.342137 -0.93965<37.311 610.866> 452 83 484 26 0.342647 0.939464<0 579.046>
AnchorPoint: "below" 452 0 basechar 0
AnchorPoint: "above" 452 694 basechar 0
LayerCount: 2
Fore
SplineSet
54 -0 m 1
 54 59 l 1
 143 59 l 1
 143 625 l 1
 54 625 l 1
 54 683 l 1
 206 683 l 2
 228 683 235 678 243 657 c 2
 452 83 l 1
 458 102 465 121 472 140 c 2
 661 657 l 2
 669 678 676 683 698 683 c 2
 850 683 l 1
 850 625 l 1
 761 625 l 1
 761 59 l 1
 850 59 l 1
 850 -0 l 1
 609 -0 l 1
 609 59 l 1
 698 59 l 1
 698 539 l 1
 697 610 l 1
 690 589 682 568 675 548 c 2
 484 26 l 2
 477 7 471 1 450 -0 c 1
 424 0 420 4 408 36 c 2
 201 602 l 1
 201 59 l 1
 290 59 l 1
 290 -0 l 1
 54 -0 l 1
EndSplineSet
Substitution2: "LC caps to smallcaps subtable" M.sc
EndChar

StartChar: N
Encoding: 78 78 88
Width: 739
Flags: HW
TeX: 683 0
HStem: -0 59<50 139 198 287> 625 58<50 139 452 541 600 689>
VStem: 139 59<59 568> 541 59<140 625>
DStem2: 218 664 198 568 0.523837 -0.851818<71.2978 615.552>
AnchorPoint: "below" 370 0 basechar 0
AnchorPoint: "above" 370 694 basechar 0
LayerCount: 2
Fore
SplineSet
50 -0 m 1
 50 59 l 1
 139 59 l 1
 139 625 l 1
 50 625 l 1
 50 683 l 1
 185 683 l 2
 201 683 207 681 218 664 c 2
 541 140 l 1
 541 625 l 1
 452 625 l 1
 452 683 l 1
 689 683 l 1
 689 625 l 1
 600 625 l 1
 600 32 l 2
 600 16 601 0 574 -0 c 2
 568 -0 l 2
 548 0 544 5 535 20 c 2
 198 568 l 1
 198 59 l 1
 287 59 l 1
 287 -0 l 1
 50 -0 l 1
EndSplineSet
Substitution2: "LC caps to smallcaps subtable" N.sc
EndChar

StartChar: O
Encoding: 79 79 89
Width: 778
Flags: HW
TeX: 683 0
HStem: -11 63<282.176 492.395> 633 61<282.174 495.352>
VStem: 55 78<219.527 476.841> 643 78<215.198 476.683>
AnchorPoint: "ogonek" 387 0 basechar 0
AnchorPoint: "below" 387 0 basechar 0
AnchorPoint: "above" 389 694 basechar 0
LayerCount: 2
Fore
SplineSet
55 338 m 0
 55 556 189 694 389 694 c 0
 587 694 721 555 721 340 c 0
 721 120 582 -11 387 -11 c 0
 188 -11 55 126 55 338 c 0
133 354 m 0
 133 113 282 52 388 52 c 0
 495 52 643 114 643 354 c 0
 643 572 501 633 389 633 c 0
 278 633 133 574 133 354 c 0
EndSplineSet
Substitution2: "LC caps to smallcaps subtable" O.sc
EndChar

StartChar: P
Encoding: 80 80 90
Width: 675
Flags: HW
TeX: 683 0
HStem: -0 59<49 138 213 302> 283 59<213 469.97> 625 58<49 138 210 469.235>
VStem: 138 72<59 283 342 625> 540 79<402.308 563.001>
AnchorPoint: "below" 312 0 basechar 0
AnchorPoint: "above" 312 694 basechar 0
LayerCount: 2
Fore
SplineSet
49 -0 m 1
 49 59 l 1
 138 59 l 1
 138 625 l 1
 49 625 l 1
 49 683 l 1
 378 683 l 2
 532 683 619 598 619 483 c 0
 619 404 573 283 373 283 c 2
 213 283 l 1
 213 59 l 1
 302 59 l 1
 302 -0 l 1
 49 -0 l 1
210 342 m 1
 343 342 l 2
 410 342 482 346 519 403 c 0
 536 430 540 460 540 484 c 0
 540 504 538 565 481 599 c 0
 440 624 391 625 345 625 c 2
 210 625 l 1
 210 342 l 1
EndSplineSet
Substitution2: "LC caps to smallcaps subtable" P.sc
EndChar

StartChar: Q
Encoding: 81 81 91
Width: 778
Flags: HW
TeX: 683 194
HStem: -194 78<558.147 658.918> -11 61<351.119 456.445> 107 59<351.006 438.721> 633 61<280.917 497.02>
VStem: 55 75<209.133 472.244> 290 59<67.2185 101.861> 646 75<207.424 472.641> 696 31<-63.6406 13.9795>
AnchorPoint: "below" 388 -195 basechar 0
AnchorPoint: "above" 388 694 basechar 0
LayerCount: 2
Fore
SplineSet
55 339 m 0
 55 557 190 694 388 694 c 0
 574 694 721 569 721 340 c 0xfe
 721 235 687 72 514 10 c 1
 529 -49 544 -116 607 -116 c 0
 649 -116 689 -80 696 -14 c 0
 696 -9 695 14 711 14 c 0
 718 14 727 7 727 -8 c 0xfd
 727 -71 702 -194 603 -194 c 0
 504 -194 492 -87 475 -1 c 1
 449 -6 423 -11 388 -11 c 0
 194 -11 55 121 55 339 c 0
130 338 m 0
 130 252 152 121 290 67 c 1
 290 77 l 2
 290 134 342 166 389 166 c 0
 452 166 480 117 496 71 c 1
 592 113 646 202 646 336 c 0xfe
 646 580 490 633 388 633 c 0
 275 633 130 570 130 338 c 0
349 78 m 0xfc
 349 67 359 50 391 50 c 0
 415 50 442 55 457 58 c 1
 448 77 430 107 390 107 c 0
 366 107 349 93 349 78 c 0xfc
EndSplineSet
Substitution2: "LC caps to smallcaps subtable" Q.sc
EndChar

StartChar: R
Encoding: 82 82 92
Width: 731
Flags: HW
TeX: 683 0
HStem: -11 59<586.205 661.217> -0 59<49 138 210 299> 312 59<210 433.125> 625 58<49 138 210 451.965>
VStem: 138 72<59 312 371 625> 489 78<69.1849 263.723> 526 78<429.677 565.674> 667 59<53.9575 111.68>
AnchorPoint: "below" 312 0 basechar 0
AnchorPoint: "above" 312 694 basechar 0
LayerCount: 2
Fore
SplineSet
49 -0 m 1
 49 59 l 1
 138 59 l 1
 138 625 l 1
 49 625 l 1
 49 683 l 1
 328 683 l 2
 553 683 604 572 604 498 c 0x7b
 604 433 568 371 484 336 c 1
 574 280 564 227 567 137 c 0
 568 98 575 74 598 58 c 0
 607 52 617 48 627 48 c 0
 645 48 662 59 667 87 c 0
 670 103 670 112 696 112 c 0
 711 112 726 113 726 91 c 0
 726 56 699 -11 629 -11 c 0xbd
 575 -11 489 13 489 137 c 2
 489 200 l 2xbd
 489 220 489 233 479 250 c 0
 466 272 429 312 330 312 c 2
 210 312 l 1
 210 59 l 1
 299 59 l 1
 299 -0 l 1
 49 -0 l 1
210 371 m 1x3b
 323 371 l 2
 404 371 474 381 508 434 c 0
 520 453 526 476 526 498 c 0
 526 524 517 574 460 602 c 0
 417 623 369 625 322 625 c 2
 210 625 l 1
 210 371 l 1x3b
EndSplineSet
Substitution2: "LC caps to smallcaps subtable" R.sc
EndChar

StartChar: S
Encoding: 83 83 93
Width: 556
Flags: HW
TeX: 683 0
HStem: -11 59<203.53 380.25> 638 56<171.5 331.767>
VStem: 55 68<457.873 590.026> 55 57<135.938 226.993> 432 67<101.245 247.872>
DStem2: 189 420 361 292 0.956631 -0.291303<-49.6719 253.566>
AnchorPoint: "below" 302 0 basechar 0
AnchorPoint: "above" 248 694 basechar 0
LayerCount: 2
Fore
SplineSet
55 9 m 2
 55 207 l 2
 55 223 59 226 75 227 c 1
 89 227 l 2
 97 227 108 228 112 219 c 0xd8
 117 209 109 138 173 88 c 0
 213 57 263 48 301 48 c 0
 405 48 432 126 432 175 c 0
 432 232 399 273 361 292 c 0
 330 308 204 331 167 347 c 0
 110 372 55 430 55 513 c 0
 55 618 130 694 249 694 c 0
 348 694 394 645 414 622 c 1
 441 686 442 694 457 694 c 0
 471 694 471 683 471 673 c 2
 471 475 l 1
 470 456 464 456 451 456 c 2
 442 456 l 2
 433 456 419 454 414 463 c 0
 407 476 403 638 249 638 c 0
 160 638 123 578 123 523 c 0xe8
 123 461 170 430 189 420 c 0
 224 402 344 383 386 364 c 0
 447 336 499 271 499 183 c 0
 499 83 437 -11 302 -11 c 0
 188 -11 134 40 112 61 c 1
 84 -10 81 -10 70 -10 c 0xd8
 58 -10 55 -3 55 9 c 2
EndSplineSet
Substitution2: "LC caps to smallcaps subtable" S.sc
EndChar

StartChar: T
Encoding: 84 84 94
Width: 722
Flags: HW
TeX: 683 0
HStem: 0 59<197 322 398 523> 619 59<113.391 322 398 606.609>
VStem: 35 59<425 484> 322 76<59 619> 626 59<425 484>
CounterMasks: 1 38
AnchorPoint: "below" 360 0 basechar 0
AnchorPoint: "above" 360 694 basechar 0
LayerCount: 2
Fore
SplineSet
35 425 m 1
 55 678 l 1
 665 678 l 1
 685 425 l 1
 626 425 l 1
 622 473 616 555 610 587 c 0
 604 613 595 619 489 619 c 2
 398 619 l 1
 398 59 l 1
 523 59 l 1
 523 0 l 1
 197 0 l 1
 197 59 l 1
 322 59 l 1
 322 619 l 1
 231 619 l 2
 125 619 116 613 110 587 c 0
 104 555 98 473 94 425 c 1
 35 425 l 1
EndSplineSet
Substitution2: "LC caps to smallcaps subtable" T.sc
EndChar

StartChar: U
Encoding: 85 85 95
Width: 739
Flags: HW
TeX: 683 0
HStem: -11 59<288.604 465.104> 625 58<48 137 213 302 453 543 601 690>
VStem: 137 76<129.19 625> 543 58<130.544 625>
AnchorPoint: "ogonek" 373 0 basechar 0
AnchorPoint: "below" 373 0 basechar 0
AnchorPoint: "above" 369 694 basechar 0
LayerCount: 2
Fore
SplineSet
48 625 m 1
 48 683 l 1
 302 683 l 1
 302 625 l 1
 213 625 l 1
 213 240 l 2
 213 192 216 130 263 87 c 0
 293 59 334 48 374 48 c 0
 461 48 543 90 543 239 c 2
 543 625 l 1
 453 625 l 1
 453 683 l 1
 690 683 l 1
 690 625 l 1
 601 625 l 1
 601 243 l 2
 601 40 471 -11 373 -11 c 0
 275 -11 137 39 137 241 c 2
 137 625 l 1
 48 625 l 1
EndSplineSet
Substitution2: "LC caps to smallcaps subtable" U.sc
EndChar

StartChar: V
Encoding: 86 86 96
Width: 739
Flags: HW
TeX: 683 0
ItalicCorrection: 13
HStem: -8 21G<351.5 383.5> 625 58<20 102 180 251 501 573 636 718>
DStem2: 180 625 102 625 0.348187 -0.937425<0 564.143> 376 96 410 18 0.348923 0.937151<0 564.491>
AnchorPoint: "below" 368 0 basechar 0
AnchorPoint: "above" 368 694 basechar 0
LayerCount: 2
Fore
SplineSet
20 625 m 1
 20 683 l 1
 251 683 l 1
 251 625 l 1
 180 625 l 1
 376 96 l 1
 573 625 l 1
 501 625 l 1
 501 683 l 1
 718 683 l 1
 718 625 l 1
 636 625 l 1
 410 18 l 2
 401 -4 395 -8 372 -8 c 2
 365 -8 l 2
 338 -8 334 -1 323 30 c 2
 102 625 l 1
 20 625 l 1
EndSplineSet
Substitution2: "LC caps to smallcaps subtable" V.sc
EndChar

StartChar: W
Encoding: 87 87 97
Width: 1017
Flags: HW
TeX: 683 0
ItalicCorrection: 13
HStem: -8 21G<298 335 683.5 711> 625 58<19 94 166 241 402 477 549 624 780 864 922 997>
DStem2: 166 625 94 625 0.291932 -0.956439<0 548.256> 324 100 382 110 0.285294 0.95844<4.74858 470.863> 549 625 502 540 0.286511 -0.958077<67.9706 547.973> 706 100 737 18 0.291538 0.956559<0 548.257>
AnchorPoint: "below" 508 0 basechar 0
AnchorPoint: "above" 508 694 basechar 0
LayerCount: 2
Fore
SplineSet
19 625 m 1
 19 683 l 1
 241 683 l 1
 241 625 l 1
 166 625 l 1
 219 450 274 275 324 100 c 1
 340 157 l 1
 472 594 l 1
 477 614 l 1
 477 625 l 1
 402 625 l 1
 402 683 l 1
 624 683 l 1
 624 625 l 1
 549 625 l 1
 678 199 l 1
 706 100 l 1
 727 173 l 1
 864 625 l 1
 780 625 l 1
 780 683 l 1
 997 683 l 1
 997 625 l 1
 922 625 l 1
 737 18 l 2
 730 -4 722 -8 700 -8 c 2
 696 -8 l 2
 671 -8 667 -1 659 27 c 2
 519 484 l 2
 513 503 509 521 502 540 c 1
 496 506 478 439 459 372 c 2
 382 110 l 1
 346 -6 352 -8 318 -8 c 2
 313 -8 l 2
 283 -8 282 10 275 32 c 2
 94 625 l 1
 19 625 l 1
EndSplineSet
Substitution2: "LC caps to smallcaps subtable" W.sc
EndChar

StartChar: X
Encoding: 88 88 98
Width: 739
Flags: HW
TeX: 683 0
HStem: -0 59<27 123 193 252 476 531 617 711> 625 58<42 150.004 221 276 444 503 559.667 669>
DStem2: 123 59 193 59 0.557405 0.830241<39.0184 335.787 433.779 681.73> 221 625 153 599 0.573268 -0.819368<0 250.767 341.309 641.475>
AnchorPoint: "below" 369 0 basechar 0
AnchorPoint: "above" 369 694 basechar 0
LayerCount: 2
Fore
SplineSet
27 -0 m 1
 27 59 l 1
 123 59 l 1
 323 357 l 1
 153 599 l 2
 136 623 136 625 120 625 c 2
 42 625 l 1
 42 683 l 1
 276 683 l 1
 276 625 l 1
 221 625 l 1
 364 419 l 1
 365 419 l 1
 503 625 l 1
 444 625 l 1
 444 683 l 1
 669 683 l 1
 669 625 l 1
 589 625 l 2
 574 625 572 621 557 600 c 2
 401 367 l 1
 617 59 l 1
 711 59 l 1
 711 -0 l 1
 476 -0 l 1
 476 59 l 1
 531 59 l 1
 359 305 l 1
 193 59 l 1
 252 59 l 1
 252 -0 l 1
 27 -0 l 1
EndSplineSet
Substitution2: "LC caps to smallcaps subtable" X.sc
EndChar

StartChar: Y
Encoding: 89 89 99
Width: 739
Flags: HW
TeX: 683 0
ItalicCorrection: 24
HStem: 0 59<244 333 405 494> 625 58<15 107 193 251 503 561 631 723>
VStem: 333 72<59 305.703>
DStem2: 193 625 107 625 0.540123 -0.841586<0 340.918> 377 338 416 290 0.540123 0.841586<0 340.918>
AnchorPoint: "below" 368 0 basechar 0
AnchorPoint: "above" 368 694 basechar 0
LayerCount: 2
Fore
SplineSet
15 625 m 1
 15 683 l 1
 251 683 l 1
 251 625 l 1
 193 625 l 1
 377 338 l 1
 561 625 l 1
 503 625 l 1
 503 683 l 1
 723 683 l 1
 723 625 l 1
 631 625 l 1
 416 290 l 2
 406 274 405 272 405 254 c 2
 405 59 l 1
 494 59 l 1
 494 0 l 1
 244 0 l 1
 244 59 l 1
 333 59 l 1
 333 254 l 2
 333 272 332 274 322 290 c 2
 107 625 l 1
 15 625 l 1
EndSplineSet
Substitution2: "LC caps to smallcaps subtable" Y.sc
EndChar

StartChar: Z
Encoding: 90 90 100
Width: 611
Flags: HW
TeX: 683 0
HStem: -0 61<155 471.457> 625 58<155.939 455>
VStem: 69 59<430 591>
DStem2: 90 96 155 61 0.567915 0.823087<8.1064 642.702> 489 144 560 295 0.0575317 0.998344<-69.844 151.44>
AnchorPoint: "below" 308 0 basechar 0
AnchorPoint: "above" 308 694 basechar 0
LayerCount: 2
Fore
SplineSet
55 30 m 0
 55 51 60 53 90 96 c 2
 455 625 l 1
 322 625 l 2
 155 625 147 619 137 551 c 0
 131 511 130 470 128 430 c 1
 69 430 l 1
 80 683 l 1
 527 683 l 2
 548 683 555 679 555 656 c 0
 555 635 548 629 520 589 c 2
 155 61 l 1
 298 61 l 1
 479 65 478 60 489 144 c 0
 495 194 498 245 501 295 c 1
 560 295 l 1
 543 -0 l 1
 85 -0 l 2
 66 0 55 1 55 30 c 0
EndSplineSet
Substitution2: "LC caps to smallcaps subtable" Z.sc
EndChar

StartChar: bracketleft
Encoding: 91 91 101
Width: 278
Flags: HW
TeX: 750 250
HStem: -250 59<171 255> 691 59<171 255>
VStem: 104 151<-250 -191 691 750> 104 67<-191 691>
LayerCount: 2
Fore
SplineSet
104 -250 m 1xe0
 104 750 l 1
 255 750 l 1
 255 691 l 1xe0
 171 691 l 1
 171 -191 l 1xd0
 255 -191 l 1
 255 -250 l 1
 104 -250 l 1xe0
EndSplineSet
EndChar

StartChar: backslash
Encoding: 92 92 102
Width: 500
Flags: HW
TeX: 750 250
DStem2: 119 711 65 686 0.33086 -0.94368<-28.9345 986.353>
LayerCount: 2
Fore
SplineSet
56 720 m 0
 56 735 68 749 85 749 c 0
 107 749 113 727 119 711 c 2
 437 -196 l 2
 440 -204 443 -213 443 -221 c 0
 443 -238 428 -249 414 -249 c 0
 390 -249 383 -220 378 -205 c 2
 65 686 l 2
 61 697 56 711 56 720 c 0
EndSplineSet
EndChar

StartChar: bracketright
Encoding: 93 93 103
Width: 278
Flags: HW
TeX: 750 250
HStem: -250 59<21 105> 691 59<21 105>
VStem: 21 151<-250 -191 691 750> 105 67<-191 691>
LayerCount: 2
Fore
SplineSet
21 -191 m 1xe0
 105 -191 l 1
 105 691 l 1xd0
 21 691 l 1
 21 750 l 1
 172 750 l 1
 172 -250 l 1
 21 -250 l 1
 21 -191 l 1xe0
EndSplineSet
EndChar

StartChar: asciicircum
Encoding: 94 94 104
Width: 611
Flags: HW
TeX: 694 0
HStem: 469 166
DStem2: 110 520 140 469 0.861366 0.507985<0 192.858> 305 635 305 569 0.861366 -0.507985<33.527 226.385>
LayerCount: 2
Fore
SplineSet
110 520 m 1
 305 635 l 1
 500 520 l 1
 470 469 l 1
 305 569 l 1
 140 469 l 1
 110 520 l 1
EndSplineSet
EndChar

StartChar: underscore
Encoding: 95 95 105
Width: 778
Flags: HW
TeX: 0 262
HStem: -263 40<84.0102 691.988>
LayerCount: 2
Fore
SplineSet
84 -243 m 0
 84 -227 98 -223 114 -223 c 2
 662 -223 l 2
 676 -223 692 -226 692 -243 c 0
 692 -261 675 -263 664 -263 c 2
 113 -263 l 2
 89 -263 84 -251 84 -243 c 0
EndSplineSet
EndChar

StartChar: a
Encoding: 97 97 107
Width: 489
Flags: HW
TeX: 458 0
HStem: -6 59<143.626 273.83 402.518 483.968> 238 51<190.22 325> 408 58<155.982 294.928>
VStem: 45 70<82.4084 182.712> 76 80<362.235 404.559> 325 70<88.2472 238 289 378.174>
AnchorPoint: "ogonek" 362 0 basechar 0
AnchorPoint: "affricate-below" 489 -195 basechar 0
AnchorPoint: "affricate-above" 489 695 basechar 0
AnchorPoint: "below" 216 0 basechar 0
AnchorPoint: "above" 216 466 basechar 0
LayerCount: 2
Fore
SplineSet
45 130 m 0xf4
 45 194 91 287 325 289 c 1
 325 312 l 2
 325 313 326 315 326 318 c 0
 326 354 311 408 212 408 c 0
 201 408 178 407 156 405 c 1
 158 368 132 358 116 358 c 0
 90 358 76 377 76 399 c 0xec
 76 460 164 466 217 466 c 0
 324 466 396 415 396 318 c 0
 396 316 395 315 395 313 c 2
 395 105 l 2
 395 97 395 89 397 82 c 0
 406 52 463 63 476 55 c 0
 483 51 485 42 485 27 c 0
 485 5 477 0 456 -0 c 2
 438 -0 l 1
 351 1 340 37 335 53 c 1
 330 49 274 -6 158 -6 c 0
 80 -6 45 69 45 130 c 0xf4
115 132 m 0
 115 85 159 53 210 53 c 0xf4
 251 53 326 70 326 151 c 0
 326 156 325 161 325 165 c 2
 325 238 l 1
 265 236 207 229 165 205 c 0
 154 199 115 176 115 132 c 0
EndSplineSet
Substitution2: "LC small to smallcaps subtable" A.sc
EndChar

StartChar: b
Encoding: 98 98 108
Width: 561
Flags: HW
TeX: 694 0
HStem: -5 58<236.261 381.481> 405 58<234.939 387.486> 622 58<24 94> 675 20G<24 174>
VStem: 107 67<112.277 358.384 409 620.138> 107 59<0 60> 447 76<123.112 338.628>
AnchorPoint: "affricate-below" 561 -195 basechar 0
AnchorPoint: "affricate-above" 561 695 basechar 0
AnchorPoint: "below" 314 0 basechar 0
AnchorPoint: "above" 314 695 basechar 0
LayerCount: 2
Fore
SplineSet
24 622 m 1
 24 680 l 1xea
 174 695 l 1
 174 409 l 1xda
 232 450 298 463 353 463 c 0
 467 463 523 360 523 231 c 0
 523 50 415 -5 333 -5 c 0
 263 -5 212 23 171 60 c 1
 166 -0 l 1
 107 -0 l 1xd6
 107 594 l 2xda
 107 617 105 622 43 622 c 2
 24 622 l 1
177 159 m 2xc2
 177 129 220 53 301 53 c 0
 353 53 447 73 447 228 c 0
 447 356 392 405 310 405 c 0
 251 405 177 368 177 312 c 2
 177 159 l 2xc2
EndSplineSet
Substitution2: "LC small to smallcaps subtable" B.sc
EndChar

StartChar: c
Encoding: 99 99 109
Width: 444
Flags: HW
TeX: 458 0
HStem: -5 61<189.145 328.464> 405 61<176.991 323.799>
VStem: 37 75<134.595 332.673> 324 81<362.126 402.046>
AnchorPoint: "affricate-below" 444 -195 basechar 0
AnchorPoint: "affricate-above" 444 695 basechar 0
AnchorPoint: "below" 249 0 basechar 0
AnchorPoint: "above" 259 466 basechar 0
LayerCount: 2
Fore
SplineSet
37 228 m 0
 37 328 81 466 259 466 c 0
 310 466 405 465 405 399 c 0
 405 376 389 358 365 358 c 0
 353 358 326 362 324 402 c 1
 303 404 285 405 269 405 c 0
 206 405 179 390 158 369 c 0
 128 339 112 286 112 233 c 0
 112 91 207 56 273 56 c 0
 345 56 350 125 363 133 c 0
 364 134 378 137 391 137 c 0
 403 137 414 134 414 124 c 0
 414 110 377 -5 249 -5 c 0
 125 -5 37 84 37 228 c 0
EndSplineSet
Substitution2: "LC small to smallcaps subtable" C.sc
EndChar

StartChar: d
Encoding: 100 100 110
Width: 561
Flags: HW
TeX: 694 0
HStem: -5 58<172.308 315.775 453.051 536> 405 59<177.943 326.919> 622 58<302 372> 675 20G<302 452>
VStem: 37 75<120.405 333.28> 382 70<110.405 363.114 411 620.671>
AnchorPoint: "affricate-below" 561 -195 basechar 0
AnchorPoint: "affricate-above" 561 695 basechar 0
AnchorPoint: "below" 286 0 basechar 0
AnchorPoint: "above" 244 695 basechar 0
LayerCount: 2
Fore
SplineSet
37 228 m 0
 37 366 102 464 220 464 c 0
 295 464 348 436 385 411 c 1
 385 595 l 1
 384 621 375 622 314 622 c 2
 302 622 l 1
 302 680 l 1xec
 452 695 l 1xdc
 452 88 l 2
 452 65 454 59 514 59 c 2
 536 59 l 1
 536 -0 l 1
 382 -5 l 1
 382 58 l 1
 339 23 286 -5 214 -5 c 0
 108 -5 37 84 37 228 c 0
112 228 m 0
 112 77 194 53 249 53 c 0
 322 53 382 115 382 167 c 2
 382 305 l 2
 382 308 383 310 383 313 c 0
 383 365 319 405 259 405 c 0xcc
 200 405 112 381 112 228 c 0
EndSplineSet
Substitution2: "LC small to smallcaps subtable" D.sc
EndChar

StartChar: e
Encoding: 101 101 111
Width: 444
Flags: HW
TeX: 458 0
HStem: -5 61<182.707 326.545> 240 55<112 355> 408 58<166.026 308.034>
VStem: 31 75<136.253 240> 354 60<85.5506 142.587 295 359.007>
AnchorPoint: "ogonek" 247 0 basechar 0
AnchorPoint: "affricate-below" 444 -195 basechar 0
AnchorPoint: "affricate-above" 444 695 basechar 0
AnchorPoint: "below" 247 0 basechar 0
AnchorPoint: "above" 236 466 basechar 0
LayerCount: 2
Fore
SplineSet
31 233 m 0
 31 373 113 466 236 466 c 0
 380 466 415 353 415 265 c 0
 415 241 402 240 388 240 c 2
 106 240 l 1
 106 93 193 56 272 56 c 0
 321 56 344 95 354 122 c 0
 361 139 364 143 385 143 c 2
 389 143 l 2
 399 143 414 141 414 125 c 0
 414 92 356 -5 247 -5 c 0
 131 -5 31 76 31 233 c 0
112 295 m 1
 355 295 l 1
 345 366 310 408 237 408 c 0
 210 408 134 402 112 295 c 1
EndSplineSet
Substitution2: "LC small to smallcaps subtable" E.sc
EndChar

StartChar: f
Encoding: 102 102 112
Width: 306
Flags: HW
TeX: 694 0
ItalicCorrection: 66
HStem: -0 59<27 110 177 282> 400 58<32 110 177 292> 641 59<204.935 269>
VStem: 110 67<59 400 458 612.262> 269 78<601.982 640.759>
AnchorPoint: "affricate-below" 306 -195 basechar 0
AnchorPoint: "affricate-above" 306 695 basechar 0
AnchorPoint: "above" 293 695 basechar 0
AnchorPoint: "below" 144 0 basechar 0
LayerCount: 2
Fore
SplineSet
27 -0 m 1
 27 59 l 1
 110 59 l 1
 110 400 l 1
 32 400 l 1
 32 458 l 1
 110 458 l 1
 110 537 l 2
 110 675 233 700 293 700 c 0
 338 700 347 657 347 639 c 0
 347 616 331 598 308 598 c 0
 294 598 270 605 269 641 c 1
 190 640 175 590 175 536 c 2
 175 458 l 1
 292 458 l 1
 292 400 l 1
 177 400 l 1
 177 59 l 1
 282 59 l 1
 282 -0 l 1
 27 -0 l 1
EndSplineSet
Substitution2: "LC small to smallcaps subtable" F.sc
EndChar

StartChar: g
Encoding: 103 103 113
Width: 500
Flags: HW
TeX: 458 194
ItalicCorrection: 13
HStem: -200 56<133.978 364.171> 6 64<128.968 376.016> 134 56<159.178 282.667> 384 85<417.857 472.992> 408 56<159.722 283.196>
VStem: 27 64<-108.46 -12.5555> 63 67<219.469 377.551> 67 52<79.2369 159.305> 312 68<220.055 378.519> 407 64<-108.156 -21.5474>
AnchorPoint: "affricate-below" 500 -195 basechar 0
AnchorPoint: "affricate-above" 500 695 basechar 0
AnchorPoint: "below" 251 -195 basechar 0
AnchorPoint: "above" 220 466 basechar 0
LayerCount: 2
Fore
SplineSet
27 -65 m 0
 27 -44 35 12 91 42 c 1xf4c0
 75 67 67 86 67 115 c 0xf1c0
 67 147 77 171 93 194 c 1
 75 222 63 251 63 298 c 0
 63 397 126 464 221 464 c 0xeac0
 262 464 291 452 319 434 c 1
 344 452 378 469 421 469 c 0
 458 469 484 446 484 419 c 0
 484 398 468 384 450 384 c 0
 432 384 421 397 416 410 c 1
 385 406 l 1
 353 398 l 1
 370 368 380 339 380 299 c 0
 380 200 316 134 221 134 c 0
 184 134 156 143 128 160 c 1
 124 150 119 139 119 125 c 0xf1c0
 119 101 133 74 162 71 c 0
 169 70 176 70 183 70 c 2
 256 70 l 2
 343 70 439 62 465 -25 c 0
 469 -38 471 -51 471 -65 c 0
 471 -122 422 -200 251 -200 c 0
 70 -200 27 -119 27 -65 c 0
91 -63 m 0xe4c0
 91 -96 119 -144 251 -144 c 0
 374 -144 407 -97 407 -66 c 0
 407 -1 321 6 252 6 c 2
 177 6 l 2
 100 6 91 -40 91 -63 c 0xe4c0
130 300 m 0
 130 209 179 190 221 190 c 0
 289 190 312 238 312 298 c 0xeac0
 312 389 264 408 222 408 c 0
 154 408 130 360 130 300 c 0
EndSplineSet
Substitution2: "LC small to smallcaps subtable" G.sc
EndChar

StartChar: h
Encoding: 104 104 114
Width: 561
Flags: HW
TeX: 694 0
HStem: -0 59<28 111 181 264 306 389 459 542> 405 59<233.17 366.396> 622 58<28 98> 675 20G<28 178>
VStem: 111 67<59 352.502 400 620.178> 389 70<59 382.978>
AnchorPoint: "affricate-below" 561 -195 basechar 0
AnchorPoint: "affricate-above" 561 695 basechar 0
AnchorPoint: "below" 285 0 basechar 0
AnchorPoint: "above" 285 695 basechar 0
LayerCount: 2
Fore
SplineSet
28 -0 m 1
 28 59 l 1
 111 59 l 1
 111 595 l 2
 111 618 107 622 47 622 c 2
 28 622 l 1
 28 680 l 1xec
 178 695 l 1
 178 443 l 1
 179 400 l 1
 212 436 258 464 323 464 c 0
 451 464 459 382 459 317 c 2
 459 59 l 1
 542 59 l 1
 542 -0 l 1
 306 -0 l 1
 306 59 l 1
 389 59 l 1
 389 314 l 2
 389 353 386 405 291 405 c 0xdc
 225 405 181 353 181 273 c 2
 181 59 l 1
 264 59 l 1
 264 -0 l 1
 28 -0 l 1
EndSplineSet
Substitution2: "LC small to smallcaps subtable" H.sc
EndChar

StartChar: k
Encoding: 107 107 117
Width: 533
Flags: HW
TeX: 694 0
HStem: -0 59<26 109 170 253 318 368 439 516> 400 58<261 326 384.702 494> 622 58<26 94.6> 675 20G<26 173>
VStem: 109 64<59 190.797 250 620.178>
DStem2: 173 250 244 240 0.714073 0.700071<0 43.6985 103.793 214.264> 286 281 244 240 0.567473 -0.823392<9.92521 229.326>
AnchorPoint: "affricate-below" 533 -195 basechar 0
AnchorPoint: "affricate-above" 533 695 basechar 0
AnchorPoint: "below" 271 0 basechar 0
AnchorPoint: "above" 271 695 basechar 0
LayerCount: 2
Fore
SplineSet
26 -0 m 1
 26 59 l 1
 109 59 l 1
 109 595 l 2
 109 618 105 622 45 622 c 2
 26 622 l 1
 26 680 l 1xe8
 173 695 l 1
 173 250 l 1
 326 400 l 1
 261 400 l 1
 261 458 l 1
 494 458 l 1
 494 400 l 1
 422 400 l 2
 403 400 406 400 325 320 c 1
 286 283 l 1
 286 281 l 1
 439 59 l 1
 516 59 l 1
 516 -0 l 1
 318 -0 l 1
 318 59 l 1
 368 59 l 1
 244 240 l 1
 169 166 170 172 170 151 c 2xd8
 170 59 l 1
 253 59 l 1
 253 -0 l 1
 26 -0 l 1
EndSplineSet
Substitution2: "LC small to smallcaps subtable" K.sc
EndChar

StartChar: l
Encoding: 108 108 118
Width: 283
Flags: HW
TeX: 694 0
HStem: -0 59<30 113 180 264> 622 58<30 100> 675 20G<30 180>
VStem: 113 67<59 620.178>
AnchorPoint: "affricate-below" 283 -195 basechar 0
AnchorPoint: "affricate-above" 283 695 basechar 0
AnchorPoint: "below" 146 0 basechar 0
AnchorPoint: "above" 146 695 basechar 0
LayerCount: 2
Fore
SplineSet
30 -0 m 1
 30 59 l 1
 113 59 l 1
 113 595 l 2xb0
 113 618 108 622 49 622 c 2
 30 622 l 1
 30 680 l 1xd0
 180 695 l 1
 180 59 l 1
 264 59 l 1
 264 -0 l 1
 30 -0 l 1
EndSplineSet
Substitution2: "LC small to smallcaps subtable" L.sc
EndChar

StartChar: m
Encoding: 109 109 119
Width: 839
Flags: HW
TeX: 458 0
HStem: 0 59<28 111 181 264 306 389 459 543 584 668 738 821> 391 59<28 102> 405 59<232.072 367.075 512.322 644.933>
VStem: 111 70<59 357.498> 389 70<59 356.187> 668 70<59 382.425>
AnchorPoint: "affricate-below" 839 -195 basechar 0
AnchorPoint: "affricate-above" 839 695 basechar 0
AnchorPoint: "below" 424 0 basechar 0
AnchorPoint: "above" 424 466 basechar 0
LayerCount: 2
Fore
SplineSet
28 0 m 1
 28 59 l 1
 111 59 l 1
 111 363 l 2
 111 386 109 391 43 391 c 2
 28 391 l 1
 28 450 l 1xdc
 176 464 l 1
 176 397 l 1
 214 441 264 464 323 464 c 0
 392 464 433 440 450 392 c 1
 466 409 511 464 602 464 c 0
 729 464 738 383 738 317 c 2
 738 59 l 1
 821 59 l 1
 821 0 l 1
 584 0 l 1
 584 59 l 1
 668 59 l 1
 668 314 l 2
 668 354 664 405 569 405 c 0xbc
 503 405 459 353 459 273 c 2
 459 59 l 1
 543 59 l 1
 543 0 l 1
 306 0 l 1
 306 59 l 1
 389 59 l 1
 389 314 l 2
 389 353 386 405 291 405 c 0xbc
 225 405 181 353 181 273 c 2
 181 59 l 1
 264 59 l 1
 264 0 l 1
 28 0 l 1
EndSplineSet
Substitution2: "LC small to smallcaps subtable" M.sc
EndChar

StartChar: n
Encoding: 110 110 120
Width: 561
Flags: HW
TeX: 458 0
HStem: -0 59<28 111 181 264 306 389 459 542> 391 59<28 102> 405 59<232.03 366.061>
VStem: 111 70<59 357.498> 389 70<59 382.978>
AnchorPoint: "affricate-below" 561 -195 basechar 0
AnchorPoint: "affricate-above" 561 695 basechar 0
AnchorPoint: "below" 285 0 basechar 0
AnchorPoint: "above" 285 466 basechar 0
LayerCount: 2
Fore
SplineSet
28 -0 m 1
 28 59 l 1
 111 59 l 1
 111 363 l 2
 111 386 109 391 43 391 c 2
 28 391 l 1
 28 450 l 1xd8
 176 464 l 1
 176 397 l 1
 214 441 264 464 322 464 c 0
 451 464 459 382 459 317 c 2
 459 59 l 1
 542 59 l 1
 542 -0 l 1
 306 -0 l 1
 306 59 l 1
 389 59 l 1
 389 314 l 2
 389 353 386 405 291 405 c 0xb8
 225 405 181 353 181 273 c 2
 181 59 l 1
 264 59 l 1
 264 -0 l 1
 28 -0 l 1
EndSplineSet
Substitution2: "LC small to smallcaps subtable" N.sc
EndChar

StartChar: o
Encoding: 111 111 121
Width: 500
Flags: HW
TeX: 458 0
HStem: -5 61<170.129 327.744> 408 58<169.138 328.915>
VStem: 31 75<128.339 340.68> 391 76<125.549 338.155>
AnchorPoint: "ogonek" 249 0 basechar 0
AnchorPoint: "affricate-below" 500 -195 basechar 0
AnchorPoint: "affricate-above" 500 695 basechar 0
AnchorPoint: "below" 249 0 basechar 0
AnchorPoint: "above" 248 466 basechar 0
LayerCount: 2
Fore
SplineSet
31 227 m 0
 31 373 118 466 249 466 c 0
 378 466 467 373 467 228 c 0
 467 81 376 -5 249 -5 c 0
 121 -5 31 83 31 227 c 0
106 239 m 0
 106 107 164 56 249 56 c 0
 335 56 391 108 391 238 c 0
 391 386 306 408 249 408 c 0
 135 408 106 323 106 239 c 0
EndSplineSet
Substitution2: "LC small to smallcaps subtable" O.sc
EndChar

StartChar: p
Encoding: 112 112 122
Width: 561
Flags: HW
TeX: 458 194
HStem: -195 59<24 107 177 260> -5 58<235.709 374.188> 391 59<24 99> 402 61<236.803 382.049>
VStem: 107 70<-136 55 106.177 357.959> 447 76<129.481 328.177>
AnchorPoint: "affricate-below" 561 -195 basechar 0
AnchorPoint: "affricate-above" 561 695 basechar 0
AnchorPoint: "below" 314 -195 basechar 0
AnchorPoint: "above" 314 466 basechar 0
LayerCount: 2
Fore
SplineSet
24 -136 m 1
 107 -136 l 1
 107 365 l 1
 106 388 100 391 42 391 c 2
 24 391 l 1
 24 450 l 1xec
 174 464 l 1
 174 408 l 1
 233 450 301 463 357 463 c 0
 468 463 523 362 523 231 c 0
 523 52 418 -5 333 -5 c 0
 266 -5 215 22 177 55 c 1
 177 -136 l 1
 260 -136 l 1
 260 -195 l 1
 24 -195 l 1
 24 -136 l 1
177 163 m 2xdc
 177 118 227 53 301 53 c 0
 370 53 447 103 447 229 c 0
 447 355 376 402 309 402 c 0
 251 402 177 365 177 311 c 2
 177 163 l 2xdc
EndSplineSet
Substitution2: "LC small to smallcaps subtable" P.sc
EndChar

StartChar: q
Encoding: 113 113 123
Width: 533
Flags: HW
TeX: 458 194
HStem: -195 59<299 382 452 536> -5 58<179.189 313.995> 402 62<183.669 320.885>
VStem: 37 76<127.488 327.223> 382 70<-136 65 116.27 348.936> 397 55<396 464>
AnchorPoint: "affricate-below" 533 -195 basechar 0
AnchorPoint: "affricate-above" 533 695 basechar 0
AnchorPoint: "below" 244 -195 basechar 0
AnchorPoint: "above" 244 466 basechar 0
LayerCount: 2
Fore
SplineSet
37 227 m 0
 37 407 140 464 223 464 c 0
 305 464 360 424 391 396 c 1
 397 464 l 1
 452 464 l 1xf4
 452 -136 l 1
 536 -136 l 1
 536 -195 l 1
 299 -195 l 1
 299 -136 l 1
 382 -136 l 1
 382 65 l 1xf8
 342 27 289 -5 217 -5 c 0
 113 -5 37 81 37 227 c 0
113 229 m 0
 113 113 175 53 249 53 c 0
 331 53 385 134 385 189 c 2
 385 285 l 2xf0
 385 330 339 402 259 402 c 0
 194 402 113 358 113 229 c 0
EndSplineSet
Substitution2: "LC small to smallcaps subtable" Q.sc
EndChar

StartChar: r
Encoding: 114 114 124
Width: 392
Flags: HW
TeX: 458 0
HStem: -0 59<24 107 174 279> 366 97<289.237 348.025> 391 59<24 96.5>
VStem: 107 67<59 336.891> 285 78<370.211 405>
AnchorPoint: "affricate-below" 392 -195 basechar 0
AnchorPoint: "affricate-above" 392 695 basechar 0
AnchorPoint: "below" 152 0 basechar 0
AnchorPoint: "above" 206 466 basechar 0
LayerCount: 2
Fore
SplineSet
24 -0 m 1
 24 59 l 1
 107 59 l 1
 107 363 l 2
 107 386 105 391 39 391 c 2
 24 391 l 1
 24 450 l 1xb8
 169 464 l 1
 169 394 l 1
 200 435 238 463 291 463 c 0xd8
 332 463 363 438 363 405 c 0
 363 381 344 366 324 366 c 0xd8
 312 366 287 374 285 405 c 1
 267 402 232 395 203 350 c 0
 177 310 174 271 174 228 c 2
 174 59 l 1
 279 59 l 1
 279 -0 l 1
 24 -0 l 1
EndSplineSet
Substitution2: "LC small to smallcaps subtable" R.sc
EndChar

StartChar: s
Encoding: 115 115 125
Width: 394
Flags: HW
TeX: 458 0
HStem: -5 58<138.328 271.316> 411 55<114.644 249.474>
VStem: 33 65<95.5634 180.196 307.671 393.002> 275 61<309.231 385.931> 296 65<76.5526 176.875>
AnchorPoint: "affricate-below" 394 -195 basechar 0
AnchorPoint: "affricate-above" 394 695 basechar 0
AnchorPoint: "below" 201 0 basechar 0
AnchorPoint: "above" 192 466 basechar 0
LayerCount: 2
Fore
SplineSet
33 21 m 2
 33 160 l 2
 33 175 35 181 59 181 c 0
 98 181 89 175 101 137 c 0
 127 53 181 53 200 53 c 0
 280 53 296 98 296 128 c 0xe8
 296 197 207 206 193 209 c 0
 175 213 33 229 33 341 c 0
 33 391 58 466 192 466 c 0
 231 466 259 458 289 435 c 1
 302 454 308 466 321 466 c 0
 337 466 336 454 336 441 c 2
 336 337 l 2xf0
 336 312 334 309 304 309 c 0
 273 309 280 317 275 341 c 0xf0
 272 360 257 411 186 411 c 0
 113 411 98 374 98 349 c 0
 98 284 199 284 254 267 c 0
 294 254 361 213 361 133 c 0
 361 78 336 -5 201 -5 c 0
 141 -5 112 17 86 43 c 1
 77 27 64 -5 48 -5 c 0
 45 -5 41 -4 37 -1 c 0
 32 3 33 13 33 21 c 2
EndSplineSet
Substitution2: "LC small to smallcaps subtable" S.sc
EndChar

StartChar: t
Encoding: 116 116 126
Width: 389
Flags: HW
TeX: 649 0
HStem: -5 61<184.04 258.69> 400 58<18 69.3098 173 316> 635 20G<113.5 173>
VStem: 103 70<66.8409 400> 114 59<513.497 655> 274 59<80.896 192>
AnchorPoint: "affricate-below" 389 -195 basechar 0
AnchorPoint: "affricate-above" 389 695 basechar 0
AnchorPoint: "below" 171 0 basechar 0
AnchorPoint: "above" 138 655 basechar 0
LayerCount: 2
Fore
SplineSet
18 400 m 1
 18 458 l 1
 84 463 113 519 114 655 c 1
 173 655 l 1
 173 458 l 1xec
 316 458 l 1
 316 400 l 1
 173 400 l 1
 173 138 l 2
 173 111 173 56 222 56 c 0
 232 56 248 59 261 80 c 0
 273 99 274 122 274 144 c 2
 274 192 l 1
 333 192 l 1xf4
 333 137 l 2
 333 22 234 -5 193 -5 c 0
 103 -5 103 94 103 135 c 2
 103 400 l 1xf4
 18 400 l 1
EndSplineSet
Substitution2: "LC small to smallcaps subtable" T.sc
EndChar

StartChar: u
Encoding: 117 117 127
Width: 561
Flags: HW
TeX: 458 0
HStem: -5 58<194.837 330.123 460.048 542> 391 59<28 104.5 306 382.5> 444 20G<28 181 306 459>
VStem: 111 70<68.0783 388.973> 389 70<103.982 389.001>
AnchorPoint: "ogonek" 426 0 basechar 0
AnchorPoint: "affricate-below" 561 -195 basechar 0
AnchorPoint: "affricate-above" 561 695 basechar 0
AnchorPoint: "below" 285 0 basechar 0
AnchorPoint: "above" 285 466 basechar 0
LayerCount: 2
Fore
SplineSet
28 391 m 1
 28 450 l 1xd8
 181 464 l 1
 181 136 l 2
 181 81 187 53 265 53 c 0xb8
 315 53 389 79 389 183 c 2
 389 359 l 2
 389 387 389 391 320 391 c 2
 306 391 l 1
 306 450 l 1xd8
 459 464 l 1xb8
 459 89 l 2
 459 62 462 59 527 59 c 2
 542 59 l 1
 542 -0 l 1
 392 -5 l 1
 392 60 l 1
 379 47 327 -5 229 -5 c 0
 117 -5 111 73 111 131 c 2
 111 364 l 2
 111 387 104 391 48 391 c 2
 28 391 l 1
EndSplineSet
Substitution2: "LC small to smallcaps subtable" U.sc
EndChar

StartChar: v
Encoding: 118 118 128
Width: 533
Flags: HW
TeX: 458 0
ItalicCorrection: 13
HStem: -4 21G<253 280> 400 58<20 103.849 164 231 310 377 428.976 513>
DStem2: 164 400 97 400 0.326148 -0.945319<0 333.292> 270 84 306 25 0.327543 0.944836<0 333.615>
AnchorPoint: "affricate-below" 533 -195 basechar 0
AnchorPoint: "affricate-above" 533 695 basechar 0
AnchorPoint: "below" 267 0 basechar 0
AnchorPoint: "above" 266 466 basechar 0
LayerCount: 2
Fore
SplineSet
20 400 m 1
 20 458 l 1
 231 458 l 1
 231 400 l 1
 164 400 l 1
 253 140 l 1
 270 84 l 1
 285 131 l 1
 377 400 l 1
 310 400 l 1
 310 458 l 1
 513 458 l 1
 513 400 l 1
 436 400 l 1
 425 364 411 329 399 294 c 2
 306 25 l 2
 297 0 291 -4 269 -4 c 2
 265 -4 l 2
 241 -4 235 0 225 29 c 2
 135 290 l 2
 122 327 109 363 97 400 c 1
 20 400 l 1
EndSplineSet
Substitution2: "LC small to smallcaps subtable" V.sc
EndChar

StartChar: w
Encoding: 119 119 129
Width: 728
Flags: HW
TeX: 458 0
ItalicCorrection: 13
HStem: -4 21G<229.5 256 470 499.5> 400 58<19 90 157 226 261 332 390 459 501 579 637 708>
DStem2: 157 400 90 400 0.293002 -0.956112<0 328.502> 390 400 357 315 0.285121 -0.958492<72.0628 329.685> 484 84 524 30 0.292087 0.956392<0 329.968>
AnchorPoint: "affricate-below" 728 -195 basechar 0
AnchorPoint: "affricate-above" 728 695 basechar 0
AnchorPoint: "below" 362 0 basechar 0
AnchorPoint: "above" 363 466 basechar 0
LayerCount: 2
Fore
SplineSet
19 400 m 1
 19 458 l 1
 226 458 l 1
 226 400 l 1
 157 400 l 1
 210 222 241 121 247 84 c 1
 257 147 332 374 333 389 c 0
 333 392 332 397 332 400 c 1
 261 400 l 1
 261 458 l 1
 459 458 l 1
 459 400 l 1
 390 400 l 1
 484 84 l 1
 579 400 l 1
 501 400 l 1
 501 458 l 1
 708 458 l 1
 708 400 l 1
 637 400 l 1
 524 30 l 2
 516 5 514 -4 485 -4 c 2
 480 -4 l 2
 460 -4 453 2 447 22 c 0
 375 256 367 286 357 315 c 1
 348 255 324 167 280 22 c 0
 273 2 266 -4 246 -4 c 2
 240 -4 l 2
 219 -4 213 -1 204 28 c 2
 90 400 l 1
 19 400 l 1
EndSplineSet
Substitution2: "LC small to smallcaps subtable" W.sc
EndChar

StartChar: x
Encoding: 120 120 130
Width: 533
Flags: HW
TeX: 458 0
HStem: 0 59<14 104 172 220 311 359 427 518> 400 58<20 111 179 227 295 344 397.433 502>
DStem2: 104 59 172 59 0.575553 0.817765<39.1376 199.216 276.903 414.941> 179 400 111 400 0.588172 -0.808736<0 142.411 219.829 381.65>
AnchorPoint: "affricate-below" 533 -195 basechar 0
AnchorPoint: "affricate-above" 533 695 basechar 0
AnchorPoint: "below" 266 0 basechar 0
AnchorPoint: "above" 266 466 basechar 0
LayerCount: 2
Fore
SplineSet
14 0 m 1
 14 59 l 1
 104 59 l 1
 229 237 l 1
 111 400 l 1
 20 400 l 1
 20 458 l 1
 227 458 l 1
 227 400 l 1
 179 400 l 1
 263 285 l 1
 264 285 l 1
 344 400 l 1
 295 400 l 1
 295 458 l 1
 502 458 l 1
 502 400 l 1
 427 400 l 1
 408 399 418 407 298 238 c 1
 298 236 l 1
 427 59 l 1
 518 59 l 1
 518 0 l 1
 311 0 l 1
 311 59 l 1
 359 59 l 1
 264 190 l 1
 172 59 l 1
 220 59 l 1
 220 0 l 1
 14 0 l 1
EndSplineSet
Substitution2: "LC small to smallcaps subtable" X.sc
EndChar

StartChar: y
Encoding: 121 121 131
Width: 533
Flags: HW
TeX: 458 194
ItalicCorrection: 13
HStem: -200 59<98.7394 174.353> 400 58<20 97 164 231 310 377 436 513>
VStem: 23 77<-139.767 -92.01>
DStem2: 164 400 97 400 0.328808 -0.944397<0 333.283> 230 -19 282 -39 0.331021 0.943624<-117.006 18.4187 110.434 444.038>
AnchorPoint: "affricate-below" 533 -195 basechar 0
AnchorPoint: "affricate-above" 533 695 basechar 0
AnchorPoint: "below" 266 -195 basechar 0
AnchorPoint: "above" 266 466 basechar 0
LayerCount: 2
Fore
SplineSet
20 400 m 1
 20 458 l 1
 231 458 l 1
 231 400 l 1
 164 400 l 1
 184 345 261 120 270 84 c 1
 311 209 l 1
 377 400 l 1
 310 400 l 1
 310 458 l 1
 513 458 l 1
 513 400 l 1
 436 400 l 1
 282 -39 l 2
 266 -86 251 -130 204 -167 c 0
 179 -187 146 -200 114 -200 c 0
 67 -200 23 -170 23 -127 c 0
 23 -103 40 -88 61 -88 c 0
 80 -88 100 -102 100 -127 c 0
 100 -132 99 -135 98 -140 c 1
 103 -140 107 -141 112 -141 c 0
 201 -141 220 -49 230 -19 c 0
 233 -11 235 -6 235 -1 c 0
 235 4 233 9 230 18 c 2
 97 400 l 1
 20 400 l 1
EndSplineSet
Substitution2: "LC small to smallcaps subtable" Y.sc
EndChar

StartChar: z
Encoding: 122 122 132
Width: 446
Flags: HW
TeX: 458 0
HStem: -0 61<126 326.226> 400 58<111.094 301>
DStem2: 41 260 100 260 0.05547 0.99846<3.27273 139.318> 46 71 126 61 0.612609 0.790386<41.1049 416.252> 333 117 402 223 0.0760126 0.997107<-52.5805 106.453>
AnchorPoint: "affricate-below" 446 -195 basechar 0
AnchorPoint: "affricate-above" 446 695 basechar 0
AnchorPoint: "below" 214 0 basechar 0
AnchorPoint: "above" 214 466 basechar 0
LayerCount: 2
Fore
SplineSet
27 29 m 0
 27 50 34 56 46 71 c 2
 301 400 l 1
 216 400 l 2
 112 400 112 398 106 350 c 0
 103 320 102 290 100 260 c 1
 41 260 l 1
 52 458 l 1
 371 458 l 2
 389 458 399 455 399 431 c 0
 399 410 391 404 379 388 c 2
 126 61 l 1
 204 61 l 2
 328 61 326 61 333 117 c 0
 338 152 340 188 343 223 c 1
 402 223 l 1
 385 -0 l 1
 54 -0 l 2
 27 0 27 12 27 29 c 0
EndSplineSet
Substitution2: "LC small to smallcaps subtable" Z.sc
EndChar

StartChar: braceleft
Encoding: 123 123 133
Width: 500
Flags: HW
TeX: 750 250
HStem: -250 57<315.695 445> 220 65<54.291 154.756> 690 60<311.436 444.979>
VStem: 215 70<-163.215 168.983 331.356 665.554>
LayerCount: 2
Fore
SplineSet
54 242 m 2
 54 255 l 2
 54 288 62 275 109 285 c 0
 163 297 204 329 213 370 c 0
 215 380 215 390 215 401 c 2
 215 610 l 2
 215 635 214 674 259 709 c 0
 300 741 351 750 405 750 c 2
 419 750 l 2
 447 750 445 744 445 723 c 2
 445 712 l 2
 445 685 433 693 395 690 c 0
 310 683 285 660 285 615 c 2
 285 403 l 2
 285 365 281 334 249 300 c 0
 228 277 198 259 166 250 c 1
 276 218 285 135 285 107 c 2
 285 -113 l 2
 285 -124 286 -137 291 -147 c 0
 317 -198 426 -188 437 -193 c 0
 444 -196 445 -205 445 -215 c 2
 445 -229 l 2
 445 -247 438 -249 426 -250 c 1
 411 -250 l 2
 317 -250 215 -223 215 -114 c 2
 215 99 l 2
 215 111 215 123 212 135 c 0
 197 190 132 216 77 220 c 0
 60 221 54 222 54 242 c 2
EndSplineSet
EndChar

StartChar: bar
Encoding: 124 124 134
Width: 278
Flags: HW
TeX: 750 250
VStem: 118 40<-248.985 748.985>
LayerCount: 2
Fore
SplineSet
118 -219 m 2
 118 712 l 2
 118 728 118 749 138 749 c 0
 146 749 158 745 158 719 c 2
 158 -212 l 2
 158 -228 158 -249 138 -249 c 0
 120 -249 118 -231 118 -219 c 2
EndSplineSet
EndChar

StartChar: braceright
Encoding: 125 125 135
Width: 500
Flags: HW
TeX: 750 250
HStem: -250 60<54.0554 186.542> 215 65<344.632 444.716> 690 60<54.094 189.109>
VStem: 215 70<-162.034 167.311 332.028 664.579>
LayerCount: 2
Fore
SplineSet
54 -215 m 2
 54 -186 62 -193 104 -190 c 0
 211 -181 215 -144 215 -114 c 2
 215 102 l 2
 215 127 213 209 334 250 c 1
 220 288 215 364 215 395 c 2
 215 613 l 2
 215 638 212 660 175 676 c 0
 143 689 118 691 99 691 c 0
 91 691 85 690 79 690 c 0
 62 690 54 693 54 715 c 2
 54 729 l 2
 54 744 58 750 74 750 c 2
 89 750 l 2
 130 750 192 746 239 710 c 0
 284 676 285 633 285 614 c 2
 285 401 l 2
 285 389 285 377 288 366 c 0
 300 320 351 285 424 280 c 0
 446 278 445 272 445 253 c 2
 445 244 l 2
 445 212 435 225 390 215 c 0
 336 203 296 171 287 130 c 0
 285 120 285 110 285 99 c 2
 285 -118 l 2
 285 -224 173 -250 99 -250 c 2
 75 -250 l 2
 58 -250 54 -248 54 -227 c 2
 54 -215 l 2
EndSplineSet
EndChar

StartChar: asciitilde
Encoding: 126 126 136
Width: 611
Flags: HW
TeX: 694 0
HStem: 558 86<318.181 451.043> 608 86<158.522 292.353>
LayerCount: 2
Fore
SplineSet
83 595 m 1
 124 647 152 694 211 694 c 0x40
 269 694 334 644 392 644 c 0
 437 644 462 674 481 695 c 1
 527 658 l 1
 486 605 458 558 399 558 c 0x80
 341 558 277 608 219 608 c 0x40
 174 608 148 579 129 558 c 1x80
 83 595 l 1
EndSplineSet
EndChar

StartChar: Abreve
Encoding: 258 258 138
Width: 739
Flags: HW
TeX: 891 0
HStem: 0 59<34 119 181 254 469 543 619 704> 214 59<255 469> 675 20<352.5 380.5> 753 62<292.338 446.887>
VStem: 201 59<846.932 891> 479 59<847.639 891>
DStem2: 119 59 181 59 0.325212 0.945641<20.1632 183.974 246.596 574.542> 409 670 362 583 0.325037 -0.945701<66.9993 394.946 457.243 621.378>
AnchorPoint: "below" 369 0 basechar 0
AnchorPoint: "above" 369 870 basechar 0
LayerCount: 2
Fore
SplineSet
201 891 m 1
 260 891 l 1
 267 822 344 815 369 815 c 0
 393 815 472 822 479 891 c 1
 538 891 l 1
 534 799 449 753 369 753 c 0
 293 753 205 797 201 891 c 1
EndSplineSet
Refer: 75 65 S 1 0 0 1 -0 -0 3
AlternateSubs2: "Stilistic set 01 subtable" Abreve.vn
AlternateSubs2: "Latin alternatives subtable" Abreve.vn
Substitution2: "Latin Vietnamese substitutions subtable" Abreve.vn
Substitution2: "LC caps to smallcaps subtable" Abreve.sc
EndChar

StartChar: Aogonek
Encoding: 260 260 139
Width: 739
Flags: HW
TeX: 683 194
HStem: -205 68<593.862 665.564> 0 59<34 119 181 254 469 543 619 704> 214 59<255 469> 675 20G<352.5 380.5>
VStem: 507 78<-130.054 -30.1995>
DStem2: 119 59 181 59 0.325212 0.945641<20.1632 183.974 246.596 574.542> 409 670 362 583 0.325037 -0.945701<66.9993 394.946 457.243 621.378>
AnchorPoint: "above" 369 694 basechar 0
LayerCount: 2
Fore
SplineSet
34 0 m 1
 34 59 l 1
 119 59 l 1
 325 658 l 2
 335 688 339 695 366 695 c 2
 372 695 l 2
 389 695 400 694 409 670 c 2
 619 59 l 1
 704 59 l 1
 704 0 l 1
 655 0 l 2
 605 0 585 -53 585 -80 c 0
 585 -112 604 -137 623 -137 c 0
 639 -137 648 -119 660 -119 c 0
 673 -119 697 -137 697 -149 c 0
 697 -164 662 -205 611 -205 c 0
 559 -205 507 -157 507 -97 c 0
 507 -57 525 -30 554 0 c 1
 469 0 l 1
 469 59 l 1
 543 59 l 1
 489 214 l 1
 234 214 l 1
 181 59 l 1
 254 59 l 1
 254 0 l 1
 34 0 l 1
255 273 m 1
 469 273 l 1
 362 583 l 1
 255 273 l 1
EndSplineSet
Substitution2: "LC caps to smallcaps subtable" Aogonek.sc
Ligature2: "Latin ligatures subtable" A uni0328
EndChar

StartChar: Cacute
Encoding: 262 262 140
Width: 722
Flags: HW
TeX: 855 0
HStem: -11 59<300.34 503.822> 635 59<297.22 497.669>
VStem: 55 78<211.533 469.271> 606 60<147.625 241.967 429.258 514.766>
AnchorPoint: "below" 390 0 basechar 0
AnchorPoint: "above" 388 840 basechar 0
LayerCount: 2
Fore
SplineSet
306 780 m 1
 466 859 466 860 477 860 c 2
 478 860 l 2
 499 860 512 840 512 824 c 0
 512 799 489 792 471 784 c 0
 359 737 344 731 330 726 c 1
 306 780 l 1
EndSplineSet
Refer: 77 67 S 1 0 0 1 0 0 3
Substitution2: "LC caps to smallcaps subtable" Cacute.sc
EndChar

StartChar: Ccaron
Encoding: 268 268 141
Width: 722
Flags: HW
TeX: 891 0
HStem: -11 59<300.34 503.822> 635 59<297.22 497.669> 781 68<389.314 451.694>
VStem: 55 78<211.533 469.271> 606 60<147.625 241.967 429.258 514.766>
AnchorPoint: "below" 390 0 basechar 0
AnchorPoint: "above" 388 903 basechar 0
LayerCount: 2
Fore
SplineSet
287 885 m 1
 316 923 l 1
 409 854 412 849 420 849 c 0
 428 849 438 859 525 923 c 1
 554 885 l 1
 427 782 428 781 420 781 c 0
 413 781 413 783 287 885 c 1
EndSplineSet
Refer: 77 67 S 1 0 0 1 -0 0 3
Substitution2: "LC caps to smallcaps subtable" Ccaron.sc
EndChar

StartChar: Dcaron
Encoding: 270 270 142
Width: 758
Flags: HW
TeX: 891 0
HStem: 0 59<49 138 210 486.571> 625 58<49 138 210 480.24> 781 68<304.179 366.707>
VStem: 138 72<59 625> 626 76<204.088 474.542>
AnchorPoint: "below" 354 0 basechar 0
AnchorPoint: "above" 354 914 basechar 0
LayerCount: 2
Fore
SplineSet
202 885 m 1
 231 923 l 1
 324 854 328 849 336 849 c 0
 344 849 353 859 440 923 c 1
 469 885 l 1
 342 782 344 781 336 781 c 2
 335 781 l 2
 328 781 328 783 202 885 c 1
EndSplineSet
Refer: 78 68 S 1 0 0 1 -0 0 3
Substitution2: "LC caps to smallcaps subtable" Dcaron.sc
EndChar

StartChar: Ecaron
Encoding: 282 282 143
Width: 675
Flags: HW
TeX: 891 0
HStem: 0 59<48 137 212 546.526> 324 59<212 396.871> 622 58<48 137 212 532.318> 781 68<275.179 337.707>
VStem: 137 75<59 324 383 622> 401 58<207 320.16 386.84 500> 560 59<427 490.25> 588 59<237.5 285>
AnchorPoint: "below" 348 0 basechar 0
AnchorPoint: "above" 348 917 basechar 0
LayerCount: 2
Fore
SplineSet
173 885 m 1
 202 923 l 1
 295 854 299 849 307 849 c 0xfc
 315 849 324 859 411 923 c 1
 440 885 l 1
 313 782 315 781 307 781 c 2
 306 781 l 2
 299 781 299 783 173 885 c 1
EndSplineSet
Refer: 79 69 S 1 0 0 1 -0 0 3
Substitution2: "LC caps to smallcaps subtable" Ecaron.sc
EndChar

StartChar: Eogonek
Encoding: 280 280 144
Width: 675
Flags: HW
TeX: 683 194
HStem: -205 68<486.824 558.134> -0 59<48 137 212 447 501.606 546.526> 324 59<212 397.066> 622 58<48 137 212 532.318>
VStem: 137 75<59 324 383 622> 400 77<-129.635 -29.5288> 401 58<207 320.16 386.84 500> 560 59<427 490.25> 588 59<237.5 285>
AnchorPoint: "above" 320 694 basechar 0
LayerCount: 2
Fore
SplineSet
48 -0 m 1
 48 59 l 1
 137 59 l 1
 137 622 l 1
 48 622 l 1
 48 680 l 1
 591 680 l 1
 619 427 l 1
 560 427 l 1
 554 481 546 554 537 588 c 0
 529 617 524 622 360 622 c 2
 212 622 l 1
 212 383 l 1
 289 383 l 2
 401 383 396 384 399 425 c 0
 400 447 401 468 401 490 c 2
 401 500 l 1
 459 500 l 1
 459 207 l 1
 401 207 l 1
 401 217 l 2xfb
 401 239 400 260 399 282 c 0
 396 323 400 324 295 324 c 2
 212 324 l 1
 212 59 l 1
 372 59 l 2
 444 59 488 60 516 65 c 0
 555 72 556 74 588 285 c 1
 647 285 l 1
 605 -0 l 1
 545 -0 l 2
 526 0 521 -1 503 -20 c 0
 488 -36 477 -56 477 -80 c 0
 477 -111 497 -137 515 -137 c 0
 530 -137 539 -119 552 -119 c 0
 563 -119 589 -135 589 -149 c 0xfc80
 589 -166 553 -205 504 -205 c 0
 452 -205 400 -157 400 -97 c 0xfc80
 400 -57 419 -28 447 -0 c 1
 48 -0 l 1
EndSplineSet
Substitution2: "LC caps to smallcaps subtable" Eogonek.sc
EndChar

StartChar: Gbreve
Encoding: 286 286 145
Width: 782
Flags: HW
TeX: 891 0
HStem: -11 59<297.243 549.38> 233 58<465 590 666 735> 635 59<294.492 538.131> 753 62<315.338 469.761>
VStem: 55 78<212.945 467.83> 224 59<846.932 891> 502 58<847.639 891> 590 76<82.0971 233>
LayerCount: 2
Fore
SplineSet
55 342 m 0
 55 551 185 694 395 694 c 0
 516 694 576 658 597 645 c 1
 633 686 637 689 642 691 c 0
 645 692 649 693 652 693 c 0
 659 693 666 689 666 675 c 2
 666 558 l 2
 666 538 662 535 636 535 c 0
 626 535 615 536 611 540 c 0
 602 550 597 635 420 635 c 0
 260 635 133 547 133 341 c 0
 133 157 237 48 424 48 c 0
 552 48 591 84 591 137 c 0
 591 141 590 145 590 149 c 2
 590 233 l 1
 465 233 l 1
 465 291 l 1
 735 291 l 1
 735 233 l 1
 666 233 l 1
 666 19 l 2
 666 7 663 3 658 3 c 0
 647 3 626 31 615 48 c 1
 596 32 546 -11 397 -11 c 0
 184 -11 55 133 55 342 c 0
224 891 m 1
 283 891 l 1
 290 822 367 815 392 815 c 0
 416 815 495 822 502 891 c 1
 560 891 l 1
 556 799 472 753 392 753 c 0
 316 753 228 797 224 891 c 1
EndSplineSet
Substitution2: "LC caps to smallcaps subtable" Gbreve.sc
EndChar

StartChar: Lacute
Encoding: 313 313 146
Width: 619
Flags: HW
TeX: 855 0
HStem: 0 59<48 137 212 486.272> 625 58<48 137 212 323>
VStem: 137 75<59 625> 518 59<213.75 285>
LayerCount: 2
Fore
SplineSet
83 780 m 1
 229 852 241 860 254 860 c 0
 275 860 288 840 288 824 c 0
 288 799 262 790 247 784 c 0
 135 737 121 731 107 726 c 1
 83 780 l 1
EndSplineSet
Refer: 86 76 S 1 0 0 1 0 0 3
Substitution2: "LC caps to smallcaps subtable" Lacute.sc
EndChar

StartChar: Lcaron
Encoding: 317 317 147
Width: 619
Flags: HW
TeX: 891 0
HStem: -0 59<48 137 212 486.272> 625 58<48 137 212 323> 668 105<398.66 448.344>
VStem: 137 75<59 625> 389 119<678.128 750.789> 518 59<213.75 285>
LayerCount: 2
Fore
SplineSet
389 721 m 0
 389 749 410 773 441 773 c 0
 481 773 508 733 508 682 c 0
 508 599 445 541 429 541 c 0
 419 541 394 567 394 576 c 0
 394 592 437 598 449 668 c 1
 445 668 l 2xbc
 400 668 389 701 389 721 c 0
EndSplineSet
Refer: 86 76 S 1 0 0 1 -0 -0 3
Substitution2: "LC caps to smallcaps subtable" Lcaron.sc
EndChar

StartChar: Lslash
Encoding: 321 321 148
Width: 619
Flags: HW
TeX: 683 0
HStem: -0 59<48 137 212 486.272> 625 58<48 137 212 323>
VStem: 137 75<59 284 343.958 366.033 426 625> 518 59<213.75 285>
DStem2: 57 293 95 248 0.758502 0.651671<0 52.4766 208.167 373.92>
LayerCount: 2
Fore
SplineSet
48 -0 m 1
 48 59 l 1
 137 59 l 1
 137 284 l 1
 95 248 l 1
 57 293 l 1
 138 363 136 358 137 376 c 1
 137 625 l 1
 48 625 l 1
 48 683 l 1
 323 683 l 1
 323 625 l 1
 212 625 l 1
 212 426 l 1
 341 537 l 1
 379 492 l 1
 205 343 213 353 212 334 c 1
 212 59 l 1
 340 59 l 1
 472 62 485 64 494 100 c 0
 504 139 512 223 518 285 c 1
 577 285 l 1
 549 -0 l 1
 48 -0 l 1
EndSplineSet
Substitution2: "LC caps to smallcaps subtable" Lslash.sc
EndChar

StartChar: Nacute
Encoding: 323 323 149
Width: 739
Flags: HW
TeX: 855 0
HStem: 0 59<50 139 198 287> 625 58<50 139 452 541 600 689>
VStem: 139 59<59 568> 541 59<140 625>
DStem2: 218 664 198 568 0.523837 -0.851818<71.2978 615.552>
LayerCount: 2
Fore
SplineSet
274 780 m 1
 420 852 432 860 445 860 c 0
 466 860 479 840 479 824 c 0
 479 799 453 790 438 784 c 0
 326 737 312 731 298 726 c 1
 274 780 l 1
EndSplineSet
Refer: 88 78 S 1 0 0 1 0 0 3
Substitution2: "LC caps to smallcaps subtable" Nacute.sc
EndChar

StartChar: Ncaron
Encoding: 327 327 150
Width: 739
Flags: HW
TeX: 891 0
HStem: 0 59<50 139 198 287> 625 58<50 139 452 541 600 689> 781 68<338.179 400.707>
VStem: 139 59<59 568> 541 59<140 625>
DStem2: 218 664 198 568 0.523837 -0.851818<71.2978 615.552>
LayerCount: 2
Fore
SplineSet
236 885 m 1
 265 923 l 1
 358 854 362 849 370 849 c 0
 378 849 387 859 474 923 c 1
 503 885 l 1
 376 782 378 781 370 781 c 2
 369 781 l 2
 362 781 362 783 236 885 c 1
EndSplineSet
Refer: 88 78 S 1 0 0 1 -0 0 3
Substitution2: "LC caps to smallcaps subtable" Ncaron.sc
EndChar

StartChar: Eng
Encoding: 330 330 151
Width: 786
Flags: HW
TeX: 683 0
HStem: -11 59<490.184 624.408> -0 59<48 137 212 301> 625 58<48 137> 649 59<328.647 530.905>
VStem: 137 75<59 552.317 618 625> 408 85<80.1465 150.572> 654 76<79.9424 538.857>
LayerCount: 2
Fore
SplineSet
48 -0 m 1
 48 59 l 1
 137 59 l 1
 137 625 l 1
 48 625 l 1
 48 683 l 1
 212 683 l 1x6e
 212 618 l 1
 228 634 302 708 438 708 c 0
 594 708 713 607 728 483 c 0
 730 469 730 455 730 441 c 2
 730 152 l 2
 730 22 633 -11 565 -11 c 0
 472 -11 408 47 408 111 c 0
 408 147 436 156 451 156 c 0
 473 156 493 140 493 114 c 0
 493 94 480 83 478 80 c 1
 487 71 512 48 563 48 c 0
 610 48 638 72 649 107 c 0
 654 123 654 140 654 157 c 2
 654 440 l 2
 654 472 655 539 582 598 c 0
 539 632 484 649 429 649 c 0x9e
 295 649 212 551 212 495 c 2
 212 59 l 1
 301 59 l 1
 301 -0 l 1
 48 -0 l 1
EndSplineSet
Substitution2: "LC caps to smallcaps subtable" Eng.sc
EndChar

StartChar: Ohungarumlaut
Encoding: 336 336 152
Width: 778
Flags: HW
TeX: 855 0
HStem: -11 63<282.176 492.395> 633 61<282.174 495.352>
VStem: 55 78<219.527 476.841> 418 205 643 78<215.198 476.683>
AnchorPoint: "below" 387 0 basechar 0
AnchorPoint: "above" 389 840 basechar 0
LayerCount: 2
Fore
SplineSet
251 780 m 1
 411 859 410 860 421 860 c 2
 422 860 l 2
 443 860 456 840 456 824 c 0
 456 799 433 792 415 784 c 0
 303 737 289 731 275 726 c 1
 251 780 l 1
EndSplineSet
Refer: 267 -1 S 1 0 0 1 223 225 2
Refer: 89 79 S 1 0 0 1 0 0 3
Substitution2: "LC caps to smallcaps subtable" Ohungarumlaut.sc
EndChar

StartChar: Racute
Encoding: 340 340 153
Width: 731
Flags: HW
TeX: 855 0
HStem: -11 59<586.205 661.217> 0 59<49 138 210 299> 312 59<210 433.125> 625 58<49 138 210 451.965>
VStem: 138 72<59 312 371 625> 489 78<69.1849 263.723> 526 78<429.677 565.674> 667 59<53.9575 111.68>
AnchorPoint: "below" 312 0 basechar 0
AnchorPoint: "above" 312 851 basechar 0
LayerCount: 2
Fore
SplineSet
273 780 m 1
 433 859 433 860 444 860 c 0x39
 465 860 478 840 478 824 c 0
 478 799 456 792 438 784 c 0
 326 737 311 731 297 726 c 1
 273 780 l 1
EndSplineSet
Refer: 92 82 S 1 0 0 1 0 0 3
Substitution2: "LC caps to smallcaps subtable" Racute.sc
EndChar

StartChar: Rcaron
Encoding: 344 344 154
Width: 731
Flags: HW
TeX: 891 0
HStem: -11 59<586.205 661.217> 0 59<49 138 210 299> 312 59<210 433.125> 625 58<49 138 210 451.965> 781 68<284.314 346.694>
VStem: 138 72<59 312 371 625> 489 78<69.1849 263.723> 526 78<429.677 565.674> 667 59<53.9575 111.68>
AnchorPoint: "below" 312 0 basechar 0
AnchorPoint: "above" 312 914 basechar 0
LayerCount: 2
Fore
SplineSet
182 885 m 1
 211 923 l 1
 304 854 307 849 315 849 c 0x3c80
 323 849 333 859 420 923 c 1
 449 885 l 1
 322 782 323 781 315 781 c 0
 308 781 308 783 182 885 c 1
EndSplineSet
Refer: 92 82 S 1 0 0 1 -0 0 3
Substitution2: "LC caps to smallcaps subtable" Rcaron.sc
EndChar

StartChar: Sacute
Encoding: 346 346 155
Width: 556
Flags: HW
TeX: 855 0
HStem: -11 59<203.53 380.25> 638 56<171.5 331.767>
VStem: 55 57<135.938 226.993> 55 68<457.873 590.026> 432 67<101.245 247.872>
DStem2: 189 420 361 292 0.956631 -0.291303<-49.6719 253.566>
AnchorPoint: "below" 302 0 basechar 0
AnchorPoint: "above" 248 840 basechar 0
LayerCount: 2
Fore
SplineSet
168 780 m 1
 328 859 327 860 338 860 c 2xc8
 339 860 l 2
 360 860 373 840 373 824 c 0
 373 799 350 792 332 784 c 0
 220 737 206 731 192 726 c 1
 168 780 l 1
EndSplineSet
Refer: 93 83 S 1 0 0 1 0 0 3
Substitution2: "LC caps to smallcaps subtable" Sacute.sc
EndChar

StartChar: Scaron
Encoding: 352 352 156
Width: 556
Flags: HW
TeX: 891 0
HStem: -11 59<203.53 380.25> 638 56<171.5 331.767> 781 68<245.795 308.323>
VStem: 55 57<135.938 226.993> 55 68<457.873 590.026> 432 67<101.245 247.872>
DStem2: 189 420 361 292 0.956631 -0.291303<-49.6719 253.566>
AnchorPoint: "below" 302 0 basechar 0
AnchorPoint: "above" 248 903 basechar 0
LayerCount: 2
Fore
SplineSet
144 885 m 1
 173 923 l 1
 266 854 269 849 277 849 c 0xe4
 285 849 295 859 382 923 c 1
 411 885 l 1
 284 782 285 781 277 781 c 2
 276 781 l 2
 269 781 270 783 144 885 c 1
EndSplineSet
Refer: 93 83 S 1 0 0 1 -0 0 3
Substitution2: "LC caps to smallcaps subtable" Scaron.sc
EndChar

StartChar: Scedilla
Encoding: 350 350 157
Width: 556
Flags: HW
TeX: 683 170
HStem: -210 58<186 337.125> -60 108<270.594 336.775> -11 21G<66 71.5> 638 56<171.28 331.767>
VStem: 55 68<458.177 590.122> 55 57<10.0043 61 135.938 226.993> 352 71<-134.44 -72.38> 432 67<100.982 247.739>
DStem2: 203 413 167 347 0.956631 -0.291303<-62.1857 243.329>
LayerCount: 2
Fore
SplineSet
55 9 m 2
 55 207 l 2
 55 223 59 226 75 227 c 1
 89 227 l 2
 97 227 108 228 112 219 c 0
 117 209 109 138 173 88 c 0
 213 57 263 48 301 48 c 0xd7
 406 48 432 126 432 175 c 0
 432 233 399 273 361 292 c 0
 330 308 204 331 167 347 c 0
 110 372 55 430 55 513 c 0
 55 618 130 694 249 694 c 0
 348 694 394 645 414 622 c 1
 441 686 442 694 457 694 c 0
 471 694 471 683 471 673 c 2
 471 475 l 1
 470 456 464 456 451 456 c 2
 442 456 l 2
 433 456 419 454 414 463 c 0
 407 476 403 638 249 638 c 0
 159 638 123 578 123 524 c 0
 123 469 160 429 203 413 c 0
 227 404 337 381 369 370 c 0
 435 347 499 282 499 184 c 0
 499 91 447 8 340 -8 c 1
 340 -11 l 1
 400 -32 423 -69 423 -107 c 0
 423 -211 273 -206 186 -210 c 1
 186 -152 l 1
 222 -151 352 -159 352 -106 c 0xbb
 352 -87 340 -62 270 -60 c 1xdb
 270 -9 l 1
 172 0 127 47 112 61 c 1
 107 48 87 -1 80 -7 c 0
 77 -9 73 -11 70 -11 c 0xb7
 62 -11 55 -4 55 9 c 2
EndSplineSet
Substitution2: "LC caps to smallcaps subtable" Scedilla.sc
EndChar

StartChar: Tcaron
Encoding: 356 356 158
Width: 722
Flags: HW
TeX: 891 0
HStem: 0 59<197 322 398 523> 619 59<112.844 322 398 606.209> 781 68<328.179 391.323>
VStem: 35 59<425 513.55> 322 76<59 619> 626 59<425 513.55>
CounterMasks: 1 1c
AnchorPoint: "below" 360 0 basechar 0
AnchorPoint: "above" 360 919 basechar 0
LayerCount: 2
Fore
SplineSet
226 885 m 1
 255 923 l 1
 348 854 352 849 360 849 c 0
 368 849 378 859 465 923 c 1
 494 885 l 1
 367 782 368 781 360 781 c 2
 359 781 l 2
 352 781 352 783 226 885 c 1
EndSplineSet
Refer: 94 84 S 1 0 0 1 -0 0 3
Substitution2: "LC caps to smallcaps subtable" Tcaron.sc
EndChar

StartChar: Tcommaaccent
Encoding: 354 354 159
Width: 722
Flags: HW
TeX: 683 170
HStem: -210 58<242 392.749> 0 59<197 322 398 523> 619 59<112.844 322 398 606.209>
VStem: 35 59<425 513.55> 322 76<-20.4553 0 59 619> 407 71<-134.179 -73.0932> 626 59<425 513.55>
LayerCount: 2
Fore
SplineSet
35 425 m 1
 55 678 l 1
 665 678 l 1
 685 425 l 1
 626 425 l 1
 611 609 612 607 584 613 c 0
 566 617 536 619 489 619 c 2
 398 619 l 1
 398 59 l 1
 523 59 l 1
 523 0 l 1
 395 0 l 1
 395 -11 l 1
 455 -31 478 -69 478 -107 c 0
 478 -213 317 -206 242 -210 c 1
 242 -152 l 1
 280 -150 407 -158 407 -105 c 0
 407 -87 394 -62 325 -60 c 1
 325 0 l 1
 197 0 l 1
 197 59 l 1
 322 59 l 1
 322 619 l 1
 231 619 l 2
 177 619 130 618 118 605 c 0
 110 597 108 593 94 425 c 1
 35 425 l 1
EndSplineSet
Substitution2: "LC caps to smallcaps subtable" Tcommaaccent.sc
EndChar

StartChar: Uhungarumlaut
Encoding: 368 368 160
Width: 739
Flags: HW
TeX: 855 0
HStem: -11 59<288.604 465.104> 625 58<48 137 213 302 453 543 601 690>
VStem: 137 76<129.19 625> 543 58<130.544 625>
AnchorPoint: "below" 373 0 basechar 0
AnchorPoint: "above" 369 851 basechar 0
LayerCount: 2
Fore
SplineSet
232 780 m 1
 378 852 390 860 403 860 c 0
 424 860 437 840 437 824 c 0
 437 799 411 790 396 784 c 0
 284 737 270 731 256 726 c 1
 232 780 l 1
398 780 m 1
 544 853 557 860 570 860 c 0
 591 860 604 840 604 824 c 0
 604 799 578 790 563 784 c 0
 451 737 437 731 423 726 c 1
 398 780 l 1
EndSplineSet
Refer: 95 85 S 1 0 0 1 0 0 3
Substitution2: "LC caps to smallcaps subtable" Uhungarumlaut.sc
EndChar

StartChar: Uring
Encoding: 366 366 161
Width: 739
Flags: HW
TeX: 891 0
HStem: -11 59<288.604 465.104> 625 58<48 137 213 302 453 543 601 690> 694 59<328.012 428.235> 841 58<326.384 427.762>
VStem: 137 76<129.19 625> 266 56<758.037 835.89> 433 56<758.614 835.209> 543 58<130.544 625>
LayerCount: 2
Fore
SplineSet
266 797 m 0
 266 857 310 899 378 899 c 0
 447 899 489 855 489 796 c 0
 489 736 445 694 377 694 c 0
 308 694 266 738 266 797 c 0
322 797 m 0
 322 759 345 753 375 753 c 2
 376 753 l 2
 403 753 433 755 433 797 c 0
 433 830 414 841 378 841 c 0
 341 841 322 832 322 797 c 0
EndSplineSet
Refer: 95 85 S 1 0 0 1 0 -0 3
Substitution2: "LC caps to smallcaps subtable" Uring.sc
EndChar

StartChar: Ydieresis
Encoding: 376 376 162
Width: 739
Flags: HW
TeX: 891 0
ItalicCorrection: 24
HStem: 0 59<244 333 405 494> 625 58<15 107 193 251 503 561 631 723> 761 105<229.073 313.588 424.836 508.867>
VStem: 219 105<771.695 855.229> 333 72<59 305.703> 414 105<771.836 855.229>
DStem2: 193 625 107 625 0.540123 -0.841586<0 340.918> 377 338 416 290 0.540123 0.841586<0 340.918>
CounterMasks: 1 1c
AnchorPoint: "below" 368 0 basechar 0
AnchorPoint: "above" 368 857 basechar 0
LayerCount: 2
Fore
SplineSet
219 813 m 0
 219 844 244 866 271 866 c 0
 298 866 324 844 324 813 c 0
 324 783 298 761 272 761 c 0
 241 761 219 785 219 813 c 0
414 813 m 0
 414 843 439 866 466 866 c 0
 494 866 519 844 519 813 c 0
 519 782 492 761 466 761 c 0
 435 761 414 786 414 813 c 0
EndSplineSet
Refer: 99 89 S 1 0 0 1 0 -0 3
Substitution2: "LC caps to smallcaps subtable" Ydieresis.sc
EndChar

StartChar: Zacute
Encoding: 377 377 163
Width: 611
Flags: HW
TeX: 855 0
HStem: 0 61<155 471.457> 625 58<155.939 455>
VStem: 69 59<430 591>
DStem2: 90 96 155 61 0.567915 0.823087<8.1064 642.702> 489 144 560 295 0.0575317 0.998344<-69.844 151.44>
AnchorPoint: "below" 308 0 basechar 0
AnchorPoint: "above" 308 851 basechar 0
LayerCount: 2
Fore
SplineSet
223 780 m 1
 383 859 383 860 394 860 c 0
 415 860 429 840 429 824 c 0
 429 799 406 792 388 784 c 0
 276 737 261 731 247 726 c 1
 223 780 l 1
EndSplineSet
Refer: 100 90 S 1 0 0 1 0 0 3
Substitution2: "LC caps to smallcaps subtable" Zacute.sc
EndChar

StartChar: Zcaron
Encoding: 381 381 164
Width: 611
Flags: HW
TeX: 891 0
HStem: 0 61<155 471.457> 625 58<155.939 455> 781 68<274.179 337.323>
VStem: 69 59<430 591>
DStem2: 90 96 155 61 0.567915 0.823087<8.1064 642.702> 489 144 560 295 0.0575317 0.998344<-69.844 151.44>
AnchorPoint: "below" 308 0 basechar 0
AnchorPoint: "above" 308 914 basechar 0
LayerCount: 2
Fore
SplineSet
172 885 m 1
 201 923 l 1
 294 854 298 849 306 849 c 0
 314 849 323 859 410 923 c 1
 440 885 l 1
 313 782 314 781 306 781 c 2
 305 781 l 2
 298 781 298 783 172 885 c 1
EndSplineSet
Refer: 100 90 S 1 0 0 1 -0 0 3
Substitution2: "LC caps to smallcaps subtable" Zcaron.sc
EndChar

StartChar: IJ
Encoding: 306 306 166
Width: 850
Flags: HW
TeX: 683 0
HStem: -11 59<490.858 627.298> 0 59<44 137 213 306> 625 58<44 137 213 306 542 658 730 797>
VStem: 137 76<59 625> 408 86<80.4219 150.572> 658 72<80.4192 625>
LayerCount: 2
Fore
SplineSet
408 111 m 0
 408 137 426 156 451 156 c 0
 473 156 494 140 494 114 c 0
 494 98 487 89 479 80 c 1
 488 71 513 48 564 48 c 0
 637 48 652 104 655 119 c 0
 657 131 658 143 658 155 c 2
 658 625 l 1
 542 625 l 1
 542 683 l 1
 797 683 l 1
 797 625 l 1
 730 625 l 1
 730 153 l 2
 730 22 634 -11 566 -11 c 0xbc
 472 -11 408 47 408 111 c 0
EndSplineSet
Refer: 83 73 S 1 0 0 1 0 0 2
Substitution2: "LC caps to smallcaps subtable" IJ.sc
Ligature2: "Latin Dutch ligatures subtable" I J
EndChar

StartChar: Idotaccent
Encoding: 304 304 167
Width: 350
Flags: HW
TeX: 855 0
HStem: 0 59<44 137 213 306> 625 58<44 137 213 306> 767 105<132.77 216.458>
VStem: 122 105<777.771 861.613> 137 76<59 625>
LayerCount: 2
Fore
SplineSet
122 820 m 0
 122 851 148 872 175 872 c 0
 203 872 227 851 227 820 c 0
 227 789 201 767 175 767 c 0xf0
 144 767 122 793 122 820 c 0
EndSplineSet
Refer: 83 73 S 1 0 0 1 0 0 3
EndChar

StartChar: dcroat
Encoding: 273 273 168
Width: 561
Flags: HW
TeX: 694 0
HStem: -5 58<172.308 317.157 453.01 536> 405 59<177.943 326.919> 514 58<167 385 452 521> 622 58<302 372> 675 20G<302 452>
VStem: 37 75<120.405 333.28> 382 70<110.847 363.114 411 514 572 620.37>
LayerCount: 2
Fore
SplineSet
37 228 m 0
 37 366 102 464 220 464 c 0
 295 464 348 436 385 411 c 1
 385 514 l 1
 167 514 l 1
 167 572 l 1
 385 572 l 1
 385 595 l 1
 384 618 379 622 321 622 c 2
 302 622 l 1
 302 680 l 1xf6
 452 695 l 1xee
 452 572 l 1
 521 572 l 1
 521 514 l 1
 452 514 l 1
 452 83 l 1
 453 61 462 59 520 59 c 2
 536 59 l 1
 536 0 l 1
 382 -5 l 1
 382 58 l 1
 339 22 286 -5 214 -5 c 0
 108 -5 37 84 37 228 c 0
112 228 m 0
 112 77 194 53 249 53 c 0
 322 53 382 116 382 167 c 2
 382 305 l 2
 382 308 383 310 383 313 c 0
 383 365 319 405 259 405 c 0xe6
 200 405 112 381 112 228 c 0
EndSplineSet
AlternateSubs2: "Stilistic set 01 subtable" dcroat.vn
AlternateSubs2: "Latin alternatives subtable" dcroat.vn
Substitution2: "Latin Vietnamese substitutions subtable" dcroat.vn
Substitution2: "LC small to smallcaps subtable" Eth.sc
EndChar

StartChar: section
Encoding: 167 167 169
Width: 444
Flags: HW
TeX: 694 194
HStem: -200 59<166.696 282.222> 641 59<160.916 276.51>
VStem: 69 51<200.526 318.936 480.57 598.869> 83 69<-87.6243 -33.8015> 291 69<533.802 587.624> 323 51<-98.8564 18.9566 180.849 299.494>
LayerCount: 2
Fore
SplineSet
69 256 m 0
 69 312 96 365 142 395 c 1
 112 423 69 465 69 536 c 0
 69 614 127 700 222 700 c 0
 307 700 360 629 360 570 c 0
 360 539 337 531 325 531 c 0
 308 531 291 544 291 564 c 0
 291 571 293 580 298 588 c 1
 280 632 244 641 221 641 c 0
 160 641 120 586 120 537 c 0xe8
 120 457 223 430 258 412 c 0
 331 373 374 311 374 244 c 0
 374 188 347 135 301 105 c 1
 331 77 374 35 374 -36 c 0
 374 -114 316 -200 221 -200 c 0
 137 -200 83 -129 83 -70 c 0
 83 -39 106 -31 118 -31 c 0
 136 -31 152 -44 152 -64 c 0xd4
 152 -71 150 -80 145 -88 c 1
 163 -132 199 -141 222 -141 c 0
 270 -141 323 -100 323 -37 c 0xd4
 323 42 224 67 185 88 c 0
 112 127 69 189 69 256 c 0
120 257 m 0
 120 177 231 142 242 142 c 0
 270 142 323 183 323 243 c 0xe4
 323 323 211 358 201 358 c 0
 172 358 120 316 120 257 c 0
EndSplineSet
EndChar

StartChar: aogonek
Encoding: 261 261 171
Width: 489
Flags: HW
TeX: 458 194
HStem: -205 69<398.616 468.758> -6 59<143.626 273.985 407.042 484.103> 238 51<190.22 325> 408 58<156.938 294.829>
VStem: 45 70<81.1631 182.712> 75 81<363.115 406.298> 312 78<-130.124 -28.3824> 325 70<88.2472 238 289 377.476>
AnchorPoint: "above" 217 466 basechar 0
LayerCount: 2
Fore
SplineSet
45 130 m 0xfa
 45 194 91 287 325 289 c 1
 325 312 l 2
 325 313 326 315 326 318 c 0
 326 354 311 408 212 408 c 0
 201 408 178 407 156 405 c 1
 158 368 132 358 116 358 c 0
 92 358 75 378 75 400 c 0
 75 446 127 466 217 466 c 0
 297 466 396 436 396 314 c 0
 396 307 395 300 395 293 c 2
 395 95 l 1xf5
 396 73 403 61 456 59 c 0
 475 58 485 56 485 32 c 2
 485 27 l 2
 485 12 483 1 460 -0 c 0
 438 0 432 2 412 -21 c 0
 398 -37 390 -59 390 -80 c 0xf2
 390 -114 410 -136 425 -136 c 0
 444 -136 451 -117 464 -117 c 0
 477 -117 502 -134 502 -147 c 0
 502 -162 465 -205 414 -205 c 0
 360 -205 312 -157 312 -97 c 0
 312 -75 317 -32 370 11 c 1
 370 12 l 1
 343 26 340 39 335 53 c 1
 331 49 274 -6 158 -6 c 0
 80 -6 45 70 45 130 c 0xfa
115 132 m 0
 115 85 159 53 210 53 c 0xf9
 251 53 326 70 326 151 c 0
 326 156 325 161 325 165 c 2
 325 238 l 1
 265 236 207 229 165 205 c 0
 154 199 115 176 115 132 c 0
EndSplineSet
Substitution2: "LC small to smallcaps subtable" Aogonek.sc
EndChar

StartChar: dcaron
Encoding: 271 271 174
Width: 678
Flags: HW
TeX: 694 0
HStem: -5 58<172.308 315.775 453.051 536> 405 59<177.943 326.919> 622 58<302 372> 627 105<502.66 552.344> 675 20<302 452>
VStem: 37 75<120.405 333.28> 382 70<110.405 363.114 411 620.671> 493 119<637.127 709.789>
LayerCount: 2
Fore
SplineSet
493 680 m 0xe7
 493 708 514 732 545 732 c 0
 585 732 612 692 612 641 c 0
 612 558 549 499 533 499 c 0
 523 499 498 526 498 535 c 0
 498 552 538 554 553 627 c 1
 549 627 l 2xd7
 503 627 493 661 493 680 c 0xe7
EndSplineSet
Refer: 110 100 S 1 0 0 1 0 -0 2
Substitution2: "LC small to smallcaps subtable" Dcaron.sc
EndChar

StartChar: eogonek
Encoding: 281 281 176
Width: 444
Flags: HW
TeX: 458 194
HStem: -205 68<273.414 344.53> 240 55<112 355> 408 58<166.472 308.349>
VStem: 31 75<138.004 240> 187 78<-130.34 -30.515> 354 60<84.4802 142.594 295 359.451>
AnchorPoint: "above" 236 466 basechar 0
LayerCount: 2
Fore
SplineSet
31 232 m 0
 31 373 114 466 237 466 c 0
 380 466 416 354 416 265 c 0
 416 241 402 240 387 240 c 2
 106 240 l 1
 106 93 193 56 272 56 c 0
 321 56 344 95 354 122 c 0
 361 139 364 143 385 143 c 2
 389 143 l 2
 399 143 414 142 414 126 c 0
 414 105 391 67 369 45 c 0
 323 -1 265 -17 265 -81 c 0
 265 -116 287 -137 302 -137 c 0
 317 -137 327 -119 340 -119 c 0
 350 -119 376 -136 376 -148 c 0
 376 -165 338 -205 291 -205 c 0
 237 -205 187 -158 187 -97 c 0
 187 -54 211 -25 229 -5 c 1
 98 7 31 105 31 232 c 0
112 295 m 1
 355 295 l 1
 345 366 310 408 237 408 c 0
 210 408 134 402 112 295 c 1
EndSplineSet
Substitution2: "LC small to smallcaps subtable" Eogonek.sc
EndChar

StartChar: gbreve
Encoding: 287 287 177
Width: 500
Flags: HW
TeX: 666 194
ItalicCorrection: 13
HStem: -200 56<133.978 364.171> 6 64<128.968 376.016> 134 56<159.178 282.667> 384 85<417.857 472.992> 408 56<159.722 283.196> 507 63<182.192 317.477>
VStem: 27 64<-108.46 -12.5555> 63 67<219.469 377.551> 67 52<79.2369 159.305> 81 59<611.955 667> 312 68<220.055 378.519> 358 59<611.568 667> 407 64<-108.156 -21.5474>
LayerCount: 2
Fore
SplineSet
81 667 m 1
 140 667 l 1
 145 599 202 570 249 570 c 0xe450
 296 570 353 599 358 667 c 1
 417 667 l 1
 415 568 333 507 249 507 c 0
 164 507 84 569 81 667 c 1
EndSplineSet
Refer: 113 103 S 1 0 0 1 -0 -0 3
Substitution2: "LC small to smallcaps subtable" Gbreve.sc
EndChar

StartChar: lacute
Encoding: 314 314 178
Width: 283
Flags: HW
TeX: 855 0
ItalicCorrection: 43
HStem: 0 59<30 113 180 264> 622 58<30 100> 675 20<30 180>
VStem: 113 67<59 620.178>
LayerCount: 2
Fore
SplineSet
93 780 m 1
 259 863 251 859 263 860 c 1
 264 860 l 2x90
 285 860 298 842 298 824 c 0
 298 799 275 793 257 785 c 0
 145 738 131 731 117 726 c 1
 93 780 l 1
EndSplineSet
Refer: 118 108 S 1 0 0 1 -0 0 3
Substitution2: "LC small to smallcaps subtable" Lacute.sc
EndChar

StartChar: lcaron
Encoding: 318 318 179
Width: 406
Flags: HW
TeX: 694 0
HStem: -0 59<30 113 180 264> 622 58<30 100> 627 105<230.66 280.344> 675 20<30 180>
VStem: 113 67<59 620.178> 221 119<637.082 709.789>
LayerCount: 2
Fore
SplineSet
221 680 m 0xcc
 221 708 242 732 273 732 c 0
 313 732 340 692 340 641 c 0
 340 557 278 500 262 500 c 0
 252 500 226 526 226 535 c 0
 226 550 269 559 281 627 c 1
 277 627 l 2xac
 232 627 221 660 221 680 c 0xcc
EndSplineSet
Refer: 118 108 S 1 0 0 1 -0 -0 2
Substitution2: "LC small to smallcaps subtable" Lcaron.sc
EndChar

StartChar: lslash
Encoding: 322 322 180
Width: 342
Flags: HW
TeX: 694 0
HStem: -0 59<57 141 208 291> 622 58<57 127.467> 675 20G<57 208>
VStem: 141 67<59 287 423 619.891>
DStem2: 56 292 94 248 0.757471 0.652868<0.0577109 61.1207 202.498 276.643>
AnchorPoint: "above" 174 695 basechar 0
LayerCount: 2
Fore
SplineSet
56 292 m 1
 141 365 l 1
 141 593 l 2xb0
 141 618 137 622 71 622 c 2
 57 622 l 1
 57 680 l 1xd0
 208 695 l 1
 208 423 l 1
 266 473 l 1
 304 428 l 1
 206 343 209 350 208 330 c 1
 208 59 l 1
 291 59 l 1
 291 -0 l 1
 57 -0 l 1
 57 59 l 1
 141 59 l 1
 141 287 l 1
 94 248 l 1
 56 292 l 1
EndSplineSet
Substitution2: "LC small to smallcaps subtable" Lslash.sc
EndChar

StartChar: ncaron
Encoding: 328 328 182
Width: 561
Flags: HW
TeX: 666 0
HStem: -0 59<28 111 181 264 306 389 459 542> 391 59<28 102> 405 59<232.03 366.061> 664 20G<121 160.615 325.385 365>
VStem: 111 70<59 357.498> 389 70<59 382.978>
DStem2: 141 684 107 650 0.69423 -0.719753<0.867788 145.666> 243 580 243 509 0.69423 0.719753<0 144.798>
LayerCount: 2
Fore
SplineSet
107 650 m 1
 141 684 l 1
 243 580 l 1
 345 684 l 1
 379 650 l 1
 243 509 l 1x9c
 107 650 l 1
EndSplineSet
Refer: 120 110 S 1 0 0 1 -0 -0 3
Substitution2: "LC small to smallcaps subtable" Ncaron.sc
EndChar

StartChar: eng
Encoding: 331 331 183
Width: 561
Flags: HW
TeX: 458 194
HStem: -200 59<311.262 369.896> 0 59<28 111 181 264> 391 59<28 102> 405 59<232.407 367.137>
VStem: 111 70<59 357.131> 232 79<-140 -95.393> 389 70<-108.63 380.909>
AnchorPoint: "affricate-below" 561 -195 basechar 0
AnchorPoint: "affricate-above" 561 695 basechar 0
AnchorPoint: "below" 285 -195 basechar 0
AnchorPoint: "above" 285 466 basechar 0
LayerCount: 2
Fore
SplineSet
28 0 m 1
 28 59 l 1
 111 59 l 1
 111 363 l 2
 111 386 109 391 43 391 c 2
 28 391 l 1
 28 450 l 1xee
 176 464 l 1
 176 397 l 1
 214 441 264 464 322 464 c 0
 457 464 459 373 459 313 c 2
 459 28 l 2
 459 -161 377 -200 323 -200 c 0
 272 -200 232 -171 232 -131 c 0
 232 -109 249 -91 272 -91 c 0xde
 293 -91 311 -105 311 -135 c 2
 311 -140 l 1
 317 -140 324 -141 330 -141 c 0
 377 -141 389 -103 389 13 c 2
 389 313 l 2
 389 352 387 405 291 405 c 0xde
 247 405 181 380 181 265 c 2
 181 59 l 1
 264 59 l 1
 264 0 l 1
 28 0 l 1
EndSplineSet
Substitution2: "LC small to smallcaps subtable" Eng.sc
EndChar

StartChar: sacute
Encoding: 347 347 187
Width: 394
Flags: HW
TeX: 666 0
HStem: -5 58<139.431 275.171> 411 55<113.527 248.734> 505 162
VStem: 33 65<95.9162 180.196 307.226 394.596> 123 192 275 61<309.231 384.536> 296 65<75.1565 176.711>
AnchorPoint: "below" 201 0 basechar 0
AnchorPoint: "above" 192 647 basechar 0
LayerCount: 2
Fore
SplineSet
33 21 m 2
 33 160 l 2
 33 175 35 181 59 181 c 0
 98 181 89 175 101 137 c 0
 127 54 182 53 201 53 c 0
 269 53 296 83 296 127 c 0xf2
 296 170 259 192 237 199 c 0
 204 210 161 212 123 227 c 0
 92 239 33 273 33 342 c 0
 33 400 60 466 191 466 c 0
 250 466 274 447 289 435 c 1xf8
 307 462 309 466 322 466 c 0
 331 466 336 458 336 441 c 2
 336 337 l 2
 336 312 334 309 304 309 c 0
 273 309 280 317 275 341 c 0xf4
 271 360 256 411 186 411 c 0
 122 411 98 387 98 350 c 0
 98 282 195 286 253 268 c 0
 304 252 361 207 361 132 c 0
 361 49 316 -5 202 -5 c 0
 133 -5 104 24 86 43 c 1
 77 27 64 -5 48 -5 c 0
 45 -5 41 -4 37 -1 c 0
 32 3 33 13 33 21 c 2
EndSplineSet
Refer: 12 180 S 1 0 0 1 -81 0 2
Substitution2: "LC small to smallcaps subtable" Sacute.sc
EndChar

StartChar: scaron
Encoding: 353 353 188
Width: 394
Flags: HW
TeX: 666 0
HStem: -6 59<138.825 275.171> 411 55<113.733 248.734> 509 175
VStem: 33 65<95.9162 180.196 307.252 394.596> 48 272 275 61<309.231 384.536> 296 65<74.8852 176.706>
DStem2: 82 684 48 650 0.69423 -0.719753<0.867788 145.666> 185 580 185 509 0.691571 0.722308<0 143.924>
AnchorPoint: "above" 192 664 basechar 0
LayerCount: 2
Fore
SplineSet
33 21 m 2
 33 160 l 2
 33 175 35 181 59 181 c 0
 98 181 89 175 101 137 c 0
 127 54 182 53 201 53 c 0
 269 53 296 82 296 127 c 0
 296 170 259 192 237 199 c 0
 211 208 159 213 123 227 c 0
 92 239 33 273 33 342 c 0
 33 400 61 466 191 466 c 0
 250 466 274 447 289 435 c 1xf2
 307 462 309 466 322 466 c 0
 331 466 336 458 336 441 c 2
 336 337 l 2
 336 312 334 309 304 309 c 0
 273 309 280 317 275 341 c 0xf4
 271 360 256 411 186 411 c 0
 122 411 98 387 98 350 c 0
 98 283 196 284 253 267 c 0
 303 252 361 207 361 132 c 0xf2
 361 49 317 -6 201 -6 c 0
 132 -6 102 27 86 43 c 1
 68 11 63 -5 48 -5 c 0xe8
 32 -5 33 8 33 21 c 2
EndSplineSet
Refer: 18 711 S 1 0 0 1 -65 0 2
Substitution2: "LC small to smallcaps subtable" Scaron.sc
EndChar

StartChar: scedilla
Encoding: 351 351 189
Width: 394
Flags: HW
TeX: 458 170
HStem: -210 58<78 229.125> -60 113<162.76 229.925> -5 21G<46.5 56> 411 55<113.527 249.1>
VStem: 33 65<98.1107 180.196 306.455 394.596> 244 71<-134.563 -73.1862> 275 61<309.231 385.931> 296 65<75.2475 175.792>
LayerCount: 2
Fore
SplineSet
33 21 m 2
 33 160 l 2
 33 175 35 181 59 181 c 0
 98 181 89 175 101 137 c 0
 127 53 182 53 201 53 c 0
 269 53 296 83 296 127 c 0xd9
 296 170 259 192 237 199 c 0
 204 210 161 212 123 227 c 0
 92 239 33 273 33 342 c 0
 33 400 60 466 191 466 c 0
 250 466 274 447 289 435 c 1
 302 454 308 466 321 466 c 0
 337 466 336 454 336 441 c 2
 336 337 l 2
 336 312 334 309 304 309 c 0
 273 309 280 317 275 341 c 0xda
 272 360 257 411 186 411 c 0
 122 411 98 387 98 350 c 0
 98 286 185 285 243 270 c 0
 301 255 361 209 361 132 c 0xd9
 361 23 283 1 232 -4 c 1
 232 -11 l 1
 292 -32 315 -69 315 -107 c 0
 315 -211 165 -206 78 -210 c 1
 78 -152 l 1
 124 -150 244 -158 244 -105 c 0xdc
 244 -87 231 -62 162 -60 c 1xdc
 162 -2 l 1
 123 7 105 23 86 43 c 1
 77 27 64 -5 48 -5 c 0xbc
 45 -5 41 -4 37 -1 c 0
 32 3 33 13 33 21 c 2
EndSplineSet
Substitution2: "LC small to smallcaps subtable" Scedilla.sc
EndChar

StartChar: tcaron
Encoding: 357 357 190
Width: 389
Flags: HW
TeX: 694 0
HStem: -5 61<183.769 258.64> 400 58<18 69.3098 173 316> 635 20G<113.5 173> 655 105<272.723 322.344>
VStem: 103 70<64.7146 400> 114 59<513.497 655> 263 119<665.128 737.789> 274 59<80.8935 192>
LayerCount: 2
Fore
SplineSet
18 400 m 1
 18 458 l 1
 84 463 113 519 114 655 c 1
 173 655 l 1
 173 458 l 1xf4
 316 458 l 1
 316 400 l 1
 173 400 l 1
 173 135 l 2xf8
 173 106 174 56 222 56 c 0
 241 56 253 68 261 80 c 0
 273 99 274 122 274 144 c 2
 274 192 l 1
 333 192 l 1
 333 145 l 1
 332 119 335 92 311 57 c 0
 271 -1 208 -5 193 -5 c 0
 101 -5 103 91 103 131 c 2
 103 400 l 1xf9
 18 400 l 1
263 708 m 0
 263 736 284 760 315 760 c 0
 355 760 382 720 382 669 c 0
 382 586 319 528 303 528 c 0
 293 528 268 554 268 563 c 0
 268 580 308 582 323 655 c 1
 320 655 l 2xf2
 274 655 263 689 263 708 c 0
EndSplineSet
Substitution2: "LC small to smallcaps subtable" Tcaron.sc
EndChar

StartChar: tcommaaccent
Encoding: 355 355 191
Width: 389
Flags: HW
TeX: 649 170
HStem: -210 58<105 256.125> -60 60<232 258> 400 58<18 69.3098 173 316> 635 20G<113.5 173>
VStem: 103 70<65.2051 400> 114 59<513.497 655> 271 71<-134.44 -73.3167> 274 59<80.8935 192>
LayerCount: 2
Fore
SplineSet
18 400 m 1
 18 458 l 1
 84 463 113 519 114 655 c 1
 173 655 l 1
 173 458 l 1xf4
 316 458 l 1
 316 400 l 1
 173 400 l 1
 173 135 l 2
 173 106 174 56 222 56 c 0
 241 56 253 68 261 80 c 0
 273 99 274 122 274 144 c 2
 274 192 l 1
 333 192 l 1xf9
 333 139 l 2xf9
 333 79 312 29 232 -0 c 1
 258 -0 l 1
 258 -11 l 1
 319 -33 342 -69 342 -107 c 0
 342 -211 192 -206 105 -210 c 1
 105 -152 l 1
 136 -151 271 -159 271 -106 c 0
 271 -87 258 -62 188 -60 c 1
 188 -5 l 1
 105 2 103 75 103 131 c 2
 103 400 l 1xfa
 18 400 l 1
EndSplineSet
Substitution2: "LC small to smallcaps subtable" Tcommaaccent.sc
EndChar

StartChar: ydieresis
Encoding: 255 255 194
Width: 533
Flags: HW
TeX: 683 194
ItalicCorrection: 13
HStem: -200 59<98.7394 174.353> 400 58<20 97 164 231 310 377 436 513> 578 105<127.77 210.803 321.836 405.23>
VStem: 23 77<-139.767 -92.01> 117 105<588.695 671.803> 311 105<588.542 672.648>
DStem2: 164 400 97 400 0.328808 -0.944397<0 333.283> 230 -19 282 -39 0.331021 0.943624<-117.006 18.4187 110.434 444.038>
AnchorPoint: "below" 266 -195 basechar 0
AnchorPoint: "above" 266 671 basechar 0
LayerCount: 2
Fore
SplineSet
117 630 m 0
 117 657 138 683 169 683 c 0
 196 683 222 660 222 630 c 0
 222 600 197 578 170 578 c 0
 139 578 117 604 117 630 c 0
311 630 m 0
 311 660 336 683 363 683 c 0
 394 683 416 657 416 631 c 0
 416 604 394 578 364 578 c 0
 333 578 311 602 311 630 c 0
EndSplineSet
Refer: 131 121 S 1 0 0 1 0 0 3
Substitution2: "LC small to smallcaps subtable" Ydieresis.sc
EndChar

StartChar: ij
Encoding: 307 307 198
Width: 589
Flags: HW
TeX: 694 194
HStem: -200 60<346 410.884> 0 59<43 126 193 268> 391 59<47 120 340 419> 444 20G<47 193 340 498> 590 105<101.77 185.588 403.412 488.206>
VStem: 91 105<600.695 684.229> 126 67<59 389.155> 266 80<-140 -95.8853> 393 105<600.387 684.229> 431 67<-119.938 388.891>
LayerCount: 2
Fore
SplineSet
91 642 m 0
 91 669 112 695 143 695 c 0
 170 695 196 673 196 642 c 0xcd
 196 612 170 590 144 590 c 0
 113 590 91 616 91 642 c 0
266 -131 m 0
 266 -107 286 -91 307 -91 c 0
 328 -91 346 -105 346 -135 c 2
 346 -140 l 1
 352 -140 359 -142 366 -142 c 0
 427 -142 431 -71 431 -40 c 2
 431 366 l 1
 430 388 424 391 359 391 c 2
 340 391 l 1
 340 450 l 1xe940
 498 464 l 1
 498 -38 l 2xd940
 498 -163 407 -200 354 -200 c 0
 307 -200 266 -172 266 -131 c 0
EndSplineSet
Refer: 21 729 S 1 0 0 1 294 0 2
Refer: 35 305 S 1 0 0 1 13 0 2
Substitution2: "LC small to smallcaps subtable" IJ.sc
Ligature2: "Latin Dutch ligatures subtable" i j
EndChar

StartChar: exclamdown
Encoding: 161 161 199
Width: 278
Flags: HW
TeX: 500 194
HStem: 395 105<95.4117 180.206>
VStem: 85 105<405.387 489.229> 85 106<-194.586 -4.59091>
LayerCount: 2
Fore
SplineSet
85 -151 m 0xa0
 85 -146 86 -141 86 -136 c 2
 107 277 l 2
 109 299 104 310 131 310 c 2
 146 310 l 2
 167 310 167 303 168 283 c 2
 190 -127 l 2xc0
 190 -134 191 -142 191 -150 c 0xa0
 191 -190 161 -205 139 -205 c 0
 116 -205 85 -189 85 -151 c 0xa0
EndSplineSet
Refer: 21 729 S 1 0 0 1 -14 -195 2
EndChar

StartChar: questiondown
Encoding: 191 191 200
Width: 472
Flags: HW
TeX: 500 194
HStem: -200 59<150.341 311.417> 395 105<179.412 264.206>
VStem: 55 76<-121.661 12.2875> 169 105<405.387 489.229> 192 59<157.101 309.891> 335 81<-83.6243 -17.4434>
LayerCount: 2
Fore
SplineSet
55 -52 m 0
 55 34 98 53 124 84 c 1
 195 163 192 242 192 260 c 2
 192 285 l 2
 192 307 195 311 216 311 c 0
 219 311 221 310 224 310 c 2
 227 310 l 2
 245 310 250 308 251 291 c 1xec
 251 259 l 2
 251 178 227 96 166 28 c 0
 149 9 131 -5 131 -54 c 0
 131 -120 157 -141 221 -141 c 0
 313 -141 342 -96 350 -84 c 1
 343 -76 335 -67 335 -53 c 0
 335 -29 354 -13 375 -13 c 0
 389 -13 416 -21 416 -56 c 0
 416 -130 339 -200 220 -200 c 0
 109 -200 55 -145 55 -52 c 0
EndSplineSet
Refer: 21 729 S 1 0 0 1 70 -195 2
EndChar

StartChar: sterling
Encoding: 163 163 201
Width: 639
Flags: HW
TeX: 694 0
HStem: -5 58<119.173 204.423 385.785 528.567> 81 58<119.655 205.26> 318 59<158.158 242 312 424.918> 662 59<352.891 472.491>
VStem: 55 64<53.3053 78.6876> 242 70<132.269 318 377 613.903> 502 81<486.133 554.763> 551 59<76.5332 147>
LayerCount: 2
Fore
SplineSet
55 59 m 0
 55 107 107 139 177 139 c 0
 198 139 219 136 239 131 c 1
 243 158 242 189 242 219 c 2
 242 318 l 1
 175 318 l 2
 162 318 158 321 158 348 c 0
 158 375 161 377 176 377 c 2
 242 377 l 1
 242 509 l 2
 242 692 357 721 415 721 c 0
 525 721 583 613 583 525 c 0
 583 490 557 481 543 481 c 0
 523 481 502 497 502 521 c 0xfe
 502 542 515 550 521 555 c 1
 500 654 435 662 415 662 c 0
 401 662 358 659 333 617 c 0
 313 584 312 544 312 506 c 2
 312 377 l 1
 404 377 l 2
 424 377 425 368 425 356 c 0
 425 352 425 348 425 344 c 0
 425 320 419 318 400 318 c 2
 312 318 l 1
 312 184 l 2
 312 148 310 132 303 109 c 1
 335 96 422 53 478 53 c 0
 537 53 548 108 551 128 c 0xfd
 554 146 559 147 572 147 c 2
 588 147 l 2
 601 147 610 146 610 130 c 0xfd
 610 80 560 -5 458 -5 c 0
 395 -5 319 32 272 52 c 1
 260 38 220 -5 141 -5 c 0
 93 -5 55 20 55 59 c 0
119 62 m 0
 119 55 128 53 141 53 c 0
 157 53 182 57 206 74 c 1
 186 79 171 81 159 81 c 0xfc
 126 81 119 66 119 62 c 0
EndSplineSet
EndChar

StartChar: Agrave
Encoding: 192 192 202
Width: 739
Flags: HW
TeX: 855 0
HStem: 0 59<34 119 181 254 469 543 619 704> 214 59<255 469> 675 20<352.5 380.5>
DStem2: 119 59 181 59 0.325212 0.945641<20.1632 183.974 246.596 574.542> 409 670 362 583 0.325037 -0.945701<66.9993 394.946 457.243 621.378>
AnchorPoint: "below" 369 0 basechar 0
AnchorPoint: "above" 369 839 basechar 0
LayerCount: 2
Fore
SplineSet
232 824 m 0
 232 840 244 860 265 860 c 2
 266 860 l 2
 277 860 278 859 437 780 c 1
 413 726 l 1
 399 731 385 737 273 784 c 0
 258 790 232 799 232 824 c 0
EndSplineSet
Refer: 75 65 S 1 0 0 1 -0 -0 3
AlternateSubs2: "Stilistic set 01 subtable" Agrave.vn
AlternateSubs2: "Latin alternatives subtable" Agrave.vn
Substitution2: "Latin Vietnamese substitutions subtable" Agrave.vn
Substitution2: "LC caps to smallcaps subtable" Agrave.sc
EndChar

StartChar: Aacute
Encoding: 193 193 203
Width: 739
Flags: HW
TeX: 855 0
HStem: 0 59<34 119 181 254 469 543 619 704> 214 59<255 469> 675 20<352.5 380.5>
DStem2: 119 59 181 59 0.325212 0.945641<20.1632 183.974 246.596 574.542> 409 670 362 583 0.325037 -0.945701<66.9993 394.946 457.243 621.378>
AnchorPoint: "below" 369 0 basechar 0
AnchorPoint: "above" 369 839 basechar 0
LayerCount: 2
Fore
SplineSet
274 780 m 1
 420 853 432 860 445 860 c 0
 466 860 479 840 479 824 c 0
 479 799 453 790 438 784 c 0
 326 737 312 731 298 726 c 1
 274 780 l 1
EndSplineSet
Refer: 75 65 S 1 0 0 1 0 -0 3
AlternateSubs2: "Stilistic set 01 subtable" Aacute.vn
AlternateSubs2: "Latin alternatives subtable" Aacute.vn
Substitution2: "Latin Vietnamese substitutions subtable" Aacute.vn
Substitution2: "LC caps to smallcaps subtable" Aacute.sc
EndChar

StartChar: Acircumflex
Encoding: 194 194 204
Width: 739
Flags: HW
TeX: 891 0
HStem: 0 59<34 119 181 254 469 543 619 704> 214 59<255 469> 675 20<352.5 380.5>
DStem2: 119 59 181 59 0.325212 0.945641<20.1632 183.974 246.596 574.542> 409 670 362 583 0.325037 -0.945701<66.9993 394.946 457.243 621.378>
AnchorPoint: "below" 369 0 basechar 0
AnchorPoint: "above" 369 876 basechar 0
LayerCount: 2
Fore
SplineSet
225 775 m 1
 369 897 l 1
 370 897 l 1
 514 775 l 1
 475 731 l 1
 474 731 l 1
 370 830 l 1
 369 830 l 1
 264 731 l 1
 225 775 l 1
EndSplineSet
Refer: 75 65 S 1 0 0 1 0 -0 3
AlternateSubs2: "Stilistic set 01 subtable" Acircumflex.vn
AlternateSubs2: "Latin alternatives subtable" Acircumflex.vn
Substitution2: "Latin Vietnamese substitutions subtable" Acircumflex.vn
Substitution2: "LC caps to smallcaps subtable" Acircumflex.sc
EndChar

StartChar: Atilde
Encoding: 195 195 205
Width: 739
Flags: HW
TeX: 891 0
HStem: 0 59<34 119 181 254 469 543 619 704> 214 59<255 469> 675 20<352.5 380.5> 755 86<378.684 488.118> 805 86<248.8 359.782>
DStem2: 119 59 181 59 0.325212 0.945641<20.1632 183.974 246.596 574.542> 409 670 362 583 0.325037 -0.945701<66.9993 394.946 457.243 621.378>
AnchorPoint: "below" 369 0 basechar 0
AnchorPoint: "above" 369 871 basechar 0
LayerCount: 2
Fore
SplineSet
175 792 m 1
 217 845 248 891 296 891 c 0xe8
 347 891 385 841 436 841 c 0
 477 841 508 881 518 892 c 1
 564 855 l 1
 522 802 491 755 443 755 c 0xf0
 392 755 353 805 302 805 c 0xe8
 261 805 230 766 220 755 c 1xf0
 175 792 l 1
EndSplineSet
Refer: 75 65 S 1 0 0 1 -0 0 3
AlternateSubs2: "Stilistic set 01 subtable" Atilde.vn
AlternateSubs2: "Latin alternatives subtable" Atilde.vn
Substitution2: "Latin Vietnamese substitutions subtable" Atilde.vn
Substitution2: "LC caps to smallcaps subtable" Atilde.sc
EndChar

StartChar: Adieresis
Encoding: 196 196 206
Width: 739
Flags: HW
TeX: 891 0
HStem: 0 59<34 119 181 254 469 543 619 704> 214 59<255 469> 675 20<352.5 380.5> 761 105<230.387 313.648 424.836 508.164>
VStem: 220 104<771.695 855.979> 414 105<771.387 855.229>
DStem2: 119 59 181 59 0.325212 0.945641<20.1632 183.974 246.596 574.542> 409 670 362 583 0.325037 -0.945701<66.9993 394.946 457.243 621.378>
AnchorPoint: "below" 369 0 basechar 0
AnchorPoint: "above" 369 845 basechar 0
LayerCount: 2
Fore
SplineSet
220 813 m 0
 220 844 245 866 272 866 c 0
 299 866 324 844 324 813 c 0
 324 783 298 761 272 761 c 0
 241 761 220 785 220 813 c 0
414 813 m 0
 414 843 439 866 466 866 c 0
 493 866 519 844 519 813 c 0
 519 782 494 761 467 761 c 0
 436 761 414 786 414 813 c 0
EndSplineSet
Refer: 75 65 S 1 0 0 1 0 -0 3
Substitution2: "LC caps to smallcaps subtable" Adieresis.sc
EndChar

StartChar: Aring
Encoding: 197 197 207
Width: 739
Flags: HW
TeX: 855 0
HStem: 0 59<34 119 181 254 469 543 619 704> 214 59<255 469> 841 58<325.359 414.292>
VStem: 258 56<705.036 831.248> 424 56<705.111 831.654>
DStem2: 119 59 181 59 0.326337 0.945253<20.2329 184.043 246.666 574.613> 417 647 362 583 0.3249 -0.945748<42.6584 370.605 432.902 597.037>
LayerCount: 2
Fore
SplineSet
34 0 m 1
 34 59 l 1
 119 59 l 1
 322 647 l 1
 291 662 258 697 258 769 c 0
 258 847 302 899 369 899 c 0
 436 898 480 847 480 769 c 0
 480 704 455 668 417 647 c 1
 619 59 l 1
 704 59 l 1
 704 0 l 1
 469 0 l 1
 469 59 l 1
 543 59 l 1
 489 214 l 1
 234 214 l 1
 181 59 l 1
 254 59 l 1
 254 0 l 1
 34 0 l 1
255 273 m 1
 469 273 l 1
 362 583 l 1
 255 273 l 1
314 770 m 0
 314 740 315 696 369 696 c 0
 417 696 424 730 424 765 c 0
 424 796 423 841 370 841 c 0
 322 841 314 805 314 770 c 0
EndSplineSet
Substitution2: "LC caps to smallcaps subtable" Aring.sc
EndChar

StartChar: AE
Encoding: 198 198 208
Width: 897
Flags: HW
TeX: 683 0
HStem: -0 59<34 119 182 254 344 411 484 771.261> 299 59<287 411 484 660.753> 625 58<266 319 381 411 484 755.628>
VStem: 411 73<59 299 358 625> 665 59<182 295.092 361.932 475> 783 58<430 495.593>
DStem2: 119 59 182 59 0.333169 0.942867<20.9896 275.264 337.89 600.297> 778 97 827 -0 0.145794 0.989315<-32.6734 190.657>
AnchorPoint: "below" 452 0 basechar 0
AnchorPoint: "above" 448 694 basechar 0
LayerCount: 2
Fore
SplineSet
34 -0 m 1
 34 59 l 1
 119 59 l 1
 319 625 l 1
 266 625 l 1
 266 683 l 1
 814 683 l 1
 841 430 l 1
 783 430 l 1
 763 613 761 613 729 619 c 0
 705 623 668 625 608 625 c 2
 484 625 l 1
 484 358 l 1
 556 358 l 1
 665 359 659 358 663 400 c 0
 664 421 665 443 665 464 c 2
 665 475 l 1
 724 475 l 1
 724 182 l 1
 665 182 l 1
 665 193 l 2
 665 214 664 236 663 257 c 0
 660 299 664 299 553 299 c 2
 484 299 l 1
 484 59 l 1
 618 59 l 1
 755 61 768 62 778 97 c 0
 789 138 800 222 810 285 c 1
 869 285 l 1
 827 -0 l 1
 344 -0 l 1
 344 59 l 1
 411 59 l 1
 411 299 l 1
 266 299 l 1
 182 59 l 1
 254 59 l 1
 254 -0 l 1
 34 -0 l 1
287 358 m 1
 411 358 l 1
 411 625 l 1
 381 625 l 1
 287 358 l 1
EndSplineSet
Substitution2: "LC caps to smallcaps subtable" AE.sc
EndChar

StartChar: Ccedilla
Encoding: 199 199 209
Width: 722
Flags: HW
TeX: 683 170
HStem: -210 58<274 425.125> -60 108<357.453 425.995> 635 59<296.84 496.507>
VStem: 55 78<213.829 472.43> 440 71<-133.861 -72.9773> 606 60<146.465 241.913 429.152 518.425>
AnchorPoint: "above" 388 694 basechar 0
LayerCount: 2
Fore
SplineSet
55 341 m 0
 55 562 199 694 389 694 c 0
 481 694 543 656 593 603 c 1
 638 690 636 693 651 693 c 2
 653 693 l 2
 665 693 666 681 666 672 c 2
 666 451 l 2
 666 430 663 429 632 429 c 0
 614 429 609 431 606 447 c 0
 591 537 530 635 416 635 c 0
 298 635 133 577 133 342 c 0
 133 107 298 48 415 48 c 0
 534 48 598 136 606 216 c 0
 608 238 608 242 633 242 c 2
 640 242 l 2
 660 242 666 240 666 224 c 0
 666 150 605 15 427 -9 c 1
 427 -11 l 1
 462 -23 511 -50 511 -107 c 0
 511 -211 361 -206 274 -210 c 1
 274 -152 l 1
 302 -152 l 2
 350 -152 440 -148 440 -106 c 0
 440 -87 426 -61 357 -60 c 1
 357 -10 l 1
 87 20 55 244 55 341 c 0
EndSplineSet
Substitution2: "LC caps to smallcaps subtable" Ccedilla.sc
EndChar

StartChar: Egrave
Encoding: 200 200 210
Width: 675
Flags: HW
TeX: 855 0
HStem: -0 59<48 137 212 546.526> 324 59<212 396.871> 622 58<48 137 212 532.318>
VStem: 137 75<59 324 383 622> 401 58<207 320.16 386.84 500> 560 59<427 490.25> 588 59<237.5 285>
AnchorPoint: "below" 348 0 basechar 0
AnchorPoint: "above" 348 854 basechar 0
LayerCount: 2
Fore
SplineSet
231 824 m 0xf8
 231 840 244 860 265 860 c 2
 267 860 l 2
 279 860 279 859 437 780 c 1
 413 726 l 2
 412 726 259 789 248 796 c 0
 239 802 231 810 231 824 c 0xf8
EndSplineSet
Refer: 79 69 S 1 0 0 1 0 -0 3
AlternateSubs2: "Stilistic set 01 subtable" Egrave.vn
AlternateSubs2: "Latin alternatives subtable" Egrave.vn
Substitution2: "Latin Vietnamese substitutions subtable" Egrave.vn
Substitution2: "LC caps to smallcaps subtable" Egrave.sc
EndChar

StartChar: Eacute
Encoding: 201 201 211
Width: 675
Flags: HW
TeX: 855 0
HStem: 0 59<48 137 212 546.526> 324 59<212 396.871> 622 58<48 137 212 532.318>
VStem: 137 75<59 324 383 622> 401 58<207 320.16 386.84 500> 560 59<427 490.25> 588 59<237.5 285>
AnchorPoint: "below" 348 0 basechar 0
AnchorPoint: "above" 348 854 basechar 0
LayerCount: 2
Fore
SplineSet
287 780 m 1
 447 859 447 860 458 860 c 0xf8
 479 860 492 840 492 824 c 0
 492 799 470 792 452 784 c 0
 340 737 325 731 311 726 c 1
 287 780 l 1
EndSplineSet
Refer: 79 69 S 1 0 0 1 0 0 3
AlternateSubs2: "Stilistic set 01 subtable" Eacute.vn
AlternateSubs2: "Latin alternatives subtable" Eacute.vn
Substitution2: "Latin Vietnamese substitutions subtable" Eacute.vn
Substitution2: "LC caps to smallcaps subtable" Eacute.sc
EndChar

StartChar: Ecircumflex
Encoding: 202 202 212
Width: 675
Flags: HW
TeX: 891 0
HStem: 0 59<48 137 212 546.526> 324 59<212 396.871> 622 58<48 137 212 532.318>
VStem: 137 75<59 324 383 622> 401 58<207 320.16 386.84 500> 560 59<427 490.25> 588 59<237.5 285>
DStem2: 341 897 341 830 0.762984 0.646417<-188.182 -43.3099> 342 897 342 830 0.760757 -0.649037<43.4855 187.62>
AnchorPoint: "below" 348 0 basechar 0
AnchorPoint: "above" 348 891 basechar 0
LayerCount: 2
Fore
SplineSet
197 774 m 1
 197 775 l 1
 341 897 l 1
 342 897 l 1
 485 775 l 1
 485 774 l 1
 447 731 l 1
 342 830 l 1
 341 830 l 1xf8
 235 731 l 1
 197 774 l 1
EndSplineSet
Refer: 79 69 S 1 0 0 1 -0 0 3
AlternateSubs2: "Stilistic set 01 subtable" Ecircumflex.vn
AlternateSubs2: "Latin alternatives subtable" Ecircumflex.vn
Substitution2: "Latin Vietnamese substitutions subtable" Ecircumflex.vn
Substitution2: "LC caps to smallcaps subtable" Ecircumflex.sc
EndChar

StartChar: Igrave
Encoding: 204 204 214
Width: 350
Flags: HW
TeX: 855 0
HStem: -0 59<44 137 213 306> 625 58<44 137 213 306>
VStem: 137 76<59 625>
AnchorPoint: "below" 175 0 basechar 0
AnchorPoint: "above" 175 851 basechar 0
LayerCount: 2
Fore
SplineSet
51 824 m 0
 51 840 64 860 85 860 c 2
 87 860 l 2
 99 860 98 859 256 780 c 1
 232 726 l 2
 231 726 79 789 68 796 c 0
 59 802 51 810 51 824 c 0
EndSplineSet
Refer: 83 73 S 1 0 0 1 0 -0 3
AlternateSubs2: "Stilistic set 01 subtable" Igrave.vn
AlternateSubs2: "Latin alternatives subtable" Igrave.vn
Substitution2: "Latin Vietnamese substitutions subtable" Igrave.vn
Substitution2: "LC caps to smallcaps subtable" Igrave.sc
EndChar

StartChar: Iacute
Encoding: 205 205 215
Width: 350
Flags: HW
TeX: 855 0
HStem: 0 59<44 137 213 306> 625 58<44 137 213 306>
VStem: 137 76<59 625>
AnchorPoint: "below" 175 0 basechar 0
AnchorPoint: "above" 175 851 basechar 0
LayerCount: 2
Fore
SplineSet
76 780 m 1
 236 859 236 860 247 860 c 0
 268 860 282 840 282 824 c 0
 282 799 259 792 241 784 c 0
 129 737 114 731 100 726 c 1
 76 780 l 1
EndSplineSet
Refer: 83 73 S 1 0 0 1 0 0 3
AlternateSubs2: "Stilistic set 01 subtable" Iacute.vn
AlternateSubs2: "Latin alternatives subtable" Iacute.vn
Substitution2: "Latin Vietnamese substitutions subtable" Iacute.vn
Substitution2: "LC caps to smallcaps subtable" Iacute.sc
EndChar

StartChar: Icircumflex
Encoding: 206 206 216
Width: 350
Flags: HW
TeX: 891 0
HStem: 0 59<44 137 213 306> 625 58<44 137 213 306>
VStem: 30 289 137 76<59 625>
AnchorPoint: "below" 175 0 basechar 0
AnchorPoint: "above" 175 888 basechar 0
LayerCount: 2
Fore
SplineSet
30 774 m 1
 30 775 l 1
 174 897 l 1
 175 897 l 1
 319 775 l 1
 319 774 l 1
 280 731 l 1
 175 830 l 1
 174 830 l 1xe0
 69 731 l 1
 30 774 l 1
EndSplineSet
Refer: 83 73 S 1 0 0 1 -0 0 3
Substitution2: "LC caps to smallcaps subtable" Icircumflex.sc
EndChar

StartChar: Eth
Encoding: 208 208 218
Width: 758
Flags: HW
TeX: 683 0
HStem: -0 59<49 138 210 486.571> 306 59<49.4812 138 210 411.533> 625 58<49 138 210 480.24>
VStem: 138 72<59 306 365 625> 626 76<204.31 474.542>
LayerCount: 2
Fore
SplineSet
49 -0 m 1
 49 59 l 1
 138 59 l 1
 138 306 l 1
 85 306 l 2
 59 306 49 304 49 339 c 0
 49 354 53 364 70 365 c 1
 138 365 l 1
 138 625 l 1
 49 625 l 1
 49 683 l 1
 377 683 l 2
 637 683 702 488 702 335 c 0
 702 280 693 112 545 35 c 0
 486 4 435 0 376 -0 c 2
 49 -0 l 1
210 59 m 1
 364 59 l 2
 573 59 626 197 626 336 c 0
 626 480 574 625 364 625 c 2
 210 625 l 1
 210 365 l 1
 388 365 l 1
 408 364 412 355 412 337 c 0
 412 308 402 306 383 306 c 2
 210 306 l 1
 210 59 l 1
EndSplineSet
Substitution2: "LC caps to smallcaps subtable" Eth.sc
EndChar

StartChar: Ntilde
Encoding: 209 209 219
Width: 739
Flags: HW
TeX: 891 0
HStem: 0 59<50 139 198 287> 625 58<50 139 452 541 600 689> 755 86<378.684 488.118> 805 86<248.8 359.782>
VStem: 139 59<59 568> 541 59<140 625>
DStem2: 218 664 198 568 0.523837 -0.851818<71.2978 615.552>
LayerCount: 2
Fore
SplineSet
175 792 m 1
 217 845 248 891 296 891 c 0xdc
 347 891 385 841 436 841 c 0
 477 841 508 881 518 892 c 1
 564 855 l 1
 522 802 491 755 443 755 c 0xec
 392 755 353 805 302 805 c 0xdc
 261 805 230 766 220 755 c 1xec
 175 792 l 1
EndSplineSet
Refer: 88 78 S 1 0 0 1 -0 0 3
Substitution2: "LC caps to smallcaps subtable" Ntilde.sc
EndChar

StartChar: Oacute
Encoding: 211 211 221
Width: 778
Flags: HW
TeX: 855 0
HStem: -11 63<282.176 492.395> 633 61<282.174 495.352>
VStem: 55 78<219.527 476.841> 643 78<215.198 476.683>
AnchorPoint: "below" 387 0 basechar 0
AnchorPoint: "above" 389 840 basechar 0
LayerCount: 2
Fore
SplineSet
293 780 m 1
 453 859 452 860 463 860 c 2
 464 860 l 2
 485 860 498 840 498 824 c 0
 498 799 475 792 457 784 c 0
 345 737 331 731 317 726 c 1
 293 780 l 1
EndSplineSet
Refer: 89 79 S 1 0 0 1 0 0 3
AlternateSubs2: "Stilistic set 01 subtable" Oacute.vn
AlternateSubs2: "Latin alternatives subtable" Oacute.vn
Substitution2: "Latin Vietnamese substitutions subtable" Oacute.vn
Substitution2: "LC caps to smallcaps subtable" Oacute.sc
EndChar

StartChar: Ocircumflex
Encoding: 212 212 222
Width: 778
Flags: HW
TeX: 891 0
HStem: -11 63<282.176 492.395> 633 61<282.174 495.352>
VStem: 55 78<219.527 476.841> 643 78<215.198 476.683>
DStem2: 388 897 388 830 0.762984 0.646417<-188.182 -43.3099> 389 897 389 830 0.760757 -0.649037<43.4855 187.62>
AnchorPoint: "below" 387 0 basechar 0
AnchorPoint: "above" 389 877 basechar 0
LayerCount: 2
Fore
SplineSet
244 774 m 1
 244 775 l 1
 388 897 l 1
 389 897 l 1
 532 775 l 1
 532 774 l 1
 494 731 l 1
 389 830 l 1
 388 830 l 1
 282 731 l 1
 244 774 l 1
EndSplineSet
Refer: 89 79 S 1 0 0 1 -0 0 3
AlternateSubs2: "Stilistic set 01 subtable" Ocircumflex.vn
AlternateSubs2: "Latin alternatives subtable" Ocircumflex.vn
Substitution2: "Latin Vietnamese substitutions subtable" Ocircumflex.vn
Substitution2: "LC caps to smallcaps subtable" Ocircumflex.sc
EndChar

StartChar: Otilde
Encoding: 213 213 223
Width: 778
Flags: HW
TeX: 891 0
HStem: -11 63<282.176 492.395> 633 61<282.174 495.352> 755 86<397.684 507.897> 805 86<268.061 378.782>
VStem: 55 78<219.527 476.841> 643 78<215.198 476.683>
AnchorPoint: "below" 387 0 basechar 0
AnchorPoint: "above" 389 872 basechar 0
LayerCount: 2
Fore
SplineSet
194 792 m 1
 236 845 267 891 315 891 c 0xdc
 366 891 404 841 455 841 c 0
 496 841 527 881 537 892 c 1
 582 855 l 1
 540 802 510 755 462 755 c 0xec
 411 755 372 805 321 805 c 0xdc
 280 805 250 766 240 755 c 1xec
 194 792 l 1
EndSplineSet
Refer: 89 79 S 1 0 0 1 -0 -0 3
AlternateSubs2: "Stilistic set 01 subtable" Otilde.vn
AlternateSubs2: "Latin alternatives subtable" Otilde.vn
Substitution2: "Latin Vietnamese substitutions subtable" Otilde.vn
Substitution2: "LC caps to smallcaps subtable" Otilde.sc
EndChar

StartChar: Odieresis
Encoding: 214 214 224
Width: 778
Flags: HW
TeX: 891 0
HStem: -11 63<282.176 492.395> 633 61<282.174 495.352> 761 105<249.387 332.803 443.836 527.588>
VStem: 55 78<219.527 476.841> 239 105<771.836 854.921> 433 105<771.387 855.229> 643 78<215.198 476.683>
AnchorPoint: "below" 387 0 basechar 0
AnchorPoint: "above" 389 846 basechar 0
LayerCount: 2
Fore
SplineSet
239 813 m 0
 239 844 264 866 291 866 c 0
 318 866 344 843 344 813 c 0
 344 783 318 761 291 761 c 0
 260 761 239 786 239 813 c 0
433 813 m 0
 433 843 458 866 485 866 c 0
 512 866 538 844 538 813 c 0
 538 782 512 761 486 761 c 0
 455 761 433 785 433 813 c 0
EndSplineSet
Refer: 89 79 S 1 0 0 1 0 -0 3
Substitution2: "LC caps to smallcaps subtable" Odieresis.sc
EndChar

StartChar: OE
Encoding: 338 338 225
Width: 1008
Flags: HW
TeX: 683 0
HStem: -11 59<292.071 477.93> -0 59<580 880.853> 325 59<580 784.341> 625 58<580 865.402> 636 58<291.092 475.383>
VStem: 63 76<223.144 476.792> 508 72<80.3477 325 384 601.786> 789 59<209 321.173 388.326 501> 893 59<430 493.25> 921 58<236.341 285>
AnchorPoint: "above" 543 694 basechar 0
LayerCount: 2
Fore
SplineSet
63 338 m 0
 63 553 196 694 395 694 c 0xaf40
 450 694 482 683 555 683 c 2
 924 683 l 1
 952 430 l 1
 893 430 l 1x3780
 873 613 871 613 838 619 c 0
 813 623 775 625 712 625 c 2
 580 625 l 1
 580 384 l 1
 667 384 l 2
 787 384 783 384 787 426 c 0
 789 447 789 469 789 490 c 2
 789 501 l 1
 848 501 l 1
 848 209 l 1
 789 209 l 1
 789 219 l 2
 789 309 788 318 763 322 c 0
 743 325 700 325 658 325 c 2
 580 325 l 1
 580 59 l 1
 721 59 l 2
 872 59 879 67 888 97 c 0
 899 137 911 222 921 285 c 1
 979 285 l 1
 938 -0 l 1
 556 -0 l 2x7740
 483 0 451 -11 395 -11 c 0
 199 -11 63 123 63 338 c 0
139 354 m 0
 139 167 243 48 399 48 c 0
 504 48 508 95 508 253 c 2
 508 428 l 2
 508 584 504 636 400 636 c 0xaf
 240 636 139 527 139 354 c 0
EndSplineSet
Substitution2: "LC caps to smallcaps subtable" OE.sc
EndChar

StartChar: Oslash
Encoding: 216 216 226
Width: 778
Flags: HW
TeX: 731 48
HStem: -11 59<274.116 501.485> 635 59<275.49 501.918>
VStem: 55 72<202.426 477.371> 650 71<203.33 476.509>
DStem2: 124 -33 176 -65 0.521229 0.853417<0 106.386 166.011 747.033 807.807 914.624>
LayerCount: 2
Fore
SplineSet
55 338 m 0
 55 556 189 694 388 694 c 0
 451 694 501 680 546 659 c 1
 600 748 l 1
 601 748 l 1
 653 716 l 1
 599 626 l 1
 640 592 721 512 721 339 c 0
 721 127 588 -11 388 -11 c 0
 325 -11 275 3 230 24 c 1
 176 -65 l 1
 124 -33 l 1
 177 56 l 1
 92 121 55 229 55 338 c 0
127 338 m 0
 127 201 178 138 210 109 c 1
 515 608 l 1
 474 626 439 635 388 635 c 0
 271 635 127 576 127 338 c 0
261 75 m 1
 319 49 363 48 388 48 c 0
 508 48 650 110 650 338 c 0
 650 479 600 540 566 573 c 1
 565 573 l 1
 261 75 l 1
EndSplineSet
Substitution2: "LC caps to smallcaps subtable" Oslash.sc
EndChar

StartChar: Ugrave
Encoding: 217 217 227
Width: 739
Flags: HW
TeX: 855 0
HStem: -11 59<288.604 465.104> 625 58<48 137 213 302 453 543 601 690>
VStem: 137 76<129.19 625> 543 58<130.544 625>
AnchorPoint: "below" 373 0 basechar 0
AnchorPoint: "above" 369 851 basechar 0
LayerCount: 2
Fore
SplineSet
259 824 m 0
 259 840 272 860 293 860 c 2
 294 860 l 2
 305 860 306 859 465 780 c 1
 441 726 l 1
 427 731 412 737 300 784 c 0
 285 790 259 799 259 824 c 0
EndSplineSet
Refer: 95 85 S 1 0 0 1 -0 0 3
AlternateSubs2: "Stilistic set 01 subtable" Ugrave.vn
AlternateSubs2: "Latin alternatives subtable" Ugrave.vn
Substitution2: "Latin Vietnamese substitutions subtable" Ugrave.vn
Substitution2: "LC caps to smallcaps subtable" Ugrave.sc
EndChar

StartChar: Uacute
Encoding: 218 218 228
Width: 739
Flags: HW
TeX: 855 0
HStem: -11 59<288.604 465.104> 625 58<48 137 213 302 453 543 601 690>
VStem: 137 76<129.19 625> 543 58<130.544 625>
AnchorPoint: "below" 373 0 basechar 0
AnchorPoint: "above" 369 851 basechar 0
LayerCount: 2
Fore
SplineSet
315 780 m 1
 461 852 474 860 487 860 c 0
 508 860 521 840 521 824 c 0
 521 799 495 790 480 784 c 0
 368 737 353 731 339 726 c 1
 315 780 l 1
EndSplineSet
Refer: 95 85 S 1 0 0 1 0 0 3
AlternateSubs2: "Stilistic set 01 subtable" Uacute.vn
AlternateSubs2: "Latin alternatives subtable" Uacute.vn
Substitution2: "Latin Vietnamese substitutions subtable" Uacute.vn
Substitution2: "LC caps to smallcaps subtable" Uacute.sc
EndChar

StartChar: Ucircumflex
Encoding: 219 219 229
Width: 739
Flags: HW
TeX: 891 0
HStem: -11 59<288.604 465.104> 625 58<48 137 213 302 453 543 601 690>
VStem: 137 76<129.19 625> 543 58<130.544 625>
AnchorPoint: "below" 373 0 basechar 0
AnchorPoint: "above" 369 888 basechar 0
LayerCount: 2
Fore
SplineSet
229 775 m 1
 373 897 l 1
 374 897 l 1
 518 775 l 1
 479 731 l 1
 478 731 l 1
 374 830 l 1
 373 830 l 1
 268 731 l 1
 229 775 l 1
EndSplineSet
Refer: 95 85 S 1 0 0 1 0 0 3
Substitution2: "LC caps to smallcaps subtable" Ucircumflex.sc
EndChar

StartChar: Udieresis
Encoding: 220 220 230
Width: 739
Flags: HW
TeX: 891 0
HStem: -11 59<288.604 465.104> 625 58<48 137 213 302 453 543 601 690> 761 105<229.77 313.613 424.836 508.648>
VStem: 137 76<129.19 625> 219 105<771.073 855.229> 414 105<771.387 855.229> 543 58<130.544 625>
AnchorPoint: "below" 373 0 basechar 0
AnchorPoint: "above" 369 857 basechar 0
LayerCount: 2
Fore
SplineSet
219 813 m 0
 219 844 245 866 272 866 c 0
 303 866 324 840 324 813 c 0
 324 783 299 761 272 761 c 0
 241 761 219 786 219 813 c 0
414 813 m 0
 414 843 439 866 466 866 c 0
 494 866 519 844 519 813 c 0
 519 782 493 761 467 761 c 0
 436 761 414 786 414 813 c 0
EndSplineSet
Refer: 95 85 S 1 0 0 1 0 -0 3
Substitution2: "LC caps to smallcaps subtable" Udieresis.sc
EndChar

StartChar: Yacute
Encoding: 221 221 231
Width: 739
Flags: HW
TeX: 855 0
ItalicCorrection: 24
HStem: 0 59<244 333 405 494> 625 58<15 107 193 251 503 561 631 723>
VStem: 333 72<59 305.703>
DStem2: 193 625 107 625 0.540123 -0.841586<0 340.918> 377 338 416 290 0.540123 0.841586<0 340.918>
AnchorPoint: "below" 368 0 basechar 0
AnchorPoint: "above" 368 851 basechar 0
LayerCount: 2
Fore
SplineSet
315 780 m 1
 461 852 474 860 487 860 c 0
 508 860 521 840 521 824 c 0
 521 799 495 790 480 784 c 0
 368 737 353 731 339 726 c 1
 315 780 l 1
EndSplineSet
Refer: 99 89 S 1 0 0 1 0 0 3
AlternateSubs2: "Stilistic set 01 subtable" Yacute.vn
AlternateSubs2: "Latin alternatives subtable" Yacute.vn
Substitution2: "Latin Vietnamese substitutions subtable" Yacute.vn
Substitution2: "LC caps to smallcaps subtable" Yacute.sc
EndChar

StartChar: Thorn
Encoding: 222 222 232
Width: 619
Flags: HW
TeX: 683 0
HStem: -0 59<51 140 210 298> 178 58<210 420.506> 504 58<210 427.096> 625 58<51 140 210 298>
VStem: 140 70<59 178 236 504 562 625> 488 75<298.524 445.788>
LayerCount: 2
Fore
SplineSet
51 -0 m 1
 51 59 l 1
 140 59 l 1
 140 625 l 1
 51 625 l 1
 51 683 l 1
 298 683 l 1
 298 625 l 1
 210 625 l 1
 210 562 l 1
 343 562 l 2
 532 562 563 439 563 370 c 0
 563 294 523 178 348 178 c 2
 210 178 l 1
 210 59 l 1
 298 59 l 1
 298 -0 l 1
 51 -0 l 1
210 236 m 1
 321 236 l 2
 459 236 488 319 488 371 c 0
 488 416 467 504 330 504 c 2
 210 504 l 1
 210 236 l 1
EndSplineSet
Substitution2: "LC caps to smallcaps subtable" Thorn.sc
EndChar

StartChar: Germandbls
Encoding: 61699 61699 233
Width: 1111
Flags: HW
TeX: 683 0
HStem: -11 59<203.53 380.45 757.382 935.808> 638 56<171.404 332.341 727.041 887.882>
VStem: 55 68<457.873 589.726> 55 57<135.938 226.993> 432 67<101.462 247.218> 610 68<457.873 589.941> 610 57<138.33 226.993> 987 68<101.618 247.024>
DStem2: 189 420 167 347 0.957305 -0.28908<-49.8192 257.912> 744 420 722 347 0.957991 -0.2868<-49.9699 255.29>
LayerCount: 2
Fore
SplineSet
55 9 m 2
 55 207 l 2
 55 223 59 226 75 227 c 1
 89 227 l 2
 97 227 108 228 112 219 c 0xd9
 117 209 109 138 173 88 c 0
 213 57 263 48 301 48 c 0
 405 48 432 126 432 175 c 0
 432 233 399 273 361 292 c 0
 328 309 213 327 167 347 c 0
 110 372 55 430 55 513 c 0
 55 615 127 694 249 694 c 0
 348 694 393 645 414 622 c 1
 441 686 442 694 457 694 c 0
 471 694 471 683 471 673 c 2
 471 475 l 1
 470 456 464 456 451 456 c 2
 442 456 l 2
 433 456 419 454 414 463 c 0
 408 474 405 638 250 638 c 0
 173 638 123 590 123 523 c 0xe9
 123 461 170 430 189 420 c 0
 225 402 341 384 387 363 c 0
 425 345 499 291 499 183 c 0
 499 84 438 -11 302 -11 c 0
 188 -11 134 40 112 61 c 1xd9
 84 -10 81 -10 70 -10 c 0
 58 -10 55 -3 55 9 c 2
610 10 m 2
 610 207 l 2
 610 223 614 226 630 227 c 1
 644 227 l 2
 652 227 663 228 667 219 c 0xcb
 671 211 665 48 858 48 c 0
 947 48 987 109 987 175 c 0
 987 232 953 273 916 292 c 0
 885 308 768 327 722 347 c 0
 665 372 610 430 610 513 c 0
 610 616 684 694 805 694 c 0
 904 694 949 645 969 622 c 1
 996 686 997 694 1012 694 c 0
 1026 694 1027 683 1027 673 c 2
 1027 475 l 1
 1026 456 1019 456 1006 456 c 2
 997 456 l 2
 988 456 975 454 970 463 c 0
 964 474 960 638 805 638 c 0
 728 638 678 590 678 523 c 0
 678 461 725 430 744 420 c 0
 780 402 896 384 942 363 c 0
 980 345 1055 291 1055 183 c 0
 1055 84 993 -11 858 -11 c 0
 744 -11 690 40 668 61 c 1
 640 -10 636 -10 625 -10 c 0xcd
 611 -10 610 0 610 10 c 2
EndSplineSet
Substitution2: "LC caps to smallcaps subtable" Germandbls.sc
EndChar

StartChar: agrave
Encoding: 224 224 234
Width: 489
Flags: HW
TeX: 666 0
HStem: -6 59<143.626 273.83 402.518 483.968> 238 51<190.22 325> 408 58<155.982 294.928>
VStem: 45 70<82.4084 182.712> 76 80<362.235 404.559> 325 70<88.2472 238 289 378.174>
AnchorPoint: "below" 216 0 basechar 0
AnchorPoint: "above" 216 647 basechar 0
LayerCount: 2
Fore
SplineSet
158 631 m 0xe4
 158 647 173 667 193 667 c 0
 209 667 207 665 350 551 c 1
 315 505 l 1
 302 513 290 522 191 591 c 0
 180 598 158 609 158 631 c 0xe4
EndSplineSet
Refer: 107 97 S 1 0 0 1 0 0 3
AlternateSubs2: "Stilistic set 01 subtable" agrave.vn
AlternateSubs2: "Latin alternatives subtable" agrave.vn
Substitution2: "Latin Vietnamese substitutions subtable" agrave.vn
Substitution2: "LC small to smallcaps subtable" Agrave.sc
EndChar

StartChar: acircumflex
Encoding: 226 226 236
Width: 489
Flags: HW
TeX: 666 0
HStem: -6 59<143.626 273.83 402.518 483.968> 238 51<190.22 325> 408 58<155.982 294.928>
VStem: 45 70<82.4084 182.712> 76 80<362.235 404.559> 325 70<88.2472 238 289 378.174>
AnchorPoint: "below" 216 0 basechar 0
AnchorPoint: "above" 216 652 basechar 0
LayerCount: 2
Fore
SplineSet
76 542 m 1
 221 672 l 1
 222 672 l 1
 366 542 l 1
 326 499 l 1
 222 605 l 1
 221 605 l 1xec
 116 499 l 1
 76 542 l 1
EndSplineSet
Refer: 107 97 S 1 0 0 1 0 0 3
AlternateSubs2: "Stilistic set 01 subtable" acircumflex.vn
AlternateSubs2: "Latin alternatives subtable" acircumflex.vn
Substitution2: "Latin Vietnamese substitutions subtable" acircumflex.vn
Substitution2: "LC small to smallcaps subtable" Acircumflex.sc
EndChar

StartChar: adieresis
Encoding: 228 228 238
Width: 489
Flags: HW
TeX: 683 0
HStem: -6 59<143.626 273.83 402.518 483.968> 238 51<190.22 325> 408 58<155.982 294.928> 578 105<110.387 194.588 303.412 388.206>
VStem: 45 70<82.4084 182.712> 76 80<362.235 404.559> 100 105<588.387 672.229> 293 105<588.387 672.229> 325 70<88.2472 238 289 378.174>
AnchorPoint: "below" 216 0 basechar 0
AnchorPoint: "above" 216 663 basechar 0
LayerCount: 2
Fore
SplineSet
100 630 m 0
 100 657 121 683 152 683 c 0
 179 683 205 661 205 630 c 0
 205 599 179 578 153 578 c 0xf2
 122 578 100 602 100 630 c 0
EndSplineSet
Refer: 21 729 S 1 0 0 1 194 -12 2
Refer: 107 97 S 1 0 0 1 0 0 3
Substitution2: "LC small to smallcaps subtable" Adieresis.sc
EndChar

StartChar: aring
Encoding: 229 229 239
Width: 489
Flags: HW
TeX: 666 0
HStem: -6 59<143.626 273.83 402.518 483.968> 238 51<190.22 325> 408 58<155.982 294.928> 501 35<175.955 267.105> 640 35<177.374 267.318>
VStem: 45 70<82.4084 182.712> 76 80<362.235 404.559> 111 56<542.767 632.436> 277 55<543.153 632.928> 325 70<88.2472 238 289 378.174>
LayerCount: 2
Fore
SplineSet
111 588 m 0
 111 638 152 675 222 675 c 0
 308 675 332 623 332 588 c 0
 332 553 308 501 221 501 c 0
 135 501 111 553 111 588 c 0
167 588 m 0
 167 559 177 536 220 536 c 0
 253 536 277 546 277 588 c 0
 277 617 266 640 223 640 c 0xf980
 191 640 167 629 167 588 c 0
EndSplineSet
Refer: 107 97 S 1 0 0 1 -0 -0 3
Substitution2: "LC small to smallcaps subtable" Aring.sc
EndChar

StartChar: ae
Encoding: 230 230 240
Width: 722
Flags: HW
TeX: 458 0
HStem: -6 59<146.164 286.922 479.735 606.155> 221 55<186.522 326> 240 55<402 633> 408 58<157.588 293.534 456.219 592.18>
VStem: 48 70<79.2682 171.797> 77 80<362.167 404.823> 326 70<135.953 221> 633 59<81.3897 142.776 295 363.503>
AnchorPoint: "below" 371 0 basechar 0
AnchorPoint: "above" 358 466 basechar 0
LayerCount: 2
Fore
SplineSet
48 125 m 0
 48 214 138 264 274 274 c 0
 291 275 309 275 326 276 c 1
 326 317 l 2
 326 353 311 408 212 408 c 0
 201 408 179 407 157 405 c 1
 158 366 133 358 117 358 c 0
 95 358 77 374 77 399 c 0
 77 463 169 466 216 466 c 0
 312 466 350 431 376 395 c 1
 405 432 456 466 528 466 c 0
 661 466 694 352 694 268 c 0
 694 241 683 240 666 240 c 2
 396 240 l 1xb7
 396 82 502 56 563 56 c 0
 581 56 611 58 633 123 c 0
 640 144 651 143 665 143 c 0
 680 143 692 141 692 126 c 0
 692 100 648 -5 539 -5 c 0
 478 -5 417 18 373 75 c 1
 372 75 l 1
 325 14 235 -6 159 -6 c 0
 70 -6 48 84 48 125 c 0
118 127 m 0xdb
 118 95 148 53 211 53 c 0
 250 53 329 72 329 146 c 0
 329 153 329 161 326 221 c 1
 155 218 118 165 118 127 c 0xdb
402 295 m 1
 633 295 l 1
 626 353 602 408 527 408 c 0xb3
 504 408 423 401 402 295 c 1
EndSplineSet
Substitution2: "LC small to smallcaps subtable" AE.sc
EndChar

StartChar: ccedilla
Encoding: 231 231 241
Width: 444
Flags: HW
TeX: 458 170
HStem: -210 58<131 282.125> -60 116<217.162 283.308> 405 62<175.733 322.97>
VStem: 37 76<132.866 336.753> 297 71<-134.301 -72.38> 324 81<362.487 401.502>
AnchorPoint: "above" 258 466 basechar 0
LayerCount: 2
Fore
SplineSet
37 230 m 0
 37 334 88 467 258 467 c 0
 345 467 405 453 405 399 c 0
 405 372 384 358 364 358 c 0
 350 358 324 366 324 402 c 1xf4
 302 404 282 405 260 405 c 2
 258 405 l 2
 141 405 113 317 113 231 c 0
 113 91 207 56 274 56 c 0
 343 56 351 122 362 132 c 0
 364 134 377 137 390 137 c 0
 403 137 414 134 414 124 c 0
 414 111 388 20 285 -2 c 1
 285 -11 l 1
 345 -32 368 -69 368 -107 c 0
 368 -211 218 -206 131 -210 c 1
 131 -152 l 1xf8
 139 -152 147 -152 155 -152 c 0
 204 -152 297 -150 297 -106 c 0xf8
 297 -87 285 -62 215 -60 c 1
 215 -3 l 1
 103 14 37 105 37 230 c 0
EndSplineSet
Substitution2: "LC small to smallcaps subtable" Ccedilla.sc
EndChar

StartChar: ecircumflex
Encoding: 234 234 244
Width: 444
Flags: HW
TeX: 666 0
HStem: -5 61<182.707 326.545> 240 55<112 355> 408 58<166.026 308.034>
VStem: 31 75<136.253 240> 354 60<85.5506 142.587 295 359.007>
AnchorPoint: "below" 247 0 basechar 0
AnchorPoint: "above" 236 652 basechar 0
LayerCount: 2
Fore
SplineSet
76 542 m 1
 221 672 l 1
 222 672 l 1
 366 542 l 1
 326 499 l 1
 222 605 l 1
 221 605 l 1
 116 499 l 1
 76 542 l 1
EndSplineSet
Refer: 111 101 S 1 0 0 1 0 0 3
AlternateSubs2: "Stilistic set 01 subtable" ecircumflex.vn
AlternateSubs2: "Latin alternatives subtable" ecircumflex.vn
Substitution2: "Latin Vietnamese substitutions subtable" ecircumflex.vn
Substitution2: "LC small to smallcaps subtable" Ecircumflex.sc
EndChar

StartChar: igrave
Encoding: 236 236 246
Width: 283
Flags: HW
TeX: 666 0
HStem: -0 59<30 113 180 255> 391 59<34 107> 444 20<34 180>
VStem: 113 67<59 389.155>
AnchorPoint: "below" 146 0 basechar 0
AnchorPoint: "above" 146 649 basechar 0
LayerCount: 2
Fore
SplineSet
1 631 m 0x90
 1 647 15 667 35 667 c 2
 38 667 l 2
 50 667 52 663 192 551 c 1
 157 505 l 1
 144 513 132 522 33 591 c 0
 26 596 1 609 1 631 c 0x90
EndSplineSet
Refer: 35 305 S 1 0 0 1 0 -0 3
AlternateSubs2: "Stilistic set 01 subtable" igrave.vn
AlternateSubs2: "Latin alternatives subtable" igrave.vn
Substitution2: "Latin Vietnamese substitutions subtable" igrave.vn
Substitution2: "LC small to smallcaps subtable" Igrave.sc
Ligature2: "Latin ligatures excepting Turkic subtable" i gravecomb
EndChar

StartChar: icircumflex
Encoding: 238 238 248
Width: 283
Flags: HW
TeX: 666 0
HStem: -0 59<29 112 179 254> 391 59<33 106> 444 20<33 179>
VStem: 1 290 112 67<59 389.155>
AnchorPoint: "below" 146 0 basechar 0
AnchorPoint: "above" 146 654 basechar 0
LayerCount: 2
Fore
SplineSet
1 541 m 1
 1 542 l 1
 146 672 l 1
 291 542 l 1
 291 541 l 1
 251 500 l 1
 250 500 l 1
 146 605 l 1x90
 42 500 l 1
 41 500 l 1
 1 541 l 1
EndSplineSet
Refer: 35 305 S 1 0 0 1 -1 -0 2
Substitution2: "LC small to smallcaps subtable" Icircumflex.sc
Ligature2: "Latin ligatures excepting Turkic subtable" i uni0302
EndChar

StartChar: idieresis
Encoding: 239 239 249
Width: 339
Flags: HW
TeX: 683 0
HStem: 0 59<57 140 207 282> 391 59<61 134> 444 20<61 207> 578 105<34.7705 118.922 229.77 313.588>
VStem: 24 105<588.412 672.229> 140 67<59 389.155> 219 105<588.387 672.229>
AnchorPoint: "above" 174 663 basechar 0
LayerCount: 2
Fore
SplineSet
24 630 m 0
 24 661 50 683 77 683 c 0
 109 683 129 657 129 631 c 0
 129 604 109 578 77 578 c 0
 46 578 24 603 24 630 c 0
219 630 m 0
 219 657 240 683 271 683 c 0
 298 683 324 661 324 630 c 0
 324 599 298 578 272 578 c 0x9e
 241 578 219 604 219 630 c 0
EndSplineSet
Refer: 35 305 S 1 0 0 1 27 0 2
Substitution2: "LC small to smallcaps subtable" Idieresis.sc
Ligature2: "Latin ligatures excepting Turkic subtable" i uni0308
EndChar

StartChar: eth
Encoding: 240 240 250
Width: 500
Flags: HW
TeX: 694 0
HStem: -5 61<170.496 324.676> 408 58<168.139 325.173> 650 43<70.9872 135.773>
VStem: 31 76<128.601 339.493> 391 76<126.95 333.319>
LayerCount: 2
Fore
SplineSet
31 227 m 0
 31 392 139 466 248 466 c 0
 288 466 316 457 342 444 c 1
 304 511 265 545 227 577 c 1
 175 547 156 533 145 533 c 0
 133 533 118 568 118 575 c 0
 118 583 122 585 171 613 c 1
 89 652 99 640 72 650 c 0
 66 652 63 656 63 659 c 0
 63 667 90 693 105 693 c 0
 122 693 183 675 230 647 c 1
 283 675 301 692 313 692 c 0
 326 692 342 658 342 651 c 0
 342 643 337 640 286 611 c 1
 320 582 344 563 378 517 c 0
 432 445 467 359 467 253 c 2
 467 244 l 2
 467 28 326 -5 249 -5 c 0
 120 -5 31 84 31 227 c 0
107 237 m 0
 107 83 192 56 249 56 c 0
 306 56 391 85 391 232 c 0
 391 340 339 408 248 408 c 0
 155 408 107 347 107 237 c 0
EndSplineSet
Substitution2: "LC small to smallcaps subtable" Eth.sc
EndChar

StartChar: ocircumflex
Encoding: 244 244 254
Width: 500
Flags: HW
TeX: 666 0
HStem: -5 61<170.129 327.744> 408 58<169.138 328.915>
VStem: 31 75<128.339 340.68> 391 76<125.549 338.155>
AnchorPoint: "below" 249 0 basechar 0
AnchorPoint: "above" 248 652 basechar 0
LayerCount: 2
Fore
SplineSet
104 542 m 1
 249 672 l 1
 250 672 l 1
 394 542 l 1
 354 499 l 1
 250 605 l 1
 249 605 l 1
 144 499 l 1
 104 542 l 1
EndSplineSet
Refer: 121 111 S 1 0 0 1 0 0 3
AlternateSubs2: "Stilistic set 01 subtable" ocircumflex.vn
AlternateSubs2: "Latin alternatives subtable" ocircumflex.vn
Substitution2: "Latin Vietnamese substitutions subtable" ocircumflex.vn
Substitution2: "LC small to smallcaps subtable" Ocircumflex.sc
EndChar

StartChar: oe
Encoding: 339 339 257
Width: 778
Flags: HW
TeX: 458 0
HStem: -5 58<167.191 315.399 534.196 662.664> 240 55<456 688> 408 58<161.459 319.323 511.444 647.18>
VStem: 31 70<125.134 340.75> 381 70<138.303 240> 683 65<75.0781 141.575 295 371.26>
AnchorPoint: "below" 390 0 basechar 0
AnchorPoint: "above" 409 466 basechar 0
LayerCount: 2
Fore
SplineSet
31 232 m 0
 31 377 119 466 241 466 c 0
 346 466 394 404 415 373 c 1
 468 459 549 466 583 466 c 0
 716 466 749 353 749 268 c 0
 749 241 737 240 722 240 c 2
 451 240 l 1
 451 80 558 56 618 56 c 0
 635 56 664 61 683 107 c 0
 696 139 691 142 720 143 c 0
 741 143 748 136 748 125 c 0
 748 105 708 -5 594 -5 c 0
 562 -5 474 2 416 91 c 1
 364 2 274 -5 241 -5 c 0
 123 -5 31 80 31 232 c 0
101 236 m 0
 101 81 185 53 241 53 c 0
 297 53 381 81 381 238 c 0
 381 382 297 408 241 408 c 0
 167 408 101 367 101 236 c 0
456 295 m 1
 688 295 l 1
 681 353 657 408 582 408 c 0
 559 408 477 401 456 295 c 1
EndSplineSet
Substitution2: "LC small to smallcaps subtable" OE.sc
EndChar

StartChar: oslash
Encoding: 248 248 258
Width: 500
Flags: HW
TeX: 556 97
HStem: -5 58<192.098 331.267> 408 58<167.746 308.008>
VStem: 36 66<121.191 335.833> 396 67<122.894 338.201>
DStem2: 44 -83 95 -111 0.482794 0.875734<0.101924 143.229 203.194 542.568 603.608 744.886>
LayerCount: 2
Fore
SplineSet
36 227 m 0
 36 375 124 466 249 466 c 0
 284 466 310 459 337 449 c 1
 404 570 l 1
 405 570 l 1
 455 541 l 1
 387 418 l 1
 412 395 463 342 463 227 c 0
 463 81 374 -5 250 -5 c 0
 216 -5 188 1 162 11 c 1
 95 -111 l 1
 44 -83 l 1
 112 41 l 1
 87 62 36 116 36 227 c 0
102 227 m 0
 102 177 109 133 142 95 c 1
 309 397 l 1
 292 403 273 408 249 408 c 0
 190 408 102 383 102 227 c 0
191 63 m 1
 210 57 230 53 250 53 c 0
 304 53 396 73 396 226 c 0
 396 295 383 330 358 364 c 1
 357 364 l 1
 191 63 l 1
EndSplineSet
Substitution2: "LC small to smallcaps subtable" Oslash.sc
EndChar

StartChar: ucircumflex
Encoding: 251 251 261
Width: 561
Flags: HW
TeX: 666 0
HStem: -5 58<194.837 330.123 460.048 542> 391 59<28 104.5 306 382.5> 444 20<28 181 306 459>
VStem: 111 70<68.0783 388.973> 389 70<103.982 389.001>
AnchorPoint: "below" 285 0 basechar 0
AnchorPoint: "above" 285 654 basechar 0
LayerCount: 2
Fore
SplineSet
140 542 m 1
 285 672 l 1
 286 672 l 1x98
 430 542 l 1
 390 500 l 1
 389 500 l 1
 286 605 l 1
 285 605 l 1
 181 500 l 1
 180 500 l 1
 140 542 l 1
EndSplineSet
Refer: 127 117 S 1 0 0 1 0 -0 3
Substitution2: "LC small to smallcaps subtable" Ucircumflex.sc
EndChar

StartChar: udieresis
Encoding: 252 252 262
Width: 561
Flags: HW
TeX: 683 0
HStem: -5 58<194.837 330.123 460.048 542> 391 59<28 104.5 306 382.5> 444 20<28 181 306 459> 578 105<145.77 229.648 340.387 423.779>
VStem: 111 70<68.0783 388.973> 135 105<588.387 672.229> 330 105<589.197 672.648> 389 70<103.982 389.001>
AnchorPoint: "below" 285 0 basechar 0
AnchorPoint: "above" 285 665 basechar 0
LayerCount: 2
Fore
SplineSet
135 630 m 0
 135 657 157 683 188 683 c 0
 215 683 240 661 240 630 c 0x94
 240 599 214 578 188 578 c 0
 157 578 135 604 135 630 c 0
330 630 m 0
 330 661 355 683 382 683 c 0
 414 683 435 657 435 631 c 0
 435 604 412 578 382 578 c 0x92
 351 578 330 602 330 630 c 0
EndSplineSet
Refer: 127 117 S 1 0 0 1 0 0 3
Substitution2: "LC small to smallcaps subtable" Udieresis.sc
EndChar

StartChar: thorn
Encoding: 254 254 264
Width: 561
Flags: HW
TeX: 694 194
HStem: -195 59<24 107 177 260> -5 58<235.709 374.188> 402 61<236.803 382.049> 627 59<24 99>
VStem: 107 70<-136 55 106.177 357.959 408 624.986> 447 76<129.481 328.177>
LayerCount: 2
Fore
SplineSet
24 -136 m 1
 107 -136 l 1
 107 594 l 2
 107 622 109 627 41 627 c 2
 24 627 l 1
 24 686 l 1
 174 700 l 1
 174 408 l 1
 233 450 301 463 357 463 c 0
 468 463 523 362 523 231 c 0
 523 52 418 -5 333 -5 c 0
 266 -5 215 22 177 55 c 1
 177 -136 l 1
 260 -136 l 1
 260 -195 l 1
 24 -195 l 1
 24 -136 l 1
177 163 m 2
 177 118 227 53 301 53 c 0
 370 53 447 103 447 229 c 0
 447 355 376 402 309 402 c 0
 251 402 177 365 177 311 c 2
 177 163 l 2
EndSplineSet
Substitution2: "LC small to smallcaps subtable" Thorn.sc
EndChar

StartChar: germandbls
Encoding: 223 223 265
Width: 503
Flags: HW
TeX: 694 0
HStem: -5 59<24 107 307.86 388.181> 400 58<24 107> 641 59<191.18 314.413>
VStem: 24 150<0 59 400 458> 107 67<59 400 458 625.173> 230 65<63.1183 176.823 289.226 405.973> 333 58<466.563 623.603> 404 65<68.4246 185.91>
LayerCount: 2
Fore
SplineSet
24 -0 m 1
 24 59 l 1xf7
 107 59 l 1
 107 400 l 1xef
 24 400 l 1
 24 458 l 1xf7
 107 458 l 1
 107 557 l 2
 107 636 137 700 252 700 c 0
 363 700 391 634 391 555 c 0
 391 479 376 424 342 413 c 0
 326 408 295 414 295 348 c 0
 295 268 341 286 386 267 c 0
 419 253 469 214 469 133 c 0
 469 23 398 -5 340 -5 c 0
 310 -5 293 3 271 22 c 1
 268 17 259 -5 245 -5 c 0
 242 -5 238 -4 234 -1 c 0
 229 3 230 13 230 21 c 2
 230 150 l 2
 230 175 233 177 260 177 c 2xef
 268 177 l 2
 279 177 287 176 290 159 c 0
 297 100 302 54 342 54 c 0
 367 54 404 68 404 127 c 0
 404 172 378 194 360 202 c 0
 333 213 303 208 270 238 c 0
 241 265 230 305 230 341 c 0
 230 443 288 463 332 466 c 1
 333 478 333 491 333 503 c 2
 333 541 l 2
 333 600 326 641 250 641 c 0
 178 641 174 594 174 559 c 2xef
 174 -0 l 1
 24 -0 l 1
EndSplineSet
Substitution2: "LC small to smallcaps subtable" Germandbls.sc
EndChar

StartChar: grave.uc
Encoding: 65542 -1 266
Width: 500
Flags: HW
TeX: 640 0
HStem: 501 134
VStem: 98 205
LayerCount: 2
Fore
SplineSet
98 599 m 0
 98 615 111 635 132 635 c 0
 143 635 144 634 303 555 c 1
 279 501 l 2
 278 501 125 564 114 571 c 0
 105 577 98 585 98 599 c 0
EndSplineSet
EndChar

StartChar: acute.uc
Encoding: 65543 -1 267
Width: 500
Flags: HW
TeX: 640 0
VStem: 195 205
LayerCount: 2
Fore
SplineSet
195 555 m 1
 355 634 354 635 365 635 c 2
 366 635 l 2
 386 635 400 617 400 599 c 0
 400 574 378 567 360 559 c 0
 248 512 233 506 219 501 c 1
 195 555 l 1
EndSplineSet
EndChar

StartChar: tilde.uc
Encoding: 65544 -1 268
Width: 500
Flags: HW
TeX: 666 0
HStem: 530 86<258.899 368.053> 580 86<129.076 240.101>
LayerCount: 2
Fore
SplineSet
55 567 m 1
 97 620 128 666 176 666 c 0x40
 227 666 265 616 316 616 c 0
 348 616 374 639 397 667 c 1
 444 630 l 1
 402 577 371 530 323 530 c 0x80
 272 530 234 580 183 580 c 0x40
 151 580 124 558 101 530 c 1x80
 55 567 l 1
EndSplineSet
EndChar

StartChar: ring.uc
Encoding: 65546 -1 271
Width: 739
Flags: HW
TeX: 666 0
HStem: 469 59<318.27 419.822> 616 58<318.38 419.78>
VStem: 258 56<533.478 610.344> 424 56<533.484 611.658>
LayerCount: 2
Fore
SplineSet
258 572 m 0
 258 634 302 674 369 674 c 0
 435 674 480 634 480 572 c 0
 480 510 436 469 369 469 c 0
 303 469 258 510 258 572 c 0
314 572 m 0
 314 533 338 528 367 528 c 0
 394 528 424 529 424 572 c 0
 424 611 401 616 369 616 c 0
 343 616 314 613 314 572 c 0
EndSplineSet
EndChar

StartChar: twelveudash
Encoding: 61700 61700 272
Width: 667
Flags: HW
TeX: 451 0
ItalicCorrection: 27
HStem: 254 58<0 666>
LayerCount: 2
Fore
SplineSet
0 254 m 1
 0 312 l 1
 666 312 l 1
 666 254 l 1
 0 254 l 1
EndSplineSet
EndChar

StartChar: threequartersemdash
Encoding: 63198 63198 273
Width: 750
Flags: HW
TeX: 451 0
ItalicCorrection: 27
HStem: 254 58<0 750>
LayerCount: 2
Fore
SplineSet
0 254 m 1
 0 312 l 1
 750 312 l 1
 750 254 l 1
 0 254 l 1
EndSplineSet
EndChar

StartChar: arrowleft
Encoding: 8592 8592 274
Width: 1000
Flags: HW
TeX: 373 -126
HStem: 0 21G<240.5 297> 230 40<162 941.985>
VStem: 257 40<0 64.0625 432.335 500>
LayerCount: 2
Fore
SplineSet
55 250 m 1
 81 262 225 324 257 500 c 1
 297 500 l 1
 280 417 246 342 162 270 c 1
 906 270 l 2
 922 270 942 269 942 250 c 0
 942 231 923 230 906 230 c 2
 162 230 l 1
 242 162 278 92 297 0 c 1
 257 0 l 1
 224 186 59 248 55 250 c 1
EndSplineSet
EndChar

StartChar: arrowright
Encoding: 8594 8594 275
Width: 1000
Flags: HW
TeX: 373 -126
HStem: 0 21G<701 757> 230 40<56.0153 837>
VStem: 701 41<0 64.8154 435.808 500>
LayerCount: 2
Fore
SplineSet
56 250 m 0
 56 269 77 270 93 270 c 2
 837 270 l 1
 757 338 720 408 701 500 c 1
 742 500 l 1
 772 334 901 269 943 250 c 1
 903 231 772 168 742 0 c 1
 701 0 l 1
 718 83 753 158 837 230 c 1
 93 230 l 2
 76 230 56 231 56 250 c 0
EndSplineSet
EndChar

StartChar: uni0361.alt
Encoding: 61701 61701 276
Width: 283
Flags: HW
TeX: 688 0
ItalicCorrection: 279
HStem: 607 61<191.846 452.21>
LayerCount: 2
Fore
SplineSet
113 569 m 0
 113 602 155 668 325 668 c 0
 476 668 530 609 530 569 c 0
 530 554 518 555 508 555 c 2
 493 555 l 1
 455 556 492 578 426 596 c 0
 392 605 357 607 322 607 c 2
 321 607 l 2
 301 607 196 607 174 570 c 0
 167 558 170 555 142 555 c 0
 120 555 113 556 113 569 c 0
EndSplineSet
EndChar

StartChar: uni0361
Encoding: 865 865 277
Width: 0
Flags: HW
TeX: 919 0
ItalicCorrection: 306
HStem: 605 61<-125.058 133.447>
VStem: -232 61<519.291 567.485> 175 66<520.068 570.034>
AnchorPoint: "affricate-above" 5 466 mark 0
LayerCount: 2
Fore
SplineSet
-232 535 m 0
 -232 576 -188 666 8 666 c 0
 180 666 241 588 241 536 c 0
 241 520 232 520 221 520 c 2
 217 520 l 2
 214 520 210 519 207 519 c 0
 176 519 189 529 175 551 c 0
 160 574 117 605 5 605 c 0
 -127 605 -162 565 -171 542 c 0
 -177 525 -172 519 -202 519 c 0
 -226 519 -232 520 -232 535 c 0
EndSplineSet
EndChar

StartChar: uni2040.alt
Encoding: 61702 61702 278
Width: 506
Flags: HW
TeX: 688 0
ItalicCorrection: 279
HStem: 607 61<157.483 346.501>
LayerCount: 2
Fore
SplineSet
85 570 m 0
 85 593 109 668 254 668 c 0
 375 668 419 609 419 570 c 0
 419 554 407 555 395 555 c 2
 380 555 l 1
 350 556 372 577 331 595 c 0
 302 608 267 607 251 607 c 0
 209 607 160 600 145 571 c 0
 138 557 141 555 115 555 c 0
 92 555 85 556 85 570 c 0
EndSplineSet
EndChar

StartChar: uni2040
Encoding: 8256 8256 279
Width: 506
Flags: HW
TeX: 688 0
ItalicCorrection: 306
HStem: 605 61<135.873 367.67>
VStem: 30 61<519.291 569.701> 416 59<520.015 566.552>
LayerCount: 2
Fore
SplineSet
30 535 m 0
 30 575 69 666 255 666 c 0
 428 666 475 579 475 536 c 0
 475 518 463 520 451 520 c 2
 436 520 l 1
 419 521 419 525 416 536 c 0
 405 577 348 605 254 605 c 2
 250 605 l 2
 227 605 114 604 91 542 c 0
 85 525 89 519 60 519 c 0
 36 519 30 520 30 535 c 0
EndSplineSet
EndChar

StartChar: uni2422
Encoding: 9250 9250 280
Width: 561
Flags: HW
TeX: 688 0
HStem: -5 58<236.261 381.481> 405 58<234.939 387.486> 622 58<24 94> 675 20G<24 174>
VStem: 107 67<112.277 358.384 409 457 516.147 533.016 593 620.499> 107 59<0 60> 447 76<123.112 338.628>
DStem2: 31 469 69 425 0.757883 0.65239<0.094388 49.5632 189.274 360.214>
LayerCount: 2
Fore
SplineSet
24 622 m 1
 24 680 l 1xea
 174 695 l 1
 174 593 l 1
 304 704 l 1
 342 660 l 1
 193 531 l 2
 177 517 174 515 174 498 c 2
 174 409 l 1xda
 232 450 298 463 353 463 c 0
 467 463 523 360 523 231 c 0
 523 50 415 -5 333 -5 c 0
 263 -5 212 23 171 60 c 1
 166 -0 l 1
 107 -0 l 1xd6
 107 457 l 1xda
 69 425 l 1
 31 469 l 1
 107 535 107 531 107 553 c 2xd6
 107 595 l 2xda
 107 621 97 622 42 622 c 2
 24 622 l 1
177 159 m 2xc2
 177 129 220 53 301 53 c 0
 353 53 447 73 447 228 c 0
 447 356 392 405 310 405 c 0
 251 405 177 368 177 312 c 2
 177 159 l 2xc2
EndSplineSet
EndChar

StartChar: quotesingle
Encoding: 39 39 281
Width: 278
Flags: HW
TeX: 688 0
HStem: 386 315<109 168>
VStem: 98 81<411.998 696.644> 109 59<386 607.683>
LayerCount: 2
Fore
SplineSet
98 656 m 0xc0
 98 695 126 701 138 701 c 0
 155 701 179 693 179 657 c 0xc0
 179 634 169 436 168 386 c 1
 109 386 l 1xa0
 108 440 98 629 98 656 c 0xc0
EndSplineSet
EndChar

StartChar: fraction
Encoding: 8260 8260 284
Width: 500
Flags: HW
TeX: 750 250
DStem2: 124 -36 100 -221 0.340688 0.940177<-204.277 827.264>
LayerCount: 2
Fore
SplineSet
56 -229 m 0
 56 -221 55 -226 124 -36 c 2
 399 722 l 2
 402 732 409 749 424 749 c 0
 434 749 442 740 442 729 c 0
 442 722 439 715 437 709 c 2
 100 -221 l 2
 97 -231 90 -249 75 -249 c 0
 66 -249 56 -241 56 -229 c 0
EndSplineSet
EndChar

StartChar: zerooldstyle
Encoding: 63280 63280 285
Width: 500
Flags: HW
TeX: 451 0
HStem: -11 59<168.235 329.883> 410 59<166.618 333.767>
VStem: 42 75<104.595 360.706> 381 75<102.125 361.115>
LayerCount: 2
Fore
SplineSet
42 221 m 0
 42 340 65 469 250 469 c 0
 426 469 456 349 456 223 c 0
 456 93 415 -11 250 -11 c 0
 83 -11 43 92 42 221 c 0
117 245 m 0
 117 160 114 48 248 48 c 0
 369 48 381 133 381 226 c 2
 381 248 l 2
 381 320 375 410 251 410 c 0
 127 410 117 331 117 245 c 0
EndSplineSet
EndChar

StartChar: oneoldstyle
Encoding: 63281 63281 286
Width: 500
Flags: HW
TeX: 451 0
HStem: -0 59<101 226 296 421> 362 58<96 218.624> 446 20G<255 283>
VStem: 226 70<59 386>
LayerCount: 2
Fore
SplineSet
96 362 m 1
 96 420 l 1
 234 422 238 466 272 466 c 0
 294 466 296 455 296 437 c 2
 296 59 l 1
 421 59 l 1
 421 -0 l 1
 101 -0 l 1
 101 59 l 1
 226 59 l 1
 226 386 l 1
 202 376 174 363 96 362 c 1
EndSplineSet
EndChar

StartChar: twooldstyle
Encoding: 63282 63282 287
Width: 500
Flags: HW
TeX: 451 0
HStem: -0 71<144 372.772> 411 58<135.637 316.859>
VStem: 55 65<342.423 392.403> 372 77<255.065 367.338> 390 59<102 136>
DStem2: 70 72 144 71 0.850265 0.526355<62.3933 357.443>
LayerCount: 2
Fore
SplineSet
44 -0 m 1
 44 33 l 2
 44 53 42 55 70 72 c 2
 217 163 l 1
 271 194 372 235 372 314 c 0xf0
 372 392 274 411 197 411 c 0
 151 411 134 390 120 372 c 1
 120 371 l 1
 127 361 131 351 131 342 c 0
 131 321 113 306 93 306 c 0
 80 306 55 314 55 347 c 0
 55 416 131 469 237 469 c 0
 360 469 449 408 449 316 c 0xf0
 449 219 342 188 264 144 c 1
 144 71 l 1
 256 71 l 2
 373 71 368 72 373 76 c 0
 381 83 385 111 390 136 c 1
 449 136 l 1xe8
 421 -0 l 1
 44 -0 l 1
EndSplineSet
EndChar

StartChar: threeoldstyle
Encoding: 63283 63283 288
Width: 500
Flags: HW
TeX: 451 194
HStem: -205 56<158.037 326.338> -19 20G<76.5 95> 129 66<166.318 299.822> 416 53<164.824 324.2>
VStem: 41 86<-78.8528 -4.70142> 69 83<301.388 369.625> 355 74<252.35 384.733> 379 78<-96.0018 75.1273>
LayerCount: 2
Fore
SplineSet
41 -46 m 0
 41 -9 69 1 84 1 c 0
 106 1 127 -16 127 -42 c 0
 127 -64 111 -76 108 -79 c 1
 146 -148 229 -149 249 -149 c 0
 306 -149 379 -122 379 -10 c 0xf9
 379 67 341 117 274 127 c 0
 261 129 248 129 235 129 c 2
 192 129 l 2
 171 129 166 129 166 153 c 0
 166 156 165 161 165 165 c 0
 165 202 193 182 252 195 c 0
 311 207 355 263 355 325 c 0
 355 382 317 416 249 416 c 0
 175 416 147 382 137 370 c 1
 144 362 152 354 152 337 c 0
 152 312 131 296 110 296 c 0
 96 296 69 305 69 340 c 0
 69 418 153 469 251 469 c 0
 359 469 429 411 429 325 c 0xf6
 429 225 352 175 324 158 c 1
 424 131 457 54 457 -12 c 0
 457 -122 378 -205 251 -205 c 0
 135 -205 41 -136 41 -46 c 0
EndSplineSet
EndChar

StartChar: fouroldstyle
Encoding: 63284 63284 289
Width: 500
Flags: HW
TeX: 451 194
HStem: -195 59<201 298 367 464> 0 59<96 298 367 471>
VStem: 303 64<-136 0 59 395>
LayerCount: 2
Fore
SplineSet
27 0 m 1
 27 14 27 29 27 43 c 0
 27 61 32 67 38 76 c 2
 278 441 l 2
 296 468 298 469 316 470 c 0
 324 470 332 470 340 470 c 0
 359 470 367 465 367 444 c 2
 367 59 l 1
 471 59 l 1
 471 0 l 1
 367 0 l 1
 367 -136 l 1
 464 -136 l 1
 464 -195 l 1
 201 -195 l 1
 201 -136 l 1
 298 -136 l 1
 298 0 l 1
 27 0 l 1
96 59 m 1
 303 59 l 1
 303 395 l 1
 281 336 123 103 96 59 c 1
EndSplineSet
EndChar

StartChar: fiveoldstyle
Encoding: 63285 63285 290
Width: 500
Flags: HW
TeX: 451 194
HStem: -205 56<159.22 315.559> -22 20G<79.5 104> 161 58<183.067 327.79> 368 69<146.704 354.842> 388 79<330.042 401.673>
VStem: 50 82<-77.5781 -6.79736> 87 59<181 377> 374 75<-87.7932 110.076>
LayerCount: 2
Fore
SplineSet
50 -47 m 0
 50 -19 67 -2 92 -2 c 0
 116 -2 132 -23 132 -44 c 0xf5
 132 -60 124 -69 115 -78 c 1
 147 -141 205 -149 236 -149 c 0
 301 -149 374 -118 374 8 c 0
 374 141 307 161 262 161 c 0
 174 161 151 104 137 96 c 0
 133 94 124 92 116 92 c 0
 86 92 87 107 87 124 c 2
 87 446 l 2
 87 455 88 467 98 467 c 0xeb
 110 467 158 437 249 437 c 0xf3
 347 437 383 467 400 467 c 0xeb
 411 467 411 456 411 446 c 2
 411 431 l 2
 411 416 413 408 349 388 c 0xeb
 309 375 266 368 223 368 c 0
 197 368 171 371 146 377 c 1
 146 181 l 1xf3
 179 204 214 219 264 219 c 0
 376 219 449 134 449 8 c 0
 449 -129 355 -205 236 -205 c 0
 123 -205 50 -125 50 -47 c 0
EndSplineSet
EndChar

StartChar: sevenoldstyle
Encoding: 63287 63287 292
Width: 500
Flags: HW
TeX: 451 194
HStem: 386 72<153 402>
VStem: 55 59<289 331.636> 182 78<-200.675 -152.281>
LayerCount: 2
Fore
SplineSet
55 289 m 1
 88 490 l 1
 147 490 l 1
 147 477 l 1
 153 460 l 1
 209 459 l 1
 289 458 l 1
 485 458 l 1
 485 431 l 2
 485 409 485 409 469 387 c 0
 372 252 359 234 348 217 c 0
 247 61 268 -148 260 -176 c 0
 255 -193 239 -205 221 -205 c 0
 202 -205 184 -190 182 -170 c 0
 181 -164 181 -158 181 -152 c 0
 186 117 291 232 402 386 c 1
 244 386 l 1
 133 384 l 1
 123 354 120 322 114 289 c 1
 55 289 l 1
EndSplineSet
EndChar

StartChar: nineoldstyle
Encoding: 63289 63289 294
Width: 500
Flags: HW
TeX: 451 194
HStem: -205 56<137.619 283.572> 19 58<169.853 303.996> 416 53<177.118 315.367>
VStem: 45 76<130.791 355.631> 67 80<-128.533 -64.633> 374 81<58.2062 319.499>
LayerCount: 2
Fore
SplineSet
45 244 m 0xf4
 45 300 52 347 89 393 c 0
 136 452 188 469 253 469 c 0
 318 469 374 436 406 382 c 0
 430 342 455 279 455 139 c 0
 455 -137 306 -205 207 -205 c 0
 97 -205 67 -144 67 -103 c 0
 67 -68 94 -60 108 -60 c 0
 128 -60 147 -75 147 -99 c 0xec
 147 -111 143 -119 136 -129 c 1
 147 -137 164 -149 206 -149 c 0
 256 -149 303 -125 332 -82 c 0
 371 -24 375 44 378 97 c 1
 344 59 291 19 211 19 c 0
 156 19 110 41 73 108 c 0
 48 155 45 203 45 244 c 0xf4
121 224 m 2
 121 157 145 77 241 77 c 0
 327 77 374 152 374 224 c 0
 374 306 350 416 252 416 c 2
 248 416 l 2
 230 416 188 415 155 374 c 0
 123 335 121 296 121 247 c 2xf4
 121 224 l 2
EndSplineSet
EndChar

StartChar: angleleft
Encoding: 9001 9001 295
Width: 389
Flags: HW
TeX: 750 250
VStem: 288 43<-248.572 -222 722 748.572>
DStem2: 157 236 114 235 0.355825 -0.934552<-29.1884 496.975> 115 266 157 265 0.354716 0.934974<-16.1157 509.456>
LayerCount: 2
Fore
SplineSet
111 250 m 0
 111 256 113 261 115 266 c 2
 288 722 l 2
 291 732 298 749 313 749 c 0
 323 749 332 740 332 729 c 0
 332 720 319 692 310 668 c 2
 157 265 l 2
 151 249 153 246 157 236 c 2
 323 -200 l 2
 327 -209 331 -220 331 -230 c 0
 331 -241 322 -249 313 -249 c 0
 298 -249 292 -232 288 -222 c 2
 114 235 l 2
 113 238 111 244 111 250 c 0
EndSplineSet
EndChar

StartChar: minus
Encoding: 8722 8722 296
Width: 778
Flags: HW
TeX: 586 83
HStem: 221 59<57.1562 718.929>
LayerCount: 2
Fore
SplineSet
56 250 m 0
 56 260 61 280 96 280 c 2
 681 280 l 2
 715 280 720 261 720 250 c 0
 720 238 714 221 682 221 c 2
 94 221 l 2
 60 221 56 241 56 250 c 0
EndSplineSet
EndChar

StartChar: angleright
Encoding: 9002 9002 297
Width: 389
Flags: HW
TeX: 750 250
DStem2: 273 266 60 712 0.355825 -0.934552<-509.822 16.1135> 62 -209 99 -222 0.356506 0.934293<-22.343 505.227>
LayerCount: 2
Fore
SplineSet
56 -231 m 0
 56 -223 59 -216 62 -209 c 2
 230 235 l 2
 236 251 235 254 231 265 c 2
 60 712 l 2
 56 722 56 727 56 729 c 0
 56 741 66 749 75 749 c 0
 90 749 95 733 99 723 c 2
 273 266 l 2
 275 261 277 256 277 250 c 0
 277 244 275 239 273 234 c 2
 99 -222 l 2
 96 -231 90 -249 75 -249 c 0
 64 -249 57 -239 56 -231 c 0
EndSplineSet
EndChar

StartChar: uni2127
Encoding: 8487 8487 298
Width: 722
Flags: HW
TeX: 688 0
HStem: -11 59<242.161 480.015> 614 69<116.387 214 507 596.71>
VStem: 55 78<144.028 330.083> 587 79<144.308 330.233> 621 56<517 552.212>
DStem2: 44 517 100 517 0.19498 0.980807<10.9189 113.54>
LayerCount: 2
Fore
SplineSet
44 517 m 1
 77 683 l 1
 255 683 l 1
 272 682 278 676 278 657 c 0
 278 517 133 370 133 229 c 0
 133 156 176 48 360 48 c 0
 533 48 587 146 587 229 c 0xf0
 587 375 442 514 442 659 c 0
 442 673 446 682 465 683 c 1
 644 683 l 1
 677 517 l 1
 621 517 l 1xe8
 603 606 601 605 597 609 c 0
 591 614 573 614 555 614 c 0
 539 614 523 614 507 614 c 1
 545 471 666 374 666 228 c 0
 666 122 589 -11 359 -11 c 0
 122 -11 55 131 55 228 c 0
 55 375 180 478 214 614 c 1xf0
 196 614 178 614 160 614 c 0
 121 614 121 612 114 583 c 0
 109 561 104 539 100 517 c 1
 44 517 l 1
EndSplineSet
EndChar

StartChar: circle
Encoding: 9675 9675 299
Width: 1111
Flags: HW
TeX: 750 250
HStem: -261 40<411.279 699.096> 721 40<410.877 698.005>
VStem: 55 40<97.5379 400.637> 1015 40<99.5133 403.001>
LayerCount: 2
Fore
SplineSet
55 251 m 0
 55 560 255 761 556 761 c 0
 852 761 1055 562 1055 249 c 0
 1055 -56 858 -261 554 -261 c 0
 255 -261 55 -60 55 251 c 0
95 249 m 0
 95 -51 291 -221 553 -221 c 0
 827 -221 1015 -44 1015 251 c 0
 1015 552 818 721 557 721 c 0
 280 721 95 541 95 249 c 0
EndSplineSet
EndChar

StartChar: uni301A
Encoding: 12314 12314 301
Width: 403
Flags: HW
TeX: 750 250
HStem: -250 40<158 243 283 380> 710 40<158 243 283 380>
VStem: 118 40<-210 710> 243 40<-210 710>
LayerCount: 2
Fore
SplineSet
118 -250 m 1
 118 750 l 1
 380 750 l 1
 380 710 l 1
 283 710 l 1
 283 -210 l 1
 380 -210 l 1
 380 -250 l 1
 118 -250 l 1
158 -210 m 1
 243 -210 l 1
 243 710 l 1
 158 710 l 1
 158 -210 l 1
EndSplineSet
EndChar

StartChar: uni301B
Encoding: 12315 12315 302
Width: 403
Flags: HW
TeX: 750 250
HStem: -250 40<22 119 159 244> 710 40<22 119 159 244>
VStem: 119 40<-210 710> 244 40<-210 710>
LayerCount: 2
Fore
SplineSet
22 -210 m 1
 119 -210 l 1
 119 710 l 1
 22 710 l 1
 22 750 l 1
 284 750 l 1
 284 -250 l 1
 22 -250 l 1
 22 -210 l 1
159 -210 m 1
 244 -210 l 1
 244 710 l 1
 159 710 l 1
 159 -210 l 1
EndSplineSet
EndChar

StartChar: arrowup
Encoding: 8593 8593 303
Width: 500
Flags: HW
TeX: 688 194
HStem: 425 40<28 81.788 417.798 472> 673 20G<237 262>
VStem: 230 40<-192.972 561.484> 249 1<573 693>
LayerCount: 2
Fore
SplineSet
28 425 m 1
 28 465 l 1
 137 492 225 573 249 693 c 1
 250 693 l 1xd0
 274 573 363 492 472 465 c 1
 472 425 l 1
 383 446 320 492 270 562 c 1
 270 -155 l 1xe0
 270 -155 271 -193 250 -193 c 0xd0
 242 -193 230 -189 230 -163 c 2
 230 529 l 2xe0
 230 540 230 551 229 562 c 1
 179 487 106 443 28 425 c 1
EndSplineSet
EndChar

StartChar: arrowdown
Encoding: 8595 8595 304
Width: 500
Flags: HW
TeX: 688 194
HStem: 35 40<28 81.1313 419.024 472> 673 20G<239.5 254>
VStem: 230 40<-62 692.985> 249 1<-193 -190.616>
LayerCount: 2
Fore
SplineSet
28 35 m 1
 28 75 l 1
 117 54 180 8 230 -62 c 1
 230 655 l 2xe0
 230 672 229 693 250 693 c 0xd0
 258 693 270 689 270 663 c 2
 270 -62 l 1
 313 2 380 53 472 75 c 1
 472 35 l 1
 327 -2 270 -115 270 -143 c 1xe0
 264 -143 l 1
 259 -160 253 -176 250 -193 c 1
 249 -193 l 1xd0
 246 -176 240 -160 235 -143 c 1
 230 -143 l 1
 228 -105 164 0 28 35 c 1
EndSplineSet
EndChar

StartChar: uni22C6
Encoding: 8902 8902 306
Width: 500
Flags: HW
TeX: 479 -20
VStem: 234 51<274.185 488.742>
LayerCount: 2
Fore
SplineSet
-8 306 m 0
 -8 315 0 320 8 320 c 0
 15 320 147 288 217 272 c 1
 221 318 228 404 234 470 c 0
 235 480 236 497 251 497 c 0
 273 497 266 471 285 272 c 1
 355 288 486 320 493 320 c 0
 501 320 510 315 510 306 c 0
 510 292 513 296 305 208 c 1
 412 30 416 26 416 17 c 0
 416 9 410 4 403 4 c 0
 392 4 393 3 250 168 c 1
 111 8 113 4 99 4 c 0
 90 4 83 12 87 25 c 0
 89 31 159 147 196 208 c 1
 -8 294 -8 290 -8 306 c 0
EndSplineSet
EndChar

StartChar: uni26AE
Encoding: 9902 9902 307
Width: 500
Flags: HW
TeX: 479 -20
HStem: 21 65<-83.3538 48.2752 453.675 581.636> 414 65<-81.7905 47.3253 450.923 583.94>
VStem: -198 65<144.057 355.793> 100 61<144.982 355.641> 216 69<-122.869 622.859> 340 61<144.581 355.896> 634 65<143.998 355.745>
LayerCount: 2
Fore
SplineSet
-198 249 m 0
 -198 428 -90 479 -18 479 c 0
 79 479 161 401 161 251 c 0
 161 74 56 21 -18 21 c 0
 -115 21 -198 99 -198 249 c 0
-133 251 m 0
 -133 110 -64 86 -17 86 c 0
 30 86 100 112 100 250 c 0
 100 388 30 414 -17 414 c 0
 -63 414 -133 389 -133 251 c 0
216 -94 m 0
 216 -70 216 -46 218 142 c 1
 218 198 l 2
 218 220 219 220 219 253 c 2
 219 359 l 2
 219 382 219 377 218 405 c 1
 218 470 216 591 216 597 c 0
 216 618 223 623 241 623 c 0
 247 623 253 623 259 623 c 0
 283 623 285 613 285 596 c 0
 285 588 282 439 282 318 c 0
 282 265 283 79 283 52 c 0
 283 24 284 24 285 -89 c 1
 285 -96 l 2
 285 -120 276 -123 258 -123 c 2
 242 -123 l 2
 217 -123 216 -112 216 -94 c 0
340 249 m 0
 340 403 424 479 519 479 c 0
 615 479 699 401 699 250 c 0
 699 71 591 21 519 21 c 0
 422 21 340 99 340 249 c 0
401 250 m 0
 401 113 471 86 518 86 c 0
 564 86 634 112 634 249 c 0
 634 390 564 414 518 414 c 0
 471 414 401 389 401 250 c 0
EndSplineSet
EndChar

StartChar: uni271D
Encoding: 10013 10013 308
Width: 500
Flags: HW
TeX: 611 23
HStem: 343 64<40.6921 218 281 458.529>
VStem: 214 70<-23.7755 344 405 611.883>
LayerCount: 2
Fore
SplineSet
40 370 m 0
 40 403 46 407 67 407 c 0
 82 407 97 405 218 405 c 1
 218 494 214 545 214 574 c 0
 214 611 219 612 244 612 c 2
 257 612 l 2
 276 612 284 608 284 586 c 0
 284 568 281 513 281 405 c 1
 399 406 413 407 428 407 c 0
 449 407 459 405 459 379 c 0
 459 347 455 342 427 342 c 0
 412 342 398 344 281 344 c 1
 281 300 l 1
 284 8 l 2
 284 -12 284 -24 259 -24 c 2
 242 -24 l 2
 222 -24 215 -18 215 1 c 0
 215 35 218 207 218 344 c 1
 126 344 86 343 68 343 c 0
 52 343 40 342 40 370 c 0
EndSplineSet
EndChar

StartChar: leaf
Encoding: 61704 61704 309
Width: 1000
Flags: HW
TeX: 688 0
HStem: -50 23<113.723 365.484> 161 24<289 736> 370 24<589 901> 721 24<632.621 893.84>
VStem: 239 24<197 509> 539 24<405 687>
DStem2: 14 24 28 4 0.821359 0.570412<0.090786 273.79 317.71 640.577 683.334 1166.85>
LayerCount: 2
Fore
SplineSet
-11 9 m 0
 -11 27 -6 71 -2 97 c 0
 59 472 384 745 760 745 c 0
 817 745 901 738 988 711 c 0
 999 707 1012 705 1012 686 c 0
 1012 668 1007 623 1003 596 c 0
 974 417 885 273 785 174 c 0
 595 -15 366 -49 253 -50 c 0
 181 -50 105 -45 14 -17 c 0
 2 -13 -11 -11 -11 9 c 0
14 24 m 1
 239 180 l 1
 239 509 l 1
 122 397 33 237 14 24 c 1
28 4 m 1
 97 -16 168 -27 240 -27 c 0
 418 -27 609 42 736 161 c 1
 275 161 l 2
 255 161 252 159 241 152 c 2
 28 4 l 1
263 197 m 1
 273 204 514 370 527 380 c 0
 538 388 539 394 539 403 c 2
 539 687 l 1
 446 659 355 609 284 550 c 0
 266 535 263 533 263 515 c 2
 263 197 l 1
289 185 m 1
 744 185 l 2
 762 185 764 187 780 204 c 0
 827 253 869 309 901 370 c 1
 572 370 l 1
 555 368 l 1
 540 360 l 1
 289 185 l 1
563 405 m 1
 973 690 l 1
 905 711 833 721 761 721 c 0
 692 721 641 715 563 695 c 1
 563 405 l 1
589 394 m 1
 913 394 l 1
 963 494 979 586 987 670 c 1
 986 670 l 1
 589 394 l 1
EndSplineSet
EndChar

StartChar: uni26AD
Encoding: 9901 9901 310
Width: 500
Flags: HW
TeX: 479 -20
HStem: 21 65<43.3628 204.652 296.521 458.551> 414 65<43.1604 204.573 296.335 457.024>
VStem: -87 65<153.821 344.718> 166 60<154.626 345.409> 275 60<151.794 348.088> 523 65<155.461 345.502>
LayerCount: 2
Fore
SplineSet
-87 250 m 0
 -87 388 -2 479 125 479 c 0
 188 479 227 456 251 440 c 1
 274 456 313 479 376 479 c 0
 498 479 588 392 588 250 c 0
 588 112 503 21 376 21 c 0
 326 21 287 35 250 60 c 1
 210 30 162 21 125 21 c 0
 1 21 -87 110 -87 250 c 0
-22 248 m 0
 -22 140 36 86 125 86 c 0
 156 86 177 91 206 105 c 1
 187 137 166 175 166 250 c 0
 166 324 188 364 206 395 c 1
 176 409 156 414 125 414 c 0
 58 414 -22 381 -22 248 c 0
226 250 m 0
 226 204 236 174 251 148 c 1
 256 157 275 189 275 251 c 0
 275 312 256 343 251 352 c 1
 236 326 226 296 226 250 c 0
295 105 m 1
 324 91 345 86 376 86 c 0
 487 86 523 167 523 249 c 0
 523 380 444 414 376 414 c 0
 341 414 318 406 295 395 c 1
 314 362 335 323 335 250 c 0
 335 188 321 149 295 105 c 1
EndSplineSet
EndChar

StartChar: musicalnote
Encoding: 9834 9834 311
Width: 611
Flags: HW
TeX: 688 0
HStem: -25 295<137.445 305.654> 673 20G<357 383>
VStem: 346 40<222 500>
LayerCount: 2
Fore
SplineSet
55 127 m 0
 55 213 135 270 221 270 c 0
 271 270 310 253 346 222 c 1
 346 655 l 2
 346 673 348 693 366 693 c 0
 400 693 372 656 413 543 c 0
 455 430 555 285 555 157 c 0
 555 133 543 129 535 129 c 0
 497 129 543 174 458 350 c 0
 400 470 407 454 386 500 c 1
 386 131 l 2
 386 32 304 -25 221 -25 c 0
 125 -25 55 48 55 127 c 0
EndSplineSet
EndChar

StartChar: tildelow
Encoding: 61705 61705 312
Width: 611
Flags: HW
TeX: 130 0
HStem: 0 86<311.237 457.742> 45 86<152.394 299.286>
LayerCount: 2
Fore
SplineSet
83 37 m 1
 126 91 149 131 209 131 c 0x40
 267 131 337 86 395 86 c 0x80
 436 86 460 106 481 131 c 1x40
 527 94 l 1
 484 40 461 0 401 0 c 0x80
 343 0 274 45 216 45 c 0x40
 175 45 150 25 129 0 c 1x80
 83 37 l 1
EndSplineSet
EndChar

StartChar: breve.ts1
Encoding: 61707 61707 314
Width: 611
Flags: HW
TeX: 688 0
HStem: 517 62<205.96 401.718> 675 20G<81 143 466.5 528>
VStem: 81 59<638.599 695> 469 59<638.246 695>
LayerCount: 2
Fore
SplineSet
81 695 m 1
 140 695 l 1
 146 602 245 579 305 579 c 0
 377 579 464 612 469 695 c 1
 528 695 l 1
 524 574 406 517 304 517 c 0
 199 517 85 575 81 695 c 1
EndSplineSet
EndChar

StartChar: caron.ts1
Encoding: 61708 61708 315
Width: 611
Flags: HW
TeX: 688 0
HStem: 560 160
LayerCount: 2
Fore
SplineSet
110 669 m 1
 139 720 l 1
 140 720 l 1
 294 633 298 630 305 630 c 0
 319 630 399 682 471 720 c 1
 499 669 l 1
 305 560 l 1
 110 669 l 1
EndSplineSet
EndChar

StartChar: dblgrave.ts1
Encoding: 61710 61710 317
Width: 500
Flags: HW
TeX: 688 0
HStem: 521 175
VStem: 82 303
LayerCount: 2
Fore
SplineSet
82 662 m 0
 82 682 101 696 117 696 c 2
 118 696 l 2
 134 696 142 694 218 552 c 1
 168 521 l 1
 85 644 82 646 82 662 c 0
248 662 m 0
 248 682 268 696 284 696 c 2
 285 696 l 2
 301 696 309 694 385 552 c 1
 335 521 l 1
 252 644 248 646 248 662 c 0
EndSplineSet
EndChar

StartChar: dagger
Encoding: 8224 8224 318
Width: 444
Flags: HW
TeX: 688 194
HStem: 423 70<58.6365 194.809 248.284 385.104>
VStem: 187 70<-185.343 429.699 485.411 696.253> 197 49<-204.867 23.5583 220.094 433 483 651.097>
LayerCount: 2
Fore
SplineSet
56 458 m 0
 56 471 64 493 96 493 c 0
 121 493 163 486 197 483 c 1xa0
 196 534 187 613 187 653 c 0
 187 663 188 671 189 675 c 0
 194 689 207 699 222 699 c 0
 237 699 250 689 255 675 c 0
 256 671 257 663 257 653 c 0xc0
 257 613 247 534 246 483 c 1
 295 487 326 493 347 493 c 0xa0
 384 493 388 468 388 458 c 0
 388 445 379 423 347 423 c 0
 322 423 280 430 246 433 c 1xa0
 248 362 257 328 257 257 c 2
 257 237 l 2
 257 156 253 -156 251 -187 c 0
 250 -203 245 -205 229 -205 c 2
 225 -205 l 2
 222 -205 219 -206 216 -206 c 0
 190 -206 193 -200 192 -162 c 0
 188 -3 187 156 187 236 c 2
 187 257 l 2xc0
 187 318 195 374 197 433 c 1
 150 429 119 423 98 423 c 0
 60 423 56 448 56 458 c 0
EndSplineSet
EndChar

StartChar: daggerdbl
Encoding: 8225 8225 319
Width: 444
Flags: HW
TeX: 688 194
HStem: -199 21G<208 236> -10 70<58.6306 194.625 248.376 385.404> 440 70<58.5959 194.717 248.284 385.104>
VStem: 187 70<-196.904 -2.39063 52.4368 246.433 253.142 447.325 502.391 696.485> 197 49<-151.563 0 50 201.563 298.66 450 500 651.563>
LayerCount: 2
Fore
SplineSet
56 25 m 0
 56 34 60 60 97 60 c 0
 122 60 164 54 197 50 c 1xe8
 195 101 188 152 187 204 c 0
 187 211 187 219 189 226 c 0
 194 240 207 249 222 249 c 0
 256 249 257 217 257 206 c 0xf0
 257 153 248 102 246 50 c 1
 280 54 321 60 347 60 c 0
 384 60 388 34 388 25 c 0
 388 12 380 -10 348 -10 c 0
 328 -10 297 -6 246 0 c 1xe8
 248 -51 256 -102 257 -154 c 0xf0
 257 -178 250 -199 222 -199 c 0
 194 -199 187 -178 187 -154 c 0xf0
 188 -102 195 -51 197 0 c 1
 146 -6 116 -10 96 -10 c 0
 63 -10 56 13 56 25 c 0
56 475 m 0
 56 488 64 510 96 510 c 0
 121 510 163 503 197 500 c 1xe8
 195 551 188 602 187 654 c 0
 187 661 187 669 189 676 c 0
 194 690 207 699 222 699 c 0
 237 699 249 690 254 676 c 0
 257 669 257 662 257 654 c 0xf0
 256 603 248 551 246 500 c 1
 295 504 326 510 347 510 c 0xe8
 384 510 388 485 388 475 c 0
 388 462 379 440 347 440 c 0
 322 440 280 447 246 450 c 1xe8
 248 399 256 348 257 296 c 0
 257 272 250 251 222 251 c 0
 191 251 187 277 187 297 c 0xf0
 187 332 195 393 197 450 c 1
 148 446 118 440 97 440 c 0
 60 440 56 465 56 475 c 0
EndSplineSet
EndChar

StartChar: uni2016
Encoding: 8214 8214 320
Width: 500
Flags: HW
TeX: 750 250
VStem: 175 40<-248.988 748.996> 285 40<-248.988 748.985>
LayerCount: 2
Fore
SplineSet
175 -219 m 2
 175 719 l 2
 175 745 187 749 195 749 c 0
 203 749 215 744 215 718 c 2
 215 -217 l 2
 215 -233 212 -249 195 -249 c 0
 178 -249 175 -234 175 -219 c 2
285 -219 m 2
 285 712 l 2
 285 728 285 749 305 749 c 0
 313 749 325 744 325 718 c 2
 325 -217 l 2
 325 -233 322 -249 305 -249 c 0
 287 -249 285 -232 285 -219 c 2
EndSplineSet
EndChar

StartChar: bullet
Encoding: 8226 8226 322
Width: 500
Flags: HW
TeX: 451 -55
HStem: 55 390<156.689 342.311>
VStem: 55 389<153.697 346.51>
LayerCount: 2
Fore
SplineSet
55 251 m 0
 55 365 132 445 250 445 c 0
 365 445 444 367 444 249 c 0
 444 135 367 55 249 55 c 0
 134 55 55 134 55 251 c 0
EndSplineSet
EndChar

StartChar: uni2103
Encoding: 8451 8451 323
Width: 944
Flags: HW
TeX: 688 0
HStem: -11 59<523.34 726.753> 461 40<60.3288 162.116> 635 59<520.38 718.365> 643 40<58.8734 162.511>
VStem: 0 40<521.038 623.86> 182 40<520.14 623.519> 278 78<211.333 469.464> 829 60<147.625 241.967 429.258 514.344>
LayerCount: 2
Fore
SplineSet
0 572 m 0
 0 636 45 683 112 683 c 0
 179 683 222 636 222 572 c 0
 222 508 178 461 111 461 c 0
 46 461 0 505 0 572 c 0
40 572 m 0
 40 533 65 501 111 501 c 0
 154 501 182 528 182 572 c 0
 182 611 157 643 111 643 c 0xdf
 67 643 40 616 40 572 c 0
278 341 m 0
 278 573 431 694 611 694 c 0
 703 694 765 656 816 603 c 1
 861 690 859 693 874 693 c 2
 875 693 l 2
 887 693 889 681 889 672 c 2
 889 451 l 2xef
 889 431 886 429 854 429 c 0
 838 429 832 430 829 445 c 0
 813 539 752 635 637 635 c 0
 519 635 356 574 356 341 c 0
 356 106 521 48 640 48 c 0
 750 48 820 130 829 216 c 0
 831 240 833 242 854 242 c 2
 866 242 l 2
 883 242 888 237 888 224 c 0
 888 130 796 -11 613 -11 c 0
 416 -11 278 126 278 341 c 0
EndSplineSet
EndChar

StartChar: dollaroldstyle
Encoding: 63268 63268 324
Width: 611
Flags: HW
TeX: 750 55
HStem: -5 59<280 330> 631 61<174.376 221 389 445.229>
VStem: 55 66<111.174 209.276 468.947 583.543> 221 59<-55 -5 63 329 422 631 700 750> 330 59<-55 -5 65 300 394 633 700 750> 474 80<480.694 549.899> 490 64<118.238 244.233>
DStem2: 280 406 280 329 0.968771 -0.247959<-139.742 -61.1248 19.0929 51.414>
LayerCount: 2
Fore
SplineSet
55 188 m 0
 55 224 81 232 96 232 c 0
 119 232 135 212 135 192 c 0
 135 170 121 166 121 152 c 0
 121 146 129 93 221 63 c 1
 221 343 l 1
 221 343 55 382 55 516 c 0
 55 586 100 666 221 692 c 1
 221 750 l 1
 280 750 l 1
 280 700 l 1
 330 700 l 1
 330 750 l 1
 389 750 l 1
 389 692 l 1
 541 664 554 557 554 522 c 0xfc
 554 483 526 476 514 476 c 0
 494 476 474 492 474 516 c 0xfc
 474 536 488 548 491 550 c 1
 478 592 448 619 389 633 c 1
 389 379 l 1
 498 348 554 269 554 194 c 0xfa
 554 110 503 30 389 4 c 1
 389 -55 l 1
 330 -55 l 1
 330 -5 l 1
 280 -5 l 1
 280 -55 l 1
 221 -55 l 1
 221 3 l 1
 221 3 55 31 55 188 c 0
120 525 m 0
 120 463 187 432 221 422 c 1
 221 631 l 1
 150 611 120 567 120 525 c 0
280 54 m 1
 288 53 297 53 305 53 c 0
 314 53 321 54 330 54 c 1
 330 316 l 1
 280 329 l 1
 280 54 l 1
280 406 m 1
 330 394 l 1
 330 641 l 1
 280 640 l 1
 280 406 l 1
389 65 m 1
 460 88 490 135 490 183 c 0xfa
 490 253 423 287 390 300 c 1
 389 264 l 1
 389 65 l 1
EndSplineSet
EndChar

